<?xml version="1.0" encoding="utf-8" standalone="no"?>
<!DOCTYPE svg PUBLIC "-//W3C//DTD SVG 1.1//EN"
  "http://www.w3.org/Graphics/SVG/1.1/DTD/svg11.dtd">
<!-- Created with matplotlib (https://matplotlib.org/) -->
<svg height="340.56pt" version="1.1" viewBox="0 0 460.8 340.56" width="460.8pt" xmlns="http://www.w3.org/2000/svg" xmlns:xlink="http://www.w3.org/1999/xlink">
 <metadata>
  <rdf:RDF xmlns:cc="http://creativecommons.org/ns#" xmlns:dc="http://purl.org/dc/elements/1.1/" xmlns:rdf="http://www.w3.org/1999/02/22-rdf-syntax-ns#">
   <cc:Work>
    <dc:type rdf:resource="http://purl.org/dc/dcmitype/StillImage"/>
    <dc:date>2022-07-27T11:36:07.728461</dc:date>
    <dc:format>image/svg+xml</dc:format>
    <dc:creator>
     <cc:Agent>
      <dc:title>Matplotlib v3.3.2, https://matplotlib.org/</dc:title>
     </cc:Agent>
    </dc:creator>
   </cc:Work>
  </rdf:RDF>
 </metadata>
 <defs>
  <style type="text/css">*{stroke-linecap:butt;stroke-linejoin:round;}</style>
 </defs>
 <g id="figure_1">
  <g id="patch_1">
   <path d="M 0 340.56 
L 460.8 340.56 
L 460.8 0 
L 0 0 
z
" style="fill:#ffffff;"/>
  </g>
  <g id="axes_1">
   <g id="LineCollection_1">
    <path clip-path="url(#p457aa99472)" d="M 410.155978 204.7978 
L 397.805335 132.269141 
" style="fill:none;stroke:#000000;"/>
    <path clip-path="url(#p457aa99472)" d="M 410.155978 204.7978 
L 370.007895 227.68435 
" style="fill:none;stroke:#000000;"/>
    <path clip-path="url(#p457aa99472)" d="M 410.155978 204.7978 
L 400.878625 216.401069 
" style="fill:none;stroke:#000000;"/>
    <path clip-path="url(#p457aa99472)" d="M 410.155978 204.7978 
L 406.908442 281.965928 
" style="fill:none;stroke:#000000;"/>
    <path clip-path="url(#p457aa99472)" d="M 316.396151 299.033622 
L 317.859021 241.056402 
" style="fill:none;stroke:#000000;"/>
    <path clip-path="url(#p457aa99472)" d="M 316.396151 299.033622 
L 358.785934 318.534545 
" style="fill:none;stroke:#000000;"/>
    <path clip-path="url(#p457aa99472)" d="M 316.396151 299.033622 
L 304.433898 252.096291 
" style="fill:none;stroke:#000000;"/>
    <path clip-path="url(#p457aa99472)" d="M 401.911537 253.111657 
L 397.045114 239.736047 
" style="fill:none;stroke:#000000;"/>
    <path clip-path="url(#p457aa99472)" d="M 401.911537 253.111657 
L 379.021855 209.026545 
" style="fill:none;stroke:#000000;"/>
    <path clip-path="url(#p457aa99472)" d="M 401.911537 253.111657 
L 400.878625 216.401069 
" style="fill:none;stroke:#000000;"/>
    <path clip-path="url(#p457aa99472)" d="M 401.911537 253.111657 
L 376.102883 222.972603 
" style="fill:none;stroke:#000000;"/>
    <path clip-path="url(#p457aa99472)" d="M 401.911537 253.111657 
L 363.264166 262.374364 
" style="fill:none;stroke:#000000;"/>
    <path clip-path="url(#p457aa99472)" d="M 401.911537 253.111657 
L 393.781701 287.853024 
" style="fill:none;stroke:#000000;"/>
    <path clip-path="url(#p457aa99472)" d="M 401.911537 253.111657 
L 425.481567 270.11724 
" style="fill:none;stroke:#000000;"/>
    <path clip-path="url(#p457aa99472)" d="M 401.911537 253.111657 
L 433.309091 236.450614 
" style="fill:none;stroke:#000000;"/>
    <path clip-path="url(#p457aa99472)" d="M 343.677697 318.067223 
L 358.785934 318.534545 
" style="fill:none;stroke:#000000;"/>
    <path clip-path="url(#p457aa99472)" d="M 343.677697 318.067223 
L 363.264166 262.374364 
" style="fill:none;stroke:#000000;"/>
    <path clip-path="url(#p457aa99472)" d="M 343.677697 318.067223 
L 354.538743 276.012808 
" style="fill:none;stroke:#000000;"/>
    <path clip-path="url(#p457aa99472)" d="M 395.667117 167.730449 
L 382.182419 190.76472 
" style="fill:none;stroke:#000000;"/>
    <path clip-path="url(#p457aa99472)" d="M 395.667117 167.730449 
L 379.021855 209.026545 
" style="fill:none;stroke:#000000;"/>
    <path clip-path="url(#p457aa99472)" d="M 395.667117 167.730449 
L 412.768864 168.182708 
" style="fill:none;stroke:#000000;"/>
    <path clip-path="url(#p457aa99472)" d="M 395.667117 167.730449 
L 376.102883 222.972603 
" style="fill:none;stroke:#000000;"/>
    <path clip-path="url(#p457aa99472)" d="M 395.667117 167.730449 
L 397.805335 132.269141 
" style="fill:none;stroke:#000000;"/>
    <path clip-path="url(#p457aa99472)" d="M 395.667117 167.730449 
L 390.471118 143.873646 
" style="fill:none;stroke:#000000;"/>
    <path clip-path="url(#p457aa99472)" d="M 89.746167 40.268559 
L 81.920394 60.063013 
" style="fill:none;stroke:#000000;"/>
    <path clip-path="url(#p457aa99472)" d="M 89.746167 40.268559 
L 77.351336 99.082307 
" style="fill:none;stroke:#000000;"/>
    <path clip-path="url(#p457aa99472)" d="M 89.746167 40.268559 
L 74.619848 22.025455 
" style="fill:none;stroke:#000000;"/>
    <path clip-path="url(#p457aa99472)" d="M 346.317037 253.770687 
L 351.670679 203.567391 
" style="fill:none;stroke:#000000;"/>
    <path clip-path="url(#p457aa99472)" d="M 346.317037 253.770687 
L 370.007895 227.68435 
" style="fill:none;stroke:#000000;"/>
    <path clip-path="url(#p457aa99472)" d="M 346.317037 253.770687 
L 357.36863 235.687707 
" style="fill:none;stroke:#000000;"/>
    <path clip-path="url(#p457aa99472)" d="M 338.892345 131.68686 
L 366.854532 150.13584 
" style="fill:none;stroke:#000000;"/>
    <path clip-path="url(#p457aa99472)" d="M 338.892345 131.68686 
L 367.39017 121.845061 
" style="fill:none;stroke:#000000;"/>
    <path clip-path="url(#p457aa99472)" d="M 338.892345 131.68686 
L 327.375056 204.537415 
" style="fill:none;stroke:#000000;"/>
    <path clip-path="url(#p457aa99472)" d="M 341.490547 197.805219 
L 382.182419 190.76472 
" style="fill:none;stroke:#000000;"/>
    <path clip-path="url(#p457aa99472)" d="M 341.490547 197.805219 
L 379.021855 209.026545 
" style="fill:none;stroke:#000000;"/>
    <path clip-path="url(#p457aa99472)" d="M 341.490547 197.805219 
L 351.670679 203.567391 
" style="fill:none;stroke:#000000;"/>
    <path clip-path="url(#p457aa99472)" d="M 341.490547 197.805219 
L 317.859021 241.056402 
" style="fill:none;stroke:#000000;"/>
    <path clip-path="url(#p457aa99472)" d="M 341.490547 197.805219 
L 336.69536 156.317231 
" style="fill:none;stroke:#000000;"/>
    <path clip-path="url(#p457aa99472)" d="M 341.490547 197.805219 
L 329.438648 228.782358 
" style="fill:none;stroke:#000000;"/>
    <path clip-path="url(#p457aa99472)" d="M 341.490547 197.805219 
L 327.375056 204.537415 
" style="fill:none;stroke:#000000;"/>
    <path clip-path="url(#p457aa99472)" d="M 366.854532 150.13584 
L 382.182419 190.76472 
" style="fill:none;stroke:#000000;"/>
    <path clip-path="url(#p457aa99472)" d="M 366.854532 150.13584 
L 379.021855 209.026545 
" style="fill:none;stroke:#000000;"/>
    <path clip-path="url(#p457aa99472)" d="M 366.854532 150.13584 
L 351.670679 203.567391 
" style="fill:none;stroke:#000000;"/>
    <path clip-path="url(#p457aa99472)" d="M 366.854532 150.13584 
L 336.69536 156.317231 
" style="fill:none;stroke:#000000;"/>
    <path clip-path="url(#p457aa99472)" d="M 366.854532 150.13584 
L 397.805335 132.269141 
" style="fill:none;stroke:#000000;"/>
    <path clip-path="url(#p457aa99472)" d="M 366.854532 150.13584 
L 367.39017 121.845061 
" style="fill:none;stroke:#000000;"/>
    <path clip-path="url(#p457aa99472)" d="M 366.854532 150.13584 
L 390.471118 143.873646 
" style="fill:none;stroke:#000000;"/>
    <path clip-path="url(#p457aa99472)" d="M 317.859021 241.056402 
L 351.670679 203.567391 
" style="fill:none;stroke:#000000;"/>
    <path clip-path="url(#p457aa99472)" d="M 317.859021 241.056402 
L 329.438648 228.782358 
" style="fill:none;stroke:#000000;"/>
    <path clip-path="url(#p457aa99472)" d="M 317.859021 241.056402 
L 304.433898 252.096291 
" style="fill:none;stroke:#000000;"/>
    <path clip-path="url(#p457aa99472)" d="M 58.915539 168.200944 
L 74.126462 121.164972 
" style="fill:none;stroke:#000000;"/>
    <path clip-path="url(#p457aa99472)" d="M 58.915539 168.200944 
L 51.348683 138.819322 
" style="fill:none;stroke:#000000;"/>
    <path clip-path="url(#p457aa99472)" d="M 58.915539 168.200944 
L 43.397066 138.668574 
" style="fill:none;stroke:#000000;"/>
    <path clip-path="url(#p457aa99472)" d="M 58.915539 168.200944 
L 79.768676 160.995035 
" style="fill:none;stroke:#000000;"/>
    <path clip-path="url(#p457aa99472)" d="M 358.785934 318.534545 
L 354.538743 276.012808 
" style="fill:none;stroke:#000000;"/>
    <path clip-path="url(#p457aa99472)" d="M 358.785934 318.534545 
L 406.908442 281.965928 
" style="fill:none;stroke:#000000;"/>
    <path clip-path="url(#p457aa99472)" d="M 376.102883 222.972603 
L 368.722362 195.345489 
" style="fill:none;stroke:#000000;"/>
    <path clip-path="url(#p457aa99472)" d="M 376.102883 222.972603 
L 354.538743 276.012808 
" style="fill:none;stroke:#000000;"/>
    <path clip-path="url(#p457aa99472)" d="M 363.264166 262.374364 
L 397.045114 239.736047 
" style="fill:none;stroke:#000000;"/>
    <path clip-path="url(#p457aa99472)" d="M 363.264166 262.374364 
L 379.021855 209.026545 
" style="fill:none;stroke:#000000;"/>
    <path clip-path="url(#p457aa99472)" d="M 363.264166 262.374364 
L 354.538743 276.012808 
" style="fill:none;stroke:#000000;"/>
    <path clip-path="url(#p457aa99472)" d="M 363.264166 262.374364 
L 372.597151 315.834422 
" style="fill:none;stroke:#000000;"/>
    <path clip-path="url(#p457aa99472)" d="M 363.264166 262.374364 
L 327.375056 204.537415 
" style="fill:none;stroke:#000000;"/>
    <path clip-path="url(#p457aa99472)" d="M 354.538743 276.012808 
L 368.722362 195.345489 
" style="fill:none;stroke:#000000;"/>
    <path clip-path="url(#p457aa99472)" d="M 354.538743 276.012808 
L 372.597151 315.834422 
" style="fill:none;stroke:#000000;"/>
    <path clip-path="url(#p457aa99472)" d="M 304.433898 252.096291 
L 329.438648 228.782358 
" style="fill:none;stroke:#000000;"/>
    <path clip-path="url(#p457aa99472)" d="M 304.433898 252.096291 
L 327.375056 204.537415 
" style="fill:none;stroke:#000000;"/>
    <path clip-path="url(#p457aa99472)" d="M 397.045114 239.736047 
L 382.182419 190.76472 
" style="fill:none;stroke:#000000;"/>
    <path clip-path="url(#p457aa99472)" d="M 397.045114 239.736047 
L 379.021855 209.026545 
" style="fill:none;stroke:#000000;"/>
    <path clip-path="url(#p457aa99472)" d="M 397.045114 239.736047 
L 400.878625 216.401069 
" style="fill:none;stroke:#000000;"/>
    <path clip-path="url(#p457aa99472)" d="M 397.045114 239.736047 
L 425.481567 270.11724 
" style="fill:none;stroke:#000000;"/>
    <path clip-path="url(#p457aa99472)" d="M 406.908442 281.965928 
L 414.357345 232.959537 
" style="fill:none;stroke:#000000;"/>
    <path clip-path="url(#p457aa99472)" d="M 406.908442 281.965928 
L 425.481567 270.11724 
" style="fill:none;stroke:#000000;"/>
    <path clip-path="url(#p457aa99472)" d="M 336.69536 156.317231 
L 351.670679 203.567391 
" style="fill:none;stroke:#000000;"/>
    <path clip-path="url(#p457aa99472)" d="M 382.182419 190.76472 
L 379.021855 209.026545 
" style="fill:none;stroke:#000000;"/>
    <path clip-path="url(#p457aa99472)" d="M 382.182419 190.76472 
L 351.670679 203.567391 
" style="fill:none;stroke:#000000;"/>
    <path clip-path="url(#p457aa99472)" d="M 382.182419 190.76472 
L 400.878625 216.401069 
" style="fill:none;stroke:#000000;"/>
    <path clip-path="url(#p457aa99472)" d="M 382.182419 190.76472 
L 412.768864 168.182708 
" style="fill:none;stroke:#000000;"/>
    <path clip-path="url(#p457aa99472)" d="M 382.182419 190.76472 
L 368.722362 195.345489 
" style="fill:none;stroke:#000000;"/>
    <path clip-path="url(#p457aa99472)" d="M 382.182419 190.76472 
L 370.007895 227.68435 
" style="fill:none;stroke:#000000;"/>
    <path clip-path="url(#p457aa99472)" d="M 382.182419 190.76472 
L 414.357345 232.959537 
" style="fill:none;stroke:#000000;"/>
    <path clip-path="url(#p457aa99472)" d="M 382.182419 190.76472 
L 362.037261 167.887107 
" style="fill:none;stroke:#000000;"/>
    <path clip-path="url(#p457aa99472)" d="M 74.126462 121.164972 
L 81.920394 60.063013 
" style="fill:none;stroke:#000000;"/>
    <path clip-path="url(#p457aa99472)" d="M 74.126462 121.164972 
L 43.397066 138.668574 
" style="fill:none;stroke:#000000;"/>
    <path clip-path="url(#p457aa99472)" d="M 74.126462 121.164972 
L 73.54745 84.439251 
" style="fill:none;stroke:#000000;"/>
    <path clip-path="url(#p457aa99472)" d="M 50.647362 107.911689 
L 77.351336 99.082307 
" style="fill:none;stroke:#000000;"/>
    <path clip-path="url(#p457aa99472)" d="M 50.647362 107.911689 
L 61.058468 112.297441 
" style="fill:none;stroke:#000000;"/>
    <path clip-path="url(#p457aa99472)" d="M 50.647362 107.911689 
L 64.221943 67.792329 
" style="fill:none;stroke:#000000;"/>
    <path clip-path="url(#p457aa99472)" d="M 50.647362 107.911689 
L 51.348683 138.819322 
" style="fill:none;stroke:#000000;"/>
    <path clip-path="url(#p457aa99472)" d="M 50.647362 107.911689 
L 43.397066 138.668574 
" style="fill:none;stroke:#000000;"/>
    <path clip-path="url(#p457aa99472)" d="M 50.647362 107.911689 
L 30.653297 111.004862 
" style="fill:none;stroke:#000000;"/>
    <path clip-path="url(#p457aa99472)" d="M 372.597151 315.834422 
L 393.781701 287.853024 
" style="fill:none;stroke:#000000;"/>
    <path clip-path="url(#p457aa99472)" d="M 393.781701 287.853024 
L 387.209538 258.098017 
" style="fill:none;stroke:#000000;"/>
    <path clip-path="url(#p457aa99472)" d="M 393.781701 287.853024 
L 387.860419 214.047435 
" style="fill:none;stroke:#000000;"/>
    <path clip-path="url(#p457aa99472)" d="M 81.920394 60.063013 
L 77.351336 99.082307 
" style="fill:none;stroke:#000000;"/>
    <path clip-path="url(#p457aa99472)" d="M 81.920394 60.063013 
L 74.619848 22.025455 
" style="fill:none;stroke:#000000;"/>
    <path clip-path="url(#p457aa99472)" d="M 81.920394 60.063013 
L 59.03655 34.999074 
" style="fill:none;stroke:#000000;"/>
    <path clip-path="url(#p457aa99472)" d="M 51.348683 138.819322 
L 43.397066 138.668574 
" style="fill:none;stroke:#000000;"/>
    <path clip-path="url(#p457aa99472)" d="M 51.348683 138.819322 
L 61.058468 112.297441 
" style="fill:none;stroke:#000000;"/>
    <path clip-path="url(#p457aa99472)" d="M 51.348683 138.819322 
L 27.490909 134.147953 
" style="fill:none;stroke:#000000;"/>
    <path clip-path="url(#p457aa99472)" d="M 51.348683 138.819322 
L 72.479309 143.637401 
" style="fill:none;stroke:#000000;"/>
    <path clip-path="url(#p457aa99472)" d="M 51.348683 138.819322 
L 49.987808 90.4558 
" style="fill:none;stroke:#000000;"/>
    <path clip-path="url(#p457aa99472)" d="M 77.351336 99.082307 
L 61.058468 112.297441 
" style="fill:none;stroke:#000000;"/>
    <path clip-path="url(#p457aa99472)" d="M 77.351336 99.082307 
L 64.221943 67.792329 
" style="fill:none;stroke:#000000;"/>
    <path clip-path="url(#p457aa99472)" d="M 77.351336 99.082307 
L 79.768676 160.995035 
" style="fill:none;stroke:#000000;"/>
    <path clip-path="url(#p457aa99472)" d="M 77.351336 99.082307 
L 72.479309 143.637401 
" style="fill:none;stroke:#000000;"/>
    <path clip-path="url(#p457aa99472)" d="M 77.351336 99.082307 
L 49.987808 90.4558 
" style="fill:none;stroke:#000000;"/>
    <path clip-path="url(#p457aa99472)" d="M 77.351336 99.082307 
L 73.54745 84.439251 
" style="fill:none;stroke:#000000;"/>
    <path clip-path="url(#p457aa99472)" d="M 379.021855 209.026545 
L 351.670679 203.567391 
" style="fill:none;stroke:#000000;"/>
    <path clip-path="url(#p457aa99472)" d="M 379.021855 209.026545 
L 400.878625 216.401069 
" style="fill:none;stroke:#000000;"/>
    <path clip-path="url(#p457aa99472)" d="M 379.021855 209.026545 
L 387.209538 258.098017 
" style="fill:none;stroke:#000000;"/>
    <path clip-path="url(#p457aa99472)" d="M 379.021855 209.026545 
L 368.722362 195.345489 
" style="fill:none;stroke:#000000;"/>
    <path clip-path="url(#p457aa99472)" d="M 379.021855 209.026545 
L 370.007895 227.68435 
" style="fill:none;stroke:#000000;"/>
    <path clip-path="url(#p457aa99472)" d="M 379.021855 209.026545 
L 414.357345 232.959537 
" style="fill:none;stroke:#000000;"/>
    <path clip-path="url(#p457aa99472)" d="M 379.021855 209.026545 
L 362.037261 167.887107 
" style="fill:none;stroke:#000000;"/>
    <path clip-path="url(#p457aa99472)" d="M 397.805335 132.269141 
L 367.39017 121.845061 
" style="fill:none;stroke:#000000;"/>
    <path clip-path="url(#p457aa99472)" d="M 387.209538 258.098017 
L 370.007895 227.68435 
" style="fill:none;stroke:#000000;"/>
    <path clip-path="url(#p457aa99472)" d="M 387.209538 258.098017 
L 387.860419 214.047435 
" style="fill:none;stroke:#000000;"/>
    <path clip-path="url(#p457aa99472)" d="M 43.397066 138.668574 
L 61.058468 112.297441 
" style="fill:none;stroke:#000000;"/>
    <path clip-path="url(#p457aa99472)" d="M 43.397066 138.668574 
L 27.490909 134.147953 
" style="fill:none;stroke:#000000;"/>
    <path clip-path="url(#p457aa99472)" d="M 43.397066 138.668574 
L 30.653297 111.004862 
" style="fill:none;stroke:#000000;"/>
    <path clip-path="url(#p457aa99472)" d="M 27.490909 134.147953 
L 49.987808 90.4558 
" style="fill:none;stroke:#000000;"/>
    <path clip-path="url(#p457aa99472)" d="M 59.03655 34.999074 
L 74.619848 22.025455 
" style="fill:none;stroke:#000000;"/>
    <path clip-path="url(#p457aa99472)" d="M 59.03655 34.999074 
L 49.987808 90.4558 
" style="fill:none;stroke:#000000;"/>
    <path clip-path="url(#p457aa99472)" d="M 412.768864 168.182708 
L 387.860419 214.047435 
" style="fill:none;stroke:#000000;"/>
    <path clip-path="url(#p457aa99472)" d="M 30.653297 111.004862 
L 61.058468 112.297441 
" style="fill:none;stroke:#000000;"/>
    <path clip-path="url(#p457aa99472)" d="M 351.670679 203.567391 
L 370.007895 227.68435 
" style="fill:none;stroke:#000000;"/>
    <path clip-path="url(#p457aa99472)" d="M 351.670679 203.567391 
L 357.36863 235.687707 
" style="fill:none;stroke:#000000;"/>
    <path clip-path="url(#p457aa99472)" d="M 351.670679 203.567391 
L 329.438648 228.782358 
" style="fill:none;stroke:#000000;"/>
    <path clip-path="url(#p457aa99472)" d="M 351.670679 203.567391 
L 327.375056 204.537415 
" style="fill:none;stroke:#000000;"/>
    <path clip-path="url(#p457aa99472)" d="M 351.670679 203.567391 
L 387.860419 214.047435 
" style="fill:none;stroke:#000000;"/>
    <path clip-path="url(#p457aa99472)" d="M 351.670679 203.567391 
L 362.037261 167.887107 
" style="fill:none;stroke:#000000;"/>
    <path clip-path="url(#p457aa99472)" d="M 367.39017 121.845061 
L 368.722362 195.345489 
" style="fill:none;stroke:#000000;"/>
    <path clip-path="url(#p457aa99472)" d="M 74.619848 22.025455 
L 64.221943 67.792329 
" style="fill:none;stroke:#000000;"/>
    <path clip-path="url(#p457aa99472)" d="M 368.722362 195.345489 
L 400.878625 216.401069 
" style="fill:none;stroke:#000000;"/>
    <path clip-path="url(#p457aa99472)" d="M 79.768676 160.995035 
L 72.479309 143.637401 
" style="fill:none;stroke:#000000;"/>
    <path clip-path="url(#p457aa99472)" d="M 390.471118 143.873646 
L 387.860419 214.047435 
" style="fill:none;stroke:#000000;"/>
    <path clip-path="url(#p457aa99472)" d="M 370.007895 227.68435 
L 400.878625 216.401069 
" style="fill:none;stroke:#000000;"/>
    <path clip-path="url(#p457aa99472)" d="M 370.007895 227.68435 
L 357.36863 235.687707 
" style="fill:none;stroke:#000000;"/>
    <path clip-path="url(#p457aa99472)" d="M 370.007895 227.68435 
L 329.438648 228.782358 
" style="fill:none;stroke:#000000;"/>
    <path clip-path="url(#p457aa99472)" d="M 370.007895 227.68435 
L 387.860419 214.047435 
" style="fill:none;stroke:#000000;"/>
    <path clip-path="url(#p457aa99472)" d="M 72.479309 143.637401 
L 61.058468 112.297441 
" style="fill:none;stroke:#000000;"/>
    <path clip-path="url(#p457aa99472)" d="M 400.878625 216.401069 
L 414.357345 232.959537 
" style="fill:none;stroke:#000000;"/>
    <path clip-path="url(#p457aa99472)" d="M 400.878625 216.401069 
L 433.309091 236.450614 
" style="fill:none;stroke:#000000;"/>
    <path clip-path="url(#p457aa99472)" d="M 357.36863 235.687707 
L 387.860419 214.047435 
" style="fill:none;stroke:#000000;"/>
    <path clip-path="url(#p457aa99472)" d="M 414.357345 232.959537 
L 425.481567 270.11724 
" style="fill:none;stroke:#000000;"/>
    <path clip-path="url(#p457aa99472)" d="M 414.357345 232.959537 
L 433.309091 236.450614 
" style="fill:none;stroke:#000000;"/>
    <path clip-path="url(#p457aa99472)" d="M 61.058468 112.297441 
L 64.221943 67.792329 
" style="fill:none;stroke:#000000;"/>
    <path clip-path="url(#p457aa99472)" d="M 61.058468 112.297441 
L 49.987808 90.4558 
" style="fill:none;stroke:#000000;"/>
    <path clip-path="url(#p457aa99472)" d="M 61.058468 112.297441 
L 73.54745 84.439251 
" style="fill:none;stroke:#000000;"/>
    <path clip-path="url(#p457aa99472)" d="M 64.221943 67.792329 
L 73.54745 84.439251 
" style="fill:none;stroke:#000000;"/>
   </g>
   <g id="PathCollection_1">
    <defs>
     <path d="M 0 5 
C 1.326016 5 2.597899 4.473168 3.535534 3.535534 
C 4.473168 2.597899 5 1.326016 5 0 
C 5 -1.326016 4.473168 -2.597899 3.535534 -3.535534 
C 2.597899 -4.473168 1.326016 -5 0 -5 
C -1.326016 -5 -2.597899 -4.473168 -3.535534 -3.535534 
C -4.473168 -2.597899 -5 -1.326016 -5 0 
C -5 1.326016 -4.473168 2.597899 -3.535534 3.535534 
C -2.597899 4.473168 -1.326016 5 0 5 
z
" id="m042b99b497" style="stroke:#1f78b4;"/>
    </defs>
    <g clip-path="url(#p457aa99472)">
     <use style="fill:#1f78b4;stroke:#1f78b4;" x="410.155978" xlink:href="#m042b99b497" y="204.7978"/>
     <use style="fill:#1f78b4;stroke:#1f78b4;" x="316.396151" xlink:href="#m042b99b497" y="299.033622"/>
     <use style="fill:#1f78b4;stroke:#1f78b4;" x="401.911537" xlink:href="#m042b99b497" y="253.111657"/>
     <use style="fill:#1f78b4;stroke:#1f78b4;" x="343.677697" xlink:href="#m042b99b497" y="318.067223"/>
     <use style="fill:#1f78b4;stroke:#1f78b4;" x="395.667117" xlink:href="#m042b99b497" y="167.730449"/>
     <use style="fill:#1f78b4;stroke:#1f78b4;" x="89.746167" xlink:href="#m042b99b497" y="40.268559"/>
     <use style="fill:#1f78b4;stroke:#1f78b4;" x="346.317037" xlink:href="#m042b99b497" y="253.770687"/>
     <use style="fill:#1f78b4;stroke:#1f78b4;" x="338.892345" xlink:href="#m042b99b497" y="131.68686"/>
     <use style="fill:#1f78b4;stroke:#1f78b4;" x="341.490547" xlink:href="#m042b99b497" y="197.805219"/>
     <use style="fill:#1f78b4;stroke:#1f78b4;" x="366.854532" xlink:href="#m042b99b497" y="150.13584"/>
     <use style="fill:#1f78b4;stroke:#1f78b4;" x="317.859021" xlink:href="#m042b99b497" y="241.056402"/>
     <use style="fill:#1f78b4;stroke:#1f78b4;" x="58.915539" xlink:href="#m042b99b497" y="168.200944"/>
     <use style="fill:#1f78b4;stroke:#1f78b4;" x="358.785934" xlink:href="#m042b99b497" y="318.534545"/>
     <use style="fill:#1f78b4;stroke:#1f78b4;" x="376.102883" xlink:href="#m042b99b497" y="222.972603"/>
     <use style="fill:#1f78b4;stroke:#1f78b4;" x="363.264166" xlink:href="#m042b99b497" y="262.374364"/>
     <use style="fill:#1f78b4;stroke:#1f78b4;" x="354.538743" xlink:href="#m042b99b497" y="276.012808"/>
     <use style="fill:#1f78b4;stroke:#1f78b4;" x="304.433898" xlink:href="#m042b99b497" y="252.096291"/>
     <use style="fill:#1f78b4;stroke:#1f78b4;" x="397.045114" xlink:href="#m042b99b497" y="239.736047"/>
     <use style="fill:#1f78b4;stroke:#1f78b4;" x="406.908442" xlink:href="#m042b99b497" y="281.965928"/>
     <use style="fill:#1f78b4;stroke:#1f78b4;" x="336.69536" xlink:href="#m042b99b497" y="156.317231"/>
     <use style="fill:#1f78b4;stroke:#1f78b4;" x="382.182419" xlink:href="#m042b99b497" y="190.76472"/>
     <use style="fill:#1f78b4;stroke:#1f78b4;" x="74.126462" xlink:href="#m042b99b497" y="121.164972"/>
     <use style="fill:#1f78b4;stroke:#1f78b4;" x="50.647362" xlink:href="#m042b99b497" y="107.911689"/>
     <use style="fill:#1f78b4;stroke:#1f78b4;" x="372.597151" xlink:href="#m042b99b497" y="315.834422"/>
     <use style="fill:#1f78b4;stroke:#1f78b4;" x="393.781701" xlink:href="#m042b99b497" y="287.853024"/>
     <use style="fill:#1f78b4;stroke:#1f78b4;" x="81.920394" xlink:href="#m042b99b497" y="60.063013"/>
     <use style="fill:#1f78b4;stroke:#1f78b4;" x="51.348683" xlink:href="#m042b99b497" y="138.819322"/>
     <use style="fill:#1f78b4;stroke:#1f78b4;" x="77.351336" xlink:href="#m042b99b497" y="99.082307"/>
     <use style="fill:#1f78b4;stroke:#1f78b4;" x="379.021855" xlink:href="#m042b99b497" y="209.026545"/>
     <use style="fill:#1f78b4;stroke:#1f78b4;" x="397.805335" xlink:href="#m042b99b497" y="132.269141"/>
     <use style="fill:#1f78b4;stroke:#1f78b4;" x="387.209538" xlink:href="#m042b99b497" y="258.098017"/>
     <use style="fill:#1f78b4;stroke:#1f78b4;" x="43.397066" xlink:href="#m042b99b497" y="138.668574"/>
     <use style="fill:#1f78b4;stroke:#1f78b4;" x="27.490909" xlink:href="#m042b99b497" y="134.147953"/>
     <use style="fill:#1f78b4;stroke:#1f78b4;" x="59.03655" xlink:href="#m042b99b497" y="34.999074"/>
     <use style="fill:#1f78b4;stroke:#1f78b4;" x="412.768864" xlink:href="#m042b99b497" y="168.182708"/>
     <use style="fill:#1f78b4;stroke:#1f78b4;" x="30.653297" xlink:href="#m042b99b497" y="111.004862"/>
     <use style="fill:#1f78b4;stroke:#1f78b4;" x="351.670679" xlink:href="#m042b99b497" y="203.567391"/>
     <use style="fill:#1f78b4;stroke:#1f78b4;" x="367.39017" xlink:href="#m042b99b497" y="121.845061"/>
     <use style="fill:#1f78b4;stroke:#1f78b4;" x="74.619848" xlink:href="#m042b99b497" y="22.025455"/>
     <use style="fill:#1f78b4;stroke:#1f78b4;" x="368.722362" xlink:href="#m042b99b497" y="195.345489"/>
     <use style="fill:#1f78b4;stroke:#1f78b4;" x="79.768676" xlink:href="#m042b99b497" y="160.995035"/>
     <use style="fill:#1f78b4;stroke:#1f78b4;" x="390.471118" xlink:href="#m042b99b497" y="143.873646"/>
     <use style="fill:#1f78b4;stroke:#1f78b4;" x="370.007895" xlink:href="#m042b99b497" y="227.68435"/>
     <use style="fill:#1f78b4;stroke:#1f78b4;" x="72.479309" xlink:href="#m042b99b497" y="143.637401"/>
     <use style="fill:#1f78b4;stroke:#1f78b4;" x="400.878625" xlink:href="#m042b99b497" y="216.401069"/>
     <use style="fill:#1f78b4;stroke:#1f78b4;" x="357.36863" xlink:href="#m042b99b497" y="235.687707"/>
     <use style="fill:#1f78b4;stroke:#1f78b4;" x="414.357345" xlink:href="#m042b99b497" y="232.959537"/>
     <use style="fill:#1f78b4;stroke:#1f78b4;" x="61.058468" xlink:href="#m042b99b497" y="112.297441"/>
     <use style="fill:#1f78b4;stroke:#1f78b4;" x="425.481567" xlink:href="#m042b99b497" y="270.11724"/>
     <use style="fill:#1f78b4;stroke:#1f78b4;" x="433.309091" xlink:href="#m042b99b497" y="236.450614"/>
     <use style="fill:#1f78b4;stroke:#1f78b4;" x="64.221943" xlink:href="#m042b99b497" y="67.792329"/>
     <use style="fill:#1f78b4;stroke:#1f78b4;" x="329.438648" xlink:href="#m042b99b497" y="228.782358"/>
     <use style="fill:#1f78b4;stroke:#1f78b4;" x="327.375056" xlink:href="#m042b99b497" y="204.537415"/>
     <use style="fill:#1f78b4;stroke:#1f78b4;" x="49.987808" xlink:href="#m042b99b497" y="90.4558"/>
     <use style="fill:#1f78b4;stroke:#1f78b4;" x="387.860419" xlink:href="#m042b99b497" y="214.047435"/>
     <use style="fill:#1f78b4;stroke:#1f78b4;" x="73.54745" xlink:href="#m042b99b497" y="84.439251"/>
     <use style="fill:#1f78b4;stroke:#1f78b4;" x="362.037261" xlink:href="#m042b99b497" y="167.887107"/>
    </g>
   </g>
   <g id="text_1">
    <g clip-path="url(#p457aa99472)">
     <!-- 0 -->
     <g transform="translate(407.931603 206.865925)scale(0.08 -0.08)">
      <defs>
       <path d="M 4.15625 35.296875 
Q 4.15625 48 6.765625 55.734375 
Q 9.375 63.484375 14.515625 67.671875 
Q 19.671875 71.875 27.484375 71.875 
Q 33.25 71.875 37.59375 69.546875 
Q 41.9375 67.234375 44.765625 62.859375 
Q 47.609375 58.5 49.21875 52.21875 
Q 50.828125 45.953125 50.828125 35.296875 
Q 50.828125 22.703125 48.234375 14.96875 
Q 45.65625 7.234375 40.5 3 
Q 35.359375 -1.21875 27.484375 -1.21875 
Q 17.140625 -1.21875 11.234375 6.203125 
Q 4.15625 15.140625 4.15625 35.296875 
z
M 13.1875 35.296875 
Q 13.1875 17.671875 17.3125 11.828125 
Q 21.4375 6 27.484375 6 
Q 33.546875 6 37.671875 11.859375 
Q 41.796875 17.71875 41.796875 35.296875 
Q 41.796875 52.984375 37.671875 58.78125 
Q 33.546875 64.59375 27.390625 64.59375 
Q 21.34375 64.59375 17.71875 59.46875 
Q 13.1875 52.9375 13.1875 35.296875 
z
" id="ArialMT-48"/>
      </defs>
      <use xlink:href="#ArialMT-48"/>
     </g>
    </g>
   </g>
   <g id="text_2">
    <g clip-path="url(#p457aa99472)">
     <!-- 1 -->
     <g transform="translate(314.171776 301.101747)scale(0.08 -0.08)">
      <defs>
       <path d="M 37.25 0 
L 28.46875 0 
L 28.46875 56 
Q 25.296875 52.984375 20.140625 49.953125 
Q 14.984375 46.921875 10.890625 45.40625 
L 10.890625 53.90625 
Q 18.265625 57.375 23.78125 62.296875 
Q 29.296875 67.234375 31.59375 71.875 
L 37.25 71.875 
z
" id="ArialMT-49"/>
      </defs>
      <use xlink:href="#ArialMT-49"/>
     </g>
    </g>
   </g>
   <g id="text_3">
    <g clip-path="url(#p457aa99472)">
     <!-- 2 -->
     <g transform="translate(399.687162 255.179782)scale(0.08 -0.08)">
      <defs>
       <path d="M 50.34375 8.453125 
L 50.34375 0 
L 3.03125 0 
Q 2.9375 3.171875 4.046875 6.109375 
Q 5.859375 10.9375 9.828125 15.625 
Q 13.8125 20.3125 21.34375 26.46875 
Q 33.015625 36.03125 37.109375 41.625 
Q 41.21875 47.21875 41.21875 52.203125 
Q 41.21875 57.421875 37.46875 61 
Q 33.734375 64.59375 27.734375 64.59375 
Q 21.390625 64.59375 17.578125 60.78125 
Q 13.765625 56.984375 13.71875 50.25 
L 4.6875 51.171875 
Q 5.609375 61.28125 11.65625 66.578125 
Q 17.71875 71.875 27.9375 71.875 
Q 38.234375 71.875 44.234375 66.15625 
Q 50.25 60.453125 50.25 52 
Q 50.25 47.703125 48.484375 43.546875 
Q 46.734375 39.40625 42.65625 34.8125 
Q 38.578125 30.21875 29.109375 22.21875 
Q 21.1875 15.578125 18.9375 13.203125 
Q 16.703125 10.84375 15.234375 8.453125 
z
" id="ArialMT-50"/>
      </defs>
      <use xlink:href="#ArialMT-50"/>
     </g>
    </g>
   </g>
   <g id="text_4">
    <g clip-path="url(#p457aa99472)">
     <!-- 3 -->
     <g transform="translate(341.453322 320.135348)scale(0.08 -0.08)">
      <defs>
       <path d="M 4.203125 18.890625 
L 12.984375 20.0625 
Q 14.5 12.59375 18.140625 9.296875 
Q 21.78125 6 27 6 
Q 33.203125 6 37.46875 10.296875 
Q 41.75 14.59375 41.75 20.953125 
Q 41.75 27 37.796875 30.921875 
Q 33.84375 34.859375 27.734375 34.859375 
Q 25.25 34.859375 21.53125 33.890625 
L 22.515625 41.609375 
Q 23.390625 41.5 23.921875 41.5 
Q 29.546875 41.5 34.03125 44.421875 
Q 38.53125 47.359375 38.53125 53.46875 
Q 38.53125 58.296875 35.25 61.46875 
Q 31.984375 64.65625 26.8125 64.65625 
Q 21.6875 64.65625 18.265625 61.421875 
Q 14.84375 58.203125 13.875 51.765625 
L 5.078125 53.328125 
Q 6.6875 62.15625 12.390625 67.015625 
Q 18.109375 71.875 26.609375 71.875 
Q 32.46875 71.875 37.390625 69.359375 
Q 42.328125 66.84375 44.9375 62.5 
Q 47.5625 58.15625 47.5625 53.265625 
Q 47.5625 48.640625 45.0625 44.828125 
Q 42.578125 41.015625 37.703125 38.765625 
Q 44.046875 37.3125 47.5625 32.6875 
Q 51.078125 28.078125 51.078125 21.140625 
Q 51.078125 11.765625 44.234375 5.25 
Q 37.40625 -1.265625 26.953125 -1.265625 
Q 17.53125 -1.265625 11.296875 4.34375 
Q 5.078125 9.96875 4.203125 18.890625 
z
" id="ArialMT-51"/>
      </defs>
      <use xlink:href="#ArialMT-51"/>
     </g>
    </g>
   </g>
   <g id="text_5">
    <g clip-path="url(#p457aa99472)">
     <!-- 4 -->
     <g transform="translate(393.442742 169.798574)scale(0.08 -0.08)">
      <defs>
       <path d="M 32.328125 0 
L 32.328125 17.140625 
L 1.265625 17.140625 
L 1.265625 25.203125 
L 33.9375 71.578125 
L 41.109375 71.578125 
L 41.109375 25.203125 
L 50.78125 25.203125 
L 50.78125 17.140625 
L 41.109375 17.140625 
L 41.109375 0 
z
M 32.328125 25.203125 
L 32.328125 57.46875 
L 9.90625 25.203125 
z
" id="ArialMT-52"/>
      </defs>
      <use xlink:href="#ArialMT-52"/>
     </g>
    </g>
   </g>
   <g id="text_6">
    <g clip-path="url(#p457aa99472)">
     <!-- 5 -->
     <g transform="translate(87.521792 42.336684)scale(0.08 -0.08)">
      <defs>
       <path d="M 4.15625 18.75 
L 13.375 19.53125 
Q 14.40625 12.796875 18.140625 9.390625 
Q 21.875 6 27.15625 6 
Q 33.5 6 37.890625 10.78125 
Q 42.28125 15.578125 42.28125 23.484375 
Q 42.28125 31 38.0625 35.34375 
Q 33.84375 39.703125 27 39.703125 
Q 22.75 39.703125 19.328125 37.765625 
Q 15.921875 35.84375 13.96875 32.765625 
L 5.71875 33.84375 
L 12.640625 70.609375 
L 48.25 70.609375 
L 48.25 62.203125 
L 19.671875 62.203125 
L 15.828125 42.96875 
Q 22.265625 47.46875 29.34375 47.46875 
Q 38.71875 47.46875 45.15625 40.96875 
Q 51.609375 34.46875 51.609375 24.265625 
Q 51.609375 14.546875 45.953125 7.46875 
Q 39.0625 -1.21875 27.15625 -1.21875 
Q 17.390625 -1.21875 11.203125 4.25 
Q 5.03125 9.71875 4.15625 18.75 
z
" id="ArialMT-53"/>
      </defs>
      <use xlink:href="#ArialMT-53"/>
     </g>
    </g>
   </g>
   <g id="text_7">
    <g clip-path="url(#p457aa99472)">
     <!-- 6 -->
     <g transform="translate(344.092662 255.838812)scale(0.08 -0.08)">
      <defs>
       <path d="M 49.75 54.046875 
L 41.015625 53.375 
Q 39.84375 58.546875 37.703125 60.890625 
Q 34.125 64.65625 28.90625 64.65625 
Q 24.703125 64.65625 21.53125 62.3125 
Q 17.390625 59.28125 14.984375 53.46875 
Q 12.59375 47.65625 12.5 36.921875 
Q 15.671875 41.75 20.265625 44.09375 
Q 24.859375 46.4375 29.890625 46.4375 
Q 38.671875 46.4375 44.84375 39.96875 
Q 51.03125 33.5 51.03125 23.25 
Q 51.03125 16.5 48.125 10.71875 
Q 45.21875 4.9375 40.140625 1.859375 
Q 35.0625 -1.21875 28.609375 -1.21875 
Q 17.625 -1.21875 10.6875 6.859375 
Q 3.765625 14.9375 3.765625 33.5 
Q 3.765625 54.25 11.421875 63.671875 
Q 18.109375 71.875 29.4375 71.875 
Q 37.890625 71.875 43.28125 67.140625 
Q 48.6875 62.40625 49.75 54.046875 
z
M 13.875 23.1875 
Q 13.875 18.65625 15.796875 14.5 
Q 17.71875 10.359375 21.1875 8.171875 
Q 24.65625 6 28.46875 6 
Q 34.03125 6 38.03125 10.484375 
Q 42.046875 14.984375 42.046875 22.703125 
Q 42.046875 30.125 38.078125 34.390625 
Q 34.125 38.671875 28.125 38.671875 
Q 22.171875 38.671875 18.015625 34.390625 
Q 13.875 30.125 13.875 23.1875 
z
" id="ArialMT-54"/>
      </defs>
      <use xlink:href="#ArialMT-54"/>
     </g>
    </g>
   </g>
   <g id="text_8">
    <g clip-path="url(#p457aa99472)">
     <!-- 7 -->
     <g transform="translate(336.66797 133.754985)scale(0.08 -0.08)">
      <defs>
       <path d="M 4.734375 62.203125 
L 4.734375 70.65625 
L 51.078125 70.65625 
L 51.078125 63.8125 
Q 44.234375 56.546875 37.515625 44.484375 
Q 30.8125 32.421875 27.15625 19.671875 
Q 24.515625 10.6875 23.78125 0 
L 14.75 0 
Q 14.890625 8.453125 18.0625 20.40625 
Q 21.234375 32.375 27.171875 43.484375 
Q 33.109375 54.59375 39.796875 62.203125 
z
" id="ArialMT-55"/>
      </defs>
      <use xlink:href="#ArialMT-55"/>
     </g>
    </g>
   </g>
   <g id="text_9">
    <g clip-path="url(#p457aa99472)">
     <!-- 8 -->
     <g transform="translate(339.266172 199.873344)scale(0.08 -0.08)">
      <defs>
       <path d="M 17.671875 38.8125 
Q 12.203125 40.828125 9.5625 44.53125 
Q 6.9375 48.25 6.9375 53.421875 
Q 6.9375 61.234375 12.546875 66.546875 
Q 18.171875 71.875 27.484375 71.875 
Q 36.859375 71.875 42.578125 66.421875 
Q 48.296875 60.984375 48.296875 53.171875 
Q 48.296875 48.1875 45.671875 44.5 
Q 43.0625 40.828125 37.75 38.8125 
Q 44.34375 36.671875 47.78125 31.875 
Q 51.21875 27.09375 51.21875 20.453125 
Q 51.21875 11.28125 44.71875 5.03125 
Q 38.234375 -1.21875 27.640625 -1.21875 
Q 17.046875 -1.21875 10.546875 5.046875 
Q 4.046875 11.328125 4.046875 20.703125 
Q 4.046875 27.6875 7.59375 32.390625 
Q 11.140625 37.109375 17.671875 38.8125 
z
M 15.921875 53.71875 
Q 15.921875 48.640625 19.1875 45.40625 
Q 22.46875 42.1875 27.6875 42.1875 
Q 32.765625 42.1875 36.015625 45.375 
Q 39.265625 48.578125 39.265625 53.21875 
Q 39.265625 58.0625 35.90625 61.359375 
Q 32.5625 64.65625 27.59375 64.65625 
Q 22.5625 64.65625 19.234375 61.421875 
Q 15.921875 58.203125 15.921875 53.71875 
z
M 13.09375 20.65625 
Q 13.09375 16.890625 14.875 13.375 
Q 16.65625 9.859375 20.171875 7.921875 
Q 23.6875 6 27.734375 6 
Q 34.03125 6 38.125 10.046875 
Q 42.234375 14.109375 42.234375 20.359375 
Q 42.234375 26.703125 38.015625 30.859375 
Q 33.796875 35.015625 27.4375 35.015625 
Q 21.234375 35.015625 17.15625 30.90625 
Q 13.09375 26.8125 13.09375 20.65625 
z
" id="ArialMT-56"/>
      </defs>
      <use xlink:href="#ArialMT-56"/>
     </g>
    </g>
   </g>
   <g id="text_10">
    <g clip-path="url(#p457aa99472)">
     <!-- 9 -->
     <g transform="translate(364.630157 152.203965)scale(0.08 -0.08)">
      <defs>
       <path d="M 5.46875 16.546875 
L 13.921875 17.328125 
Q 14.984375 11.375 18.015625 8.6875 
Q 21.046875 6 25.78125 6 
Q 29.828125 6 32.875 7.859375 
Q 35.9375 9.71875 37.890625 12.8125 
Q 39.84375 15.921875 41.15625 21.1875 
Q 42.484375 26.46875 42.484375 31.9375 
Q 42.484375 32.515625 42.4375 33.6875 
Q 39.796875 29.5 35.234375 26.875 
Q 30.671875 24.265625 25.34375 24.265625 
Q 16.453125 24.265625 10.296875 30.703125 
Q 4.15625 37.15625 4.15625 47.703125 
Q 4.15625 58.59375 10.578125 65.234375 
Q 17 71.875 26.65625 71.875 
Q 33.640625 71.875 39.421875 68.109375 
Q 45.21875 64.359375 48.21875 57.390625 
Q 51.21875 50.4375 51.21875 37.25 
Q 51.21875 23.53125 48.234375 15.40625 
Q 45.265625 7.28125 39.375 3.03125 
Q 33.5 -1.21875 25.59375 -1.21875 
Q 17.1875 -1.21875 11.859375 3.4375 
Q 6.546875 8.109375 5.46875 16.546875 
z
M 41.453125 48.140625 
Q 41.453125 55.71875 37.421875 60.15625 
Q 33.40625 64.59375 27.734375 64.59375 
Q 21.875 64.59375 17.53125 59.8125 
Q 13.1875 55.03125 13.1875 47.40625 
Q 13.1875 40.578125 17.3125 36.296875 
Q 21.4375 32.03125 27.484375 32.03125 
Q 33.59375 32.03125 37.515625 36.296875 
Q 41.453125 40.578125 41.453125 48.140625 
z
" id="ArialMT-57"/>
      </defs>
      <use xlink:href="#ArialMT-57"/>
     </g>
    </g>
   </g>
   <g id="text_11">
    <g clip-path="url(#p457aa99472)">
     <!-- 10 -->
     <g transform="translate(313.410271 243.124527)scale(0.08 -0.08)">
      <use xlink:href="#ArialMT-49"/>
      <use x="55.615234" xlink:href="#ArialMT-48"/>
     </g>
    </g>
   </g>
   <g id="text_12">
    <g clip-path="url(#p457aa99472)">
     <!-- 11 -->
     <g transform="translate(54.761789 170.269069)scale(0.08 -0.08)">
      <use xlink:href="#ArialMT-49"/>
      <use x="48.240234" xlink:href="#ArialMT-49"/>
     </g>
    </g>
   </g>
   <g id="text_13">
    <g clip-path="url(#p457aa99472)">
     <!-- 12 -->
     <g transform="translate(354.337184 320.60267)scale(0.08 -0.08)">
      <use xlink:href="#ArialMT-49"/>
      <use x="55.615234" xlink:href="#ArialMT-50"/>
     </g>
    </g>
   </g>
   <g id="text_14">
    <g clip-path="url(#p457aa99472)">
     <!-- 13 -->
     <g transform="translate(371.654133 225.040728)scale(0.08 -0.08)">
      <use xlink:href="#ArialMT-49"/>
      <use x="55.615234" xlink:href="#ArialMT-51"/>
     </g>
    </g>
   </g>
   <g id="text_15">
    <g clip-path="url(#p457aa99472)">
     <!-- 14 -->
     <g transform="translate(358.815416 264.442489)scale(0.08 -0.08)">
      <use xlink:href="#ArialMT-49"/>
      <use x="55.615234" xlink:href="#ArialMT-52"/>
     </g>
    </g>
   </g>
   <g id="text_16">
    <g clip-path="url(#p457aa99472)">
     <!-- 15 -->
     <g transform="translate(350.089993 278.080933)scale(0.08 -0.08)">
      <use xlink:href="#ArialMT-49"/>
      <use x="55.615234" xlink:href="#ArialMT-53"/>
     </g>
    </g>
   </g>
   <g id="text_17">
    <g clip-path="url(#p457aa99472)">
     <!-- 16 -->
     <g transform="translate(299.985148 254.164416)scale(0.08 -0.08)">
      <use xlink:href="#ArialMT-49"/>
      <use x="55.615234" xlink:href="#ArialMT-54"/>
     </g>
    </g>
   </g>
   <g id="text_18">
    <g clip-path="url(#p457aa99472)">
     <!-- 17 -->
     <g transform="translate(392.596364 241.804172)scale(0.08 -0.08)">
      <use xlink:href="#ArialMT-49"/>
      <use x="55.615234" xlink:href="#ArialMT-55"/>
     </g>
    </g>
   </g>
   <g id="text_19">
    <g clip-path="url(#p457aa99472)">
     <!-- 18 -->
     <g transform="translate(402.459692 284.034053)scale(0.08 -0.08)">
      <use xlink:href="#ArialMT-49"/>
      <use x="55.615234" xlink:href="#ArialMT-56"/>
     </g>
    </g>
   </g>
   <g id="text_20">
    <g clip-path="url(#p457aa99472)">
     <!-- 19 -->
     <g transform="translate(332.24661 158.385356)scale(0.08 -0.08)">
      <use xlink:href="#ArialMT-49"/>
      <use x="55.615234" xlink:href="#ArialMT-57"/>
     </g>
    </g>
   </g>
   <g id="text_21">
    <g clip-path="url(#p457aa99472)">
     <!-- 20 -->
     <g transform="translate(377.733669 192.832845)scale(0.08 -0.08)">
      <use xlink:href="#ArialMT-50"/>
      <use x="55.615234" xlink:href="#ArialMT-48"/>
     </g>
    </g>
   </g>
   <g id="text_22">
    <g clip-path="url(#p457aa99472)">
     <!-- 21 -->
     <g transform="translate(69.677712 123.233097)scale(0.08 -0.08)">
      <use xlink:href="#ArialMT-50"/>
      <use x="55.615234" xlink:href="#ArialMT-49"/>
     </g>
    </g>
   </g>
   <g id="text_23">
    <g clip-path="url(#p457aa99472)">
     <!-- 22 -->
     <g transform="translate(46.198612 109.979814)scale(0.08 -0.08)">
      <use xlink:href="#ArialMT-50"/>
      <use x="55.615234" xlink:href="#ArialMT-50"/>
     </g>
    </g>
   </g>
   <g id="text_24">
    <g clip-path="url(#p457aa99472)">
     <!-- 23 -->
     <g transform="translate(368.148401 317.902547)scale(0.08 -0.08)">
      <use xlink:href="#ArialMT-50"/>
      <use x="55.615234" xlink:href="#ArialMT-51"/>
     </g>
    </g>
   </g>
   <g id="text_25">
    <g clip-path="url(#p457aa99472)">
     <!-- 24 -->
     <g transform="translate(389.332951 289.921149)scale(0.08 -0.08)">
      <use xlink:href="#ArialMT-50"/>
      <use x="55.615234" xlink:href="#ArialMT-52"/>
     </g>
    </g>
   </g>
   <g id="text_26">
    <g clip-path="url(#p457aa99472)">
     <!-- 25 -->
     <g transform="translate(77.471644 62.131138)scale(0.08 -0.08)">
      <use xlink:href="#ArialMT-50"/>
      <use x="55.615234" xlink:href="#ArialMT-53"/>
     </g>
    </g>
   </g>
   <g id="text_27">
    <g clip-path="url(#p457aa99472)">
     <!-- 26 -->
     <g transform="translate(46.899933 140.887447)scale(0.08 -0.08)">
      <use xlink:href="#ArialMT-50"/>
      <use x="55.615234" xlink:href="#ArialMT-54"/>
     </g>
    </g>
   </g>
   <g id="text_28">
    <g clip-path="url(#p457aa99472)">
     <!-- 27 -->
     <g transform="translate(72.902586 101.150432)scale(0.08 -0.08)">
      <use xlink:href="#ArialMT-50"/>
      <use x="55.615234" xlink:href="#ArialMT-55"/>
     </g>
    </g>
   </g>
   <g id="text_29">
    <g clip-path="url(#p457aa99472)">
     <!-- 28 -->
     <g transform="translate(374.573105 211.09467)scale(0.08 -0.08)">
      <use xlink:href="#ArialMT-50"/>
      <use x="55.615234" xlink:href="#ArialMT-56"/>
     </g>
    </g>
   </g>
   <g id="text_30">
    <g clip-path="url(#p457aa99472)">
     <!-- 29 -->
     <g transform="translate(393.356585 134.337266)scale(0.08 -0.08)">
      <use xlink:href="#ArialMT-50"/>
      <use x="55.615234" xlink:href="#ArialMT-57"/>
     </g>
    </g>
   </g>
   <g id="text_31">
    <g clip-path="url(#p457aa99472)">
     <!-- 30 -->
     <g transform="translate(382.760788 260.166142)scale(0.08 -0.08)">
      <use xlink:href="#ArialMT-51"/>
      <use x="55.615234" xlink:href="#ArialMT-48"/>
     </g>
    </g>
   </g>
   <g id="text_32">
    <g clip-path="url(#p457aa99472)">
     <!-- 31 -->
     <g transform="translate(38.948316 140.736699)scale(0.08 -0.08)">
      <use xlink:href="#ArialMT-51"/>
      <use x="55.615234" xlink:href="#ArialMT-49"/>
     </g>
    </g>
   </g>
   <g id="text_33">
    <g clip-path="url(#p457aa99472)">
     <!-- 32 -->
     <g transform="translate(23.042159 136.216078)scale(0.08 -0.08)">
      <use xlink:href="#ArialMT-51"/>
      <use x="55.615234" xlink:href="#ArialMT-50"/>
     </g>
    </g>
   </g>
   <g id="text_34">
    <g clip-path="url(#p457aa99472)">
     <!-- 33 -->
     <g transform="translate(54.5878 37.067199)scale(0.08 -0.08)">
      <use xlink:href="#ArialMT-51"/>
      <use x="55.615234" xlink:href="#ArialMT-51"/>
     </g>
    </g>
   </g>
   <g id="text_35">
    <g clip-path="url(#p457aa99472)">
     <!-- 34 -->
     <g transform="translate(408.320114 170.250833)scale(0.08 -0.08)">
      <use xlink:href="#ArialMT-51"/>
      <use x="55.615234" xlink:href="#ArialMT-52"/>
     </g>
    </g>
   </g>
   <g id="text_36">
    <g clip-path="url(#p457aa99472)">
     <!-- 35 -->
     <g transform="translate(26.204547 113.072987)scale(0.08 -0.08)">
      <use xlink:href="#ArialMT-51"/>
      <use x="55.615234" xlink:href="#ArialMT-53"/>
     </g>
    </g>
   </g>
   <g id="text_37">
    <g clip-path="url(#p457aa99472)">
     <!-- 36 -->
     <g transform="translate(347.221929 205.635516)scale(0.08 -0.08)">
      <use xlink:href="#ArialMT-51"/>
      <use x="55.615234" xlink:href="#ArialMT-54"/>
     </g>
    </g>
   </g>
   <g id="text_38">
    <g clip-path="url(#p457aa99472)">
     <!-- 37 -->
     <g transform="translate(362.94142 123.913186)scale(0.08 -0.08)">
      <use xlink:href="#ArialMT-51"/>
      <use x="55.615234" xlink:href="#ArialMT-55"/>
     </g>
    </g>
   </g>
   <g id="text_39">
    <g clip-path="url(#p457aa99472)">
     <!-- 38 -->
     <g transform="translate(70.171098 24.09358)scale(0.08 -0.08)">
      <use xlink:href="#ArialMT-51"/>
      <use x="55.615234" xlink:href="#ArialMT-56"/>
     </g>
    </g>
   </g>
   <g id="text_40">
    <g clip-path="url(#p457aa99472)">
     <!-- 39 -->
     <g transform="translate(364.273612 197.413614)scale(0.08 -0.08)">
      <use xlink:href="#ArialMT-51"/>
      <use x="55.615234" xlink:href="#ArialMT-57"/>
     </g>
    </g>
   </g>
   <g id="text_41">
    <g clip-path="url(#p457aa99472)">
     <!-- 40 -->
     <g transform="translate(75.319926 163.06316)scale(0.08 -0.08)">
      <use xlink:href="#ArialMT-52"/>
      <use x="55.615234" xlink:href="#ArialMT-48"/>
     </g>
    </g>
   </g>
   <g id="text_42">
    <g clip-path="url(#p457aa99472)">
     <!-- 41 -->
     <g transform="translate(386.022368 145.941771)scale(0.08 -0.08)">
      <use xlink:href="#ArialMT-52"/>
      <use x="55.615234" xlink:href="#ArialMT-49"/>
     </g>
    </g>
   </g>
   <g id="text_43">
    <g clip-path="url(#p457aa99472)">
     <!-- 42 -->
     <g transform="translate(365.559145 229.752475)scale(0.08 -0.08)">
      <use xlink:href="#ArialMT-52"/>
      <use x="55.615234" xlink:href="#ArialMT-50"/>
     </g>
    </g>
   </g>
   <g id="text_44">
    <g clip-path="url(#p457aa99472)">
     <!-- 43 -->
     <g transform="translate(68.030559 145.705526)scale(0.08 -0.08)">
      <use xlink:href="#ArialMT-52"/>
      <use x="55.615234" xlink:href="#ArialMT-51"/>
     </g>
    </g>
   </g>
   <g id="text_45">
    <g clip-path="url(#p457aa99472)">
     <!-- 44 -->
     <g transform="translate(396.429875 218.469194)scale(0.08 -0.08)">
      <use xlink:href="#ArialMT-52"/>
      <use x="55.615234" xlink:href="#ArialMT-52"/>
     </g>
    </g>
   </g>
   <g id="text_46">
    <g clip-path="url(#p457aa99472)">
     <!-- 45 -->
     <g transform="translate(352.91988 237.755832)scale(0.08 -0.08)">
      <use xlink:href="#ArialMT-52"/>
      <use x="55.615234" xlink:href="#ArialMT-53"/>
     </g>
    </g>
   </g>
   <g id="text_47">
    <g clip-path="url(#p457aa99472)">
     <!-- 46 -->
     <g transform="translate(409.908595 235.027662)scale(0.08 -0.08)">
      <use xlink:href="#ArialMT-52"/>
      <use x="55.615234" xlink:href="#ArialMT-54"/>
     </g>
    </g>
   </g>
   <g id="text_48">
    <g clip-path="url(#p457aa99472)">
     <!-- 47 -->
     <g transform="translate(56.609718 114.365566)scale(0.08 -0.08)">
      <use xlink:href="#ArialMT-52"/>
      <use x="55.615234" xlink:href="#ArialMT-55"/>
     </g>
    </g>
   </g>
   <g id="text_49">
    <g clip-path="url(#p457aa99472)">
     <!-- 48 -->
     <g transform="translate(421.032817 272.185365)scale(0.08 -0.08)">
      <use xlink:href="#ArialMT-52"/>
      <use x="55.615234" xlink:href="#ArialMT-56"/>
     </g>
    </g>
   </g>
   <g id="text_50">
    <g clip-path="url(#p457aa99472)">
     <!-- 49 -->
     <g transform="translate(428.860341 238.518739)scale(0.08 -0.08)">
      <use xlink:href="#ArialMT-52"/>
      <use x="55.615234" xlink:href="#ArialMT-57"/>
     </g>
    </g>
   </g>
   <g id="text_51">
    <g clip-path="url(#p457aa99472)">
     <!-- 50 -->
     <g transform="translate(59.773193 69.860454)scale(0.08 -0.08)">
      <use xlink:href="#ArialMT-53"/>
      <use x="55.615234" xlink:href="#ArialMT-48"/>
     </g>
    </g>
   </g>
   <g id="text_52">
    <g clip-path="url(#p457aa99472)">
     <!-- 51 -->
     <g transform="translate(324.989898 230.850483)scale(0.08 -0.08)">
      <use xlink:href="#ArialMT-53"/>
      <use x="55.615234" xlink:href="#ArialMT-49"/>
     </g>
    </g>
   </g>
   <g id="text_53">
    <g clip-path="url(#p457aa99472)">
     <!-- 52 -->
     <g transform="translate(322.926306 206.60554)scale(0.08 -0.08)">
      <use xlink:href="#ArialMT-53"/>
      <use x="55.615234" xlink:href="#ArialMT-50"/>
     </g>
    </g>
   </g>
   <g id="text_54">
    <g clip-path="url(#p457aa99472)">
     <!-- 53 -->
     <g transform="translate(45.539058 92.523925)scale(0.08 -0.08)">
      <use xlink:href="#ArialMT-53"/>
      <use x="55.615234" xlink:href="#ArialMT-51"/>
     </g>
    </g>
   </g>
   <g id="text_55">
    <g clip-path="url(#p457aa99472)">
     <!-- 54 -->
     <g transform="translate(383.411669 216.11556)scale(0.08 -0.08)">
      <use xlink:href="#ArialMT-53"/>
      <use x="55.615234" xlink:href="#ArialMT-52"/>
     </g>
    </g>
   </g>
   <g id="text_56">
    <g clip-path="url(#p457aa99472)">
     <!-- 55 -->
     <g transform="translate(69.0987 86.507376)scale(0.08 -0.08)">
      <use xlink:href="#ArialMT-53"/>
      <use x="55.615234" xlink:href="#ArialMT-53"/>
     </g>
    </g>
   </g>
   <g id="text_57">
    <g clip-path="url(#p457aa99472)">
     <!-- 56 -->
     <g transform="translate(357.588511 169.955232)scale(0.08 -0.08)">
      <use xlink:href="#ArialMT-53"/>
      <use x="55.615234" xlink:href="#ArialMT-54"/>
     </g>
    </g>
   </g>
  </g>
 </g>
 <defs>
  <clipPath id="p457aa99472">
   <rect height="326.16" width="446.4" x="7.2" y="7.2"/>
  </clipPath>
 </defs>
</svg>
