<?xml version="1.0" encoding="utf-8" standalone="no"?>
<!DOCTYPE svg PUBLIC "-//W3C//DTD SVG 1.1//EN"
  "http://www.w3.org/Graphics/SVG/1.1/DTD/svg11.dtd">
<!-- Created with matplotlib (https://matplotlib.org/) -->
<svg height="275.86625pt" version="1.1" viewBox="0 0 386.028125 275.86625" width="386.028125pt" xmlns="http://www.w3.org/2000/svg" xmlns:xlink="http://www.w3.org/1999/xlink">
 <metadata>
  <rdf:RDF xmlns:cc="http://creativecommons.org/ns#" xmlns:dc="http://purl.org/dc/elements/1.1/" xmlns:rdf="http://www.w3.org/1999/02/22-rdf-syntax-ns#">
   <cc:Work>
    <dc:type rdf:resource="http://purl.org/dc/dcmitype/StillImage"/>
    <dc:date>2022-07-27T11:36:43.032420</dc:date>
    <dc:format>image/svg+xml</dc:format>
    <dc:creator>
     <cc:Agent>
      <dc:title>Matplotlib v3.3.2, https://matplotlib.org/</dc:title>
     </cc:Agent>
    </dc:creator>
   </cc:Work>
  </rdf:RDF>
 </metadata>
 <defs>
  <style type="text/css">*{stroke-linecap:butt;stroke-linejoin:round;}</style>
 </defs>
 <g id="figure_1">
  <g id="patch_1">
   <path d="M 0 275.86625 
L 386.028125 275.86625 
L 386.028125 0 
L 0 0 
z
" style="fill:#ffffff;"/>
  </g>
  <g id="axes_1">
   <g id="patch_2">
    <path d="M 44.028125 239.375625 
L 378.828125 239.375625 
L 378.828125 21.935625 
L 44.028125 21.935625 
z
" style="fill:#ffffff;"/>
   </g>
   <g id="matplotlib.axis_1">
    <g id="xtick_1">
     <g id="line2d_1">
      <path clip-path="url(#p6dec34f2d2)" d="M 59.246307 239.375625 
L 59.246307 21.935625 
" style="fill:none;stroke:#cccccc;stroke-linecap:round;stroke-width:0.8;"/>
     </g>
     <g id="text_1">
      <!-- 0 -->
      <g style="fill:#262626;" transform="translate(56.465838 253.533437)scale(0.1 -0.1)">
       <defs>
        <path d="M 4.15625 35.296875 
Q 4.15625 48 6.765625 55.734375 
Q 9.375 63.484375 14.515625 67.671875 
Q 19.671875 71.875 27.484375 71.875 
Q 33.25 71.875 37.59375 69.546875 
Q 41.9375 67.234375 44.765625 62.859375 
Q 47.609375 58.5 49.21875 52.21875 
Q 50.828125 45.953125 50.828125 35.296875 
Q 50.828125 22.703125 48.234375 14.96875 
Q 45.65625 7.234375 40.5 3 
Q 35.359375 -1.21875 27.484375 -1.21875 
Q 17.140625 -1.21875 11.234375 6.203125 
Q 4.15625 15.140625 4.15625 35.296875 
z
M 13.1875 35.296875 
Q 13.1875 17.671875 17.3125 11.828125 
Q 21.4375 6 27.484375 6 
Q 33.546875 6 37.671875 11.859375 
Q 41.796875 17.71875 41.796875 35.296875 
Q 41.796875 52.984375 37.671875 58.78125 
Q 33.546875 64.59375 27.390625 64.59375 
Q 21.34375 64.59375 17.71875 59.46875 
Q 13.1875 52.9375 13.1875 35.296875 
z
" id="ArialMT-48"/>
       </defs>
       <use xlink:href="#ArialMT-48"/>
      </g>
     </g>
    </g>
    <g id="xtick_2">
     <g id="line2d_2">
      <path clip-path="url(#p6dec34f2d2)" d="M 97.482945 239.375625 
L 97.482945 21.935625 
" style="fill:none;stroke:#cccccc;stroke-linecap:round;stroke-width:0.8;"/>
     </g>
     <g id="text_2">
      <!-- 25 -->
      <g style="fill:#262626;" transform="translate(91.922007 253.533437)scale(0.1 -0.1)">
       <defs>
        <path d="M 50.34375 8.453125 
L 50.34375 0 
L 3.03125 0 
Q 2.9375 3.171875 4.046875 6.109375 
Q 5.859375 10.9375 9.828125 15.625 
Q 13.8125 20.3125 21.34375 26.46875 
Q 33.015625 36.03125 37.109375 41.625 
Q 41.21875 47.21875 41.21875 52.203125 
Q 41.21875 57.421875 37.46875 61 
Q 33.734375 64.59375 27.734375 64.59375 
Q 21.390625 64.59375 17.578125 60.78125 
Q 13.765625 56.984375 13.71875 50.25 
L 4.6875 51.171875 
Q 5.609375 61.28125 11.65625 66.578125 
Q 17.71875 71.875 27.9375 71.875 
Q 38.234375 71.875 44.234375 66.15625 
Q 50.25 60.453125 50.25 52 
Q 50.25 47.703125 48.484375 43.546875 
Q 46.734375 39.40625 42.65625 34.8125 
Q 38.578125 30.21875 29.109375 22.21875 
Q 21.1875 15.578125 18.9375 13.203125 
Q 16.703125 10.84375 15.234375 8.453125 
z
" id="ArialMT-50"/>
        <path d="M 4.15625 18.75 
L 13.375 19.53125 
Q 14.40625 12.796875 18.140625 9.390625 
Q 21.875 6 27.15625 6 
Q 33.5 6 37.890625 10.78125 
Q 42.28125 15.578125 42.28125 23.484375 
Q 42.28125 31 38.0625 35.34375 
Q 33.84375 39.703125 27 39.703125 
Q 22.75 39.703125 19.328125 37.765625 
Q 15.921875 35.84375 13.96875 32.765625 
L 5.71875 33.84375 
L 12.640625 70.609375 
L 48.25 70.609375 
L 48.25 62.203125 
L 19.671875 62.203125 
L 15.828125 42.96875 
Q 22.265625 47.46875 29.34375 47.46875 
Q 38.71875 47.46875 45.15625 40.96875 
Q 51.609375 34.46875 51.609375 24.265625 
Q 51.609375 14.546875 45.953125 7.46875 
Q 39.0625 -1.21875 27.15625 -1.21875 
Q 17.390625 -1.21875 11.203125 4.25 
Q 5.03125 9.71875 4.15625 18.75 
z
" id="ArialMT-53"/>
       </defs>
       <use xlink:href="#ArialMT-50"/>
       <use x="55.615234" xlink:href="#ArialMT-53"/>
      </g>
     </g>
    </g>
    <g id="xtick_3">
     <g id="line2d_3">
      <path clip-path="url(#p6dec34f2d2)" d="M 135.719582 239.375625 
L 135.719582 21.935625 
" style="fill:none;stroke:#cccccc;stroke-linecap:round;stroke-width:0.8;"/>
     </g>
     <g id="text_3">
      <!-- 50 -->
      <g style="fill:#262626;" transform="translate(130.158645 253.533437)scale(0.1 -0.1)">
       <use xlink:href="#ArialMT-53"/>
       <use x="55.615234" xlink:href="#ArialMT-48"/>
      </g>
     </g>
    </g>
    <g id="xtick_4">
     <g id="line2d_4">
      <path clip-path="url(#p6dec34f2d2)" d="M 173.95622 239.375625 
L 173.95622 21.935625 
" style="fill:none;stroke:#cccccc;stroke-linecap:round;stroke-width:0.8;"/>
     </g>
     <g id="text_4">
      <!-- 75 -->
      <g style="fill:#262626;" transform="translate(168.395283 253.533437)scale(0.1 -0.1)">
       <defs>
        <path d="M 4.734375 62.203125 
L 4.734375 70.65625 
L 51.078125 70.65625 
L 51.078125 63.8125 
Q 44.234375 56.546875 37.515625 44.484375 
Q 30.8125 32.421875 27.15625 19.671875 
Q 24.515625 10.6875 23.78125 0 
L 14.75 0 
Q 14.890625 8.453125 18.0625 20.40625 
Q 21.234375 32.375 27.171875 43.484375 
Q 33.109375 54.59375 39.796875 62.203125 
z
" id="ArialMT-55"/>
       </defs>
       <use xlink:href="#ArialMT-55"/>
       <use x="55.615234" xlink:href="#ArialMT-53"/>
      </g>
     </g>
    </g>
    <g id="xtick_5">
     <g id="line2d_5">
      <path clip-path="url(#p6dec34f2d2)" d="M 212.192858 239.375625 
L 212.192858 21.935625 
" style="fill:none;stroke:#cccccc;stroke-linecap:round;stroke-width:0.8;"/>
     </g>
     <g id="text_5">
      <!-- 100 -->
      <g style="fill:#262626;" transform="translate(203.851452 253.533437)scale(0.1 -0.1)">
       <defs>
        <path d="M 37.25 0 
L 28.46875 0 
L 28.46875 56 
Q 25.296875 52.984375 20.140625 49.953125 
Q 14.984375 46.921875 10.890625 45.40625 
L 10.890625 53.90625 
Q 18.265625 57.375 23.78125 62.296875 
Q 29.296875 67.234375 31.59375 71.875 
L 37.25 71.875 
z
" id="ArialMT-49"/>
       </defs>
       <use xlink:href="#ArialMT-49"/>
       <use x="55.615234" xlink:href="#ArialMT-48"/>
       <use x="111.230469" xlink:href="#ArialMT-48"/>
      </g>
     </g>
    </g>
    <g id="xtick_6">
     <g id="line2d_6">
      <path clip-path="url(#p6dec34f2d2)" d="M 250.429495 239.375625 
L 250.429495 21.935625 
" style="fill:none;stroke:#cccccc;stroke-linecap:round;stroke-width:0.8;"/>
     </g>
     <g id="text_6">
      <!-- 125 -->
      <g style="fill:#262626;" transform="translate(242.088089 253.533437)scale(0.1 -0.1)">
       <use xlink:href="#ArialMT-49"/>
       <use x="55.615234" xlink:href="#ArialMT-50"/>
       <use x="111.230469" xlink:href="#ArialMT-53"/>
      </g>
     </g>
    </g>
    <g id="xtick_7">
     <g id="line2d_7">
      <path clip-path="url(#p6dec34f2d2)" d="M 288.666133 239.375625 
L 288.666133 21.935625 
" style="fill:none;stroke:#cccccc;stroke-linecap:round;stroke-width:0.8;"/>
     </g>
     <g id="text_7">
      <!-- 150 -->
      <g style="fill:#262626;" transform="translate(280.324727 253.533437)scale(0.1 -0.1)">
       <use xlink:href="#ArialMT-49"/>
       <use x="55.615234" xlink:href="#ArialMT-53"/>
       <use x="111.230469" xlink:href="#ArialMT-48"/>
      </g>
     </g>
    </g>
    <g id="xtick_8">
     <g id="line2d_8">
      <path clip-path="url(#p6dec34f2d2)" d="M 326.902771 239.375625 
L 326.902771 21.935625 
" style="fill:none;stroke:#cccccc;stroke-linecap:round;stroke-width:0.8;"/>
     </g>
     <g id="text_8">
      <!-- 175 -->
      <g style="fill:#262626;" transform="translate(318.561365 253.533437)scale(0.1 -0.1)">
       <use xlink:href="#ArialMT-49"/>
       <use x="55.615234" xlink:href="#ArialMT-55"/>
       <use x="111.230469" xlink:href="#ArialMT-53"/>
      </g>
     </g>
    </g>
    <g id="xtick_9">
     <g id="line2d_9">
      <path clip-path="url(#p6dec34f2d2)" d="M 365.139409 239.375625 
L 365.139409 21.935625 
" style="fill:none;stroke:#cccccc;stroke-linecap:round;stroke-width:0.8;"/>
     </g>
     <g id="text_9">
      <!-- 200 -->
      <g style="fill:#262626;" transform="translate(356.798002 253.533437)scale(0.1 -0.1)">
       <use xlink:href="#ArialMT-50"/>
       <use x="55.615234" xlink:href="#ArialMT-48"/>
       <use x="111.230469" xlink:href="#ArialMT-48"/>
      </g>
     </g>
    </g>
    <g id="text_10">
     <!-- epoch -->
     <g style="fill:#262626;" transform="translate(197.80625 266.67875)scale(0.1 -0.1)">
      <defs>
       <path d="M 42.09375 16.703125 
L 51.171875 15.578125 
Q 49.03125 7.625 43.21875 3.21875 
Q 37.40625 -1.171875 28.375 -1.171875 
Q 17 -1.171875 10.328125 5.828125 
Q 3.65625 12.84375 3.65625 25.484375 
Q 3.65625 38.578125 10.390625 45.796875 
Q 17.140625 53.03125 27.875 53.03125 
Q 38.28125 53.03125 44.875 45.953125 
Q 51.46875 38.875 51.46875 26.03125 
Q 51.46875 25.25 51.421875 23.6875 
L 12.75 23.6875 
Q 13.234375 15.140625 17.578125 10.59375 
Q 21.921875 6.0625 28.421875 6.0625 
Q 33.25 6.0625 36.671875 8.59375 
Q 40.09375 11.140625 42.09375 16.703125 
z
M 13.234375 30.90625 
L 42.1875 30.90625 
Q 41.609375 37.453125 38.875 40.71875 
Q 34.671875 45.796875 27.984375 45.796875 
Q 21.921875 45.796875 17.796875 41.75 
Q 13.671875 37.703125 13.234375 30.90625 
z
" id="ArialMT-101"/>
       <path d="M 6.59375 -19.875 
L 6.59375 51.859375 
L 14.59375 51.859375 
L 14.59375 45.125 
Q 17.4375 49.078125 21 51.046875 
Q 24.5625 53.03125 29.640625 53.03125 
Q 36.28125 53.03125 41.359375 49.609375 
Q 46.4375 46.1875 49.015625 39.953125 
Q 51.609375 33.734375 51.609375 26.3125 
Q 51.609375 18.359375 48.75 11.984375 
Q 45.90625 5.609375 40.453125 2.21875 
Q 35.015625 -1.171875 29 -1.171875 
Q 24.609375 -1.171875 21.109375 0.6875 
Q 17.625 2.546875 15.375 5.375 
L 15.375 -19.875 
z
M 14.546875 25.640625 
Q 14.546875 15.625 18.59375 10.84375 
Q 22.65625 6.0625 28.421875 6.0625 
Q 34.28125 6.0625 38.453125 11.015625 
Q 42.625 15.96875 42.625 26.375 
Q 42.625 36.28125 38.546875 41.203125 
Q 34.46875 46.140625 28.8125 46.140625 
Q 23.1875 46.140625 18.859375 40.890625 
Q 14.546875 35.640625 14.546875 25.640625 
z
" id="ArialMT-112"/>
       <path d="M 3.328125 25.921875 
Q 3.328125 40.328125 11.328125 47.265625 
Q 18.015625 53.03125 27.640625 53.03125 
Q 38.328125 53.03125 45.109375 46.015625 
Q 51.90625 39.015625 51.90625 26.65625 
Q 51.90625 16.65625 48.90625 10.90625 
Q 45.90625 5.171875 40.15625 2 
Q 34.421875 -1.171875 27.640625 -1.171875 
Q 16.75 -1.171875 10.03125 5.8125 
Q 3.328125 12.796875 3.328125 25.921875 
z
M 12.359375 25.921875 
Q 12.359375 15.96875 16.703125 11.015625 
Q 21.046875 6.0625 27.640625 6.0625 
Q 34.1875 6.0625 38.53125 11.03125 
Q 42.875 16.015625 42.875 26.21875 
Q 42.875 35.84375 38.5 40.796875 
Q 34.125 45.75 27.640625 45.75 
Q 21.046875 45.75 16.703125 40.8125 
Q 12.359375 35.890625 12.359375 25.921875 
z
" id="ArialMT-111"/>
       <path d="M 40.4375 19 
L 49.078125 17.875 
Q 47.65625 8.9375 41.8125 3.875 
Q 35.984375 -1.171875 27.484375 -1.171875 
Q 16.84375 -1.171875 10.375 5.78125 
Q 3.90625 12.75 3.90625 25.734375 
Q 3.90625 34.125 6.6875 40.421875 
Q 9.46875 46.734375 15.15625 49.875 
Q 20.84375 53.03125 27.546875 53.03125 
Q 35.984375 53.03125 41.359375 48.75 
Q 46.734375 44.484375 48.25 36.625 
L 39.703125 35.296875 
Q 38.484375 40.53125 35.375 43.15625 
Q 32.28125 45.796875 27.875 45.796875 
Q 21.234375 45.796875 17.078125 41.03125 
Q 12.9375 36.28125 12.9375 25.984375 
Q 12.9375 15.53125 16.9375 10.796875 
Q 20.953125 6.0625 27.390625 6.0625 
Q 32.5625 6.0625 36.03125 9.234375 
Q 39.5 12.40625 40.4375 19 
z
" id="ArialMT-99"/>
       <path d="M 6.59375 0 
L 6.59375 71.578125 
L 15.375 71.578125 
L 15.375 45.90625 
Q 21.53125 53.03125 30.90625 53.03125 
Q 36.671875 53.03125 40.921875 50.75 
Q 45.171875 48.484375 47 44.484375 
Q 48.828125 40.484375 48.828125 32.859375 
L 48.828125 0 
L 40.046875 0 
L 40.046875 32.859375 
Q 40.046875 39.453125 37.1875 42.453125 
Q 34.328125 45.453125 29.109375 45.453125 
Q 25.203125 45.453125 21.75 43.421875 
Q 18.3125 41.40625 16.84375 37.9375 
Q 15.375 34.46875 15.375 28.375 
L 15.375 0 
z
" id="ArialMT-104"/>
      </defs>
      <use xlink:href="#ArialMT-101"/>
      <use x="55.615234" xlink:href="#ArialMT-112"/>
      <use x="111.230469" xlink:href="#ArialMT-111"/>
      <use x="166.845703" xlink:href="#ArialMT-99"/>
      <use x="216.845703" xlink:href="#ArialMT-104"/>
     </g>
    </g>
   </g>
   <g id="matplotlib.axis_2">
    <g id="ytick_1">
     <g id="line2d_10">
      <path clip-path="url(#p6dec34f2d2)" d="M 44.028125 233.768273 
L 378.828125 233.768273 
" style="fill:none;stroke:#cccccc;stroke-linecap:round;stroke-width:0.8;"/>
     </g>
     <g id="text_11">
      <!-- 100 -->
      <g style="fill:#262626;" transform="translate(20.345313 237.347179)scale(0.1 -0.1)">
       <use xlink:href="#ArialMT-49"/>
       <use x="55.615234" xlink:href="#ArialMT-48"/>
       <use x="111.230469" xlink:href="#ArialMT-48"/>
      </g>
     </g>
    </g>
    <g id="ytick_2">
     <g id="line2d_11">
      <path clip-path="url(#p6dec34f2d2)" d="M 44.028125 207.486377 
L 378.828125 207.486377 
" style="fill:none;stroke:#cccccc;stroke-linecap:round;stroke-width:0.8;"/>
     </g>
     <g id="text_12">
      <!-- 150 -->
      <g style="fill:#262626;" transform="translate(20.345313 211.065283)scale(0.1 -0.1)">
       <use xlink:href="#ArialMT-49"/>
       <use x="55.615234" xlink:href="#ArialMT-53"/>
       <use x="111.230469" xlink:href="#ArialMT-48"/>
      </g>
     </g>
    </g>
    <g id="ytick_3">
     <g id="line2d_12">
      <path clip-path="url(#p6dec34f2d2)" d="M 44.028125 181.204481 
L 378.828125 181.204481 
" style="fill:none;stroke:#cccccc;stroke-linecap:round;stroke-width:0.8;"/>
     </g>
     <g id="text_13">
      <!-- 200 -->
      <g style="fill:#262626;" transform="translate(20.345313 184.783387)scale(0.1 -0.1)">
       <use xlink:href="#ArialMT-50"/>
       <use x="55.615234" xlink:href="#ArialMT-48"/>
       <use x="111.230469" xlink:href="#ArialMT-48"/>
      </g>
     </g>
    </g>
    <g id="ytick_4">
     <g id="line2d_13">
      <path clip-path="url(#p6dec34f2d2)" d="M 44.028125 154.922585 
L 378.828125 154.922585 
" style="fill:none;stroke:#cccccc;stroke-linecap:round;stroke-width:0.8;"/>
     </g>
     <g id="text_14">
      <!-- 250 -->
      <g style="fill:#262626;" transform="translate(20.345313 158.501491)scale(0.1 -0.1)">
       <use xlink:href="#ArialMT-50"/>
       <use x="55.615234" xlink:href="#ArialMT-53"/>
       <use x="111.230469" xlink:href="#ArialMT-48"/>
      </g>
     </g>
    </g>
    <g id="ytick_5">
     <g id="line2d_14">
      <path clip-path="url(#p6dec34f2d2)" d="M 44.028125 128.640689 
L 378.828125 128.640689 
" style="fill:none;stroke:#cccccc;stroke-linecap:round;stroke-width:0.8;"/>
     </g>
     <g id="text_15">
      <!-- 300 -->
      <g style="fill:#262626;" transform="translate(20.345313 132.219595)scale(0.1 -0.1)">
       <defs>
        <path d="M 4.203125 18.890625 
L 12.984375 20.0625 
Q 14.5 12.59375 18.140625 9.296875 
Q 21.78125 6 27 6 
Q 33.203125 6 37.46875 10.296875 
Q 41.75 14.59375 41.75 20.953125 
Q 41.75 27 37.796875 30.921875 
Q 33.84375 34.859375 27.734375 34.859375 
Q 25.25 34.859375 21.53125 33.890625 
L 22.515625 41.609375 
Q 23.390625 41.5 23.921875 41.5 
Q 29.546875 41.5 34.03125 44.421875 
Q 38.53125 47.359375 38.53125 53.46875 
Q 38.53125 58.296875 35.25 61.46875 
Q 31.984375 64.65625 26.8125 64.65625 
Q 21.6875 64.65625 18.265625 61.421875 
Q 14.84375 58.203125 13.875 51.765625 
L 5.078125 53.328125 
Q 6.6875 62.15625 12.390625 67.015625 
Q 18.109375 71.875 26.609375 71.875 
Q 32.46875 71.875 37.390625 69.359375 
Q 42.328125 66.84375 44.9375 62.5 
Q 47.5625 58.15625 47.5625 53.265625 
Q 47.5625 48.640625 45.0625 44.828125 
Q 42.578125 41.015625 37.703125 38.765625 
Q 44.046875 37.3125 47.5625 32.6875 
Q 51.078125 28.078125 51.078125 21.140625 
Q 51.078125 11.765625 44.234375 5.25 
Q 37.40625 -1.265625 26.953125 -1.265625 
Q 17.53125 -1.265625 11.296875 4.34375 
Q 5.078125 9.96875 4.203125 18.890625 
z
" id="ArialMT-51"/>
       </defs>
       <use xlink:href="#ArialMT-51"/>
       <use x="55.615234" xlink:href="#ArialMT-48"/>
       <use x="111.230469" xlink:href="#ArialMT-48"/>
      </g>
     </g>
    </g>
    <g id="ytick_6">
     <g id="line2d_15">
      <path clip-path="url(#p6dec34f2d2)" d="M 44.028125 102.358793 
L 378.828125 102.358793 
" style="fill:none;stroke:#cccccc;stroke-linecap:round;stroke-width:0.8;"/>
     </g>
     <g id="text_16">
      <!-- 350 -->
      <g style="fill:#262626;" transform="translate(20.345313 105.937699)scale(0.1 -0.1)">
       <use xlink:href="#ArialMT-51"/>
       <use x="55.615234" xlink:href="#ArialMT-53"/>
       <use x="111.230469" xlink:href="#ArialMT-48"/>
      </g>
     </g>
    </g>
    <g id="ytick_7">
     <g id="line2d_16">
      <path clip-path="url(#p6dec34f2d2)" d="M 44.028125 76.076897 
L 378.828125 76.076897 
" style="fill:none;stroke:#cccccc;stroke-linecap:round;stroke-width:0.8;"/>
     </g>
     <g id="text_17">
      <!-- 400 -->
      <g style="fill:#262626;" transform="translate(20.345313 79.655804)scale(0.1 -0.1)">
       <defs>
        <path d="M 32.328125 0 
L 32.328125 17.140625 
L 1.265625 17.140625 
L 1.265625 25.203125 
L 33.9375 71.578125 
L 41.109375 71.578125 
L 41.109375 25.203125 
L 50.78125 25.203125 
L 50.78125 17.140625 
L 41.109375 17.140625 
L 41.109375 0 
z
M 32.328125 25.203125 
L 32.328125 57.46875 
L 9.90625 25.203125 
z
" id="ArialMT-52"/>
       </defs>
       <use xlink:href="#ArialMT-52"/>
       <use x="55.615234" xlink:href="#ArialMT-48"/>
       <use x="111.230469" xlink:href="#ArialMT-48"/>
      </g>
     </g>
    </g>
    <g id="ytick_8">
     <g id="line2d_17">
      <path clip-path="url(#p6dec34f2d2)" d="M 44.028125 49.795001 
L 378.828125 49.795001 
" style="fill:none;stroke:#cccccc;stroke-linecap:round;stroke-width:0.8;"/>
     </g>
     <g id="text_18">
      <!-- 450 -->
      <g style="fill:#262626;" transform="translate(20.345313 53.373908)scale(0.1 -0.1)">
       <use xlink:href="#ArialMT-52"/>
       <use x="55.615234" xlink:href="#ArialMT-53"/>
       <use x="111.230469" xlink:href="#ArialMT-48"/>
      </g>
     </g>
    </g>
    <g id="ytick_9">
     <g id="line2d_18">
      <path clip-path="url(#p6dec34f2d2)" d="M 44.028125 23.513105 
L 378.828125 23.513105 
" style="fill:none;stroke:#cccccc;stroke-linecap:round;stroke-width:0.8;"/>
     </g>
     <g id="text_19">
      <!-- 500 -->
      <g style="fill:#262626;" transform="translate(20.345313 27.092012)scale(0.1 -0.1)">
       <use xlink:href="#ArialMT-53"/>
       <use x="55.615234" xlink:href="#ArialMT-48"/>
       <use x="111.230469" xlink:href="#ArialMT-48"/>
      </g>
     </g>
    </g>
    <g id="text_20">
     <!-- value -->
     <g style="fill:#262626;" transform="translate(14.357813 142.607969)rotate(-90)scale(0.1 -0.1)">
      <defs>
       <path d="M 21 0 
L 1.265625 51.859375 
L 10.546875 51.859375 
L 21.6875 20.796875 
Q 23.484375 15.765625 25 10.359375 
Q 26.171875 14.453125 28.265625 20.21875 
L 39.796875 51.859375 
L 48.828125 51.859375 
L 29.203125 0 
z
" id="ArialMT-118"/>
       <path d="M 40.4375 6.390625 
Q 35.546875 2.25 31.03125 0.53125 
Q 26.515625 -1.171875 21.34375 -1.171875 
Q 12.796875 -1.171875 8.203125 3 
Q 3.609375 7.171875 3.609375 13.671875 
Q 3.609375 17.484375 5.34375 20.625 
Q 7.078125 23.78125 9.890625 25.6875 
Q 12.703125 27.59375 16.21875 28.5625 
Q 18.796875 29.25 24.03125 29.890625 
Q 34.671875 31.15625 39.703125 32.90625 
Q 39.75 34.71875 39.75 35.203125 
Q 39.75 40.578125 37.25 42.78125 
Q 33.890625 45.75 27.25 45.75 
Q 21.046875 45.75 18.09375 43.578125 
Q 15.140625 41.40625 13.71875 35.890625 
L 5.125 37.0625 
Q 6.296875 42.578125 8.984375 45.96875 
Q 11.671875 49.359375 16.75 51.1875 
Q 21.828125 53.03125 28.515625 53.03125 
Q 35.15625 53.03125 39.296875 51.46875 
Q 43.453125 49.90625 45.40625 47.53125 
Q 47.359375 45.171875 48.140625 41.546875 
Q 48.578125 39.3125 48.578125 33.453125 
L 48.578125 21.734375 
Q 48.578125 9.46875 49.140625 6.21875 
Q 49.703125 2.984375 51.375 0 
L 42.1875 0 
Q 40.828125 2.734375 40.4375 6.390625 
z
M 39.703125 26.03125 
Q 34.90625 24.078125 25.34375 22.703125 
Q 19.921875 21.921875 17.671875 20.9375 
Q 15.4375 19.96875 14.203125 18.09375 
Q 12.984375 16.21875 12.984375 13.921875 
Q 12.984375 10.40625 15.640625 8.0625 
Q 18.3125 5.71875 23.4375 5.71875 
Q 28.515625 5.71875 32.46875 7.9375 
Q 36.421875 10.15625 38.28125 14.015625 
Q 39.703125 17 39.703125 22.796875 
z
" id="ArialMT-97"/>
       <path d="M 6.390625 0 
L 6.390625 71.578125 
L 15.1875 71.578125 
L 15.1875 0 
z
" id="ArialMT-108"/>
       <path d="M 40.578125 0 
L 40.578125 7.625 
Q 34.515625 -1.171875 24.125 -1.171875 
Q 19.53125 -1.171875 15.546875 0.578125 
Q 11.578125 2.34375 9.640625 5 
Q 7.71875 7.671875 6.9375 11.53125 
Q 6.390625 14.109375 6.390625 19.734375 
L 6.390625 51.859375 
L 15.1875 51.859375 
L 15.1875 23.09375 
Q 15.1875 16.21875 15.71875 13.8125 
Q 16.546875 10.359375 19.234375 8.375 
Q 21.921875 6.390625 25.875 6.390625 
Q 29.828125 6.390625 33.296875 8.421875 
Q 36.765625 10.453125 38.203125 13.9375 
Q 39.65625 17.4375 39.65625 24.078125 
L 39.65625 51.859375 
L 48.4375 51.859375 
L 48.4375 0 
z
" id="ArialMT-117"/>
      </defs>
      <use xlink:href="#ArialMT-118"/>
      <use x="50" xlink:href="#ArialMT-97"/>
      <use x="105.615234" xlink:href="#ArialMT-108"/>
      <use x="127.832031" xlink:href="#ArialMT-117"/>
      <use x="183.447266" xlink:href="#ArialMT-101"/>
     </g>
    </g>
   </g>
   <g id="line2d_19">
    <path clip-path="url(#p6dec34f2d2)" d="M 59.246307 66.49676 
L 60.775772 80.166013 
L 62.305238 95.956292 
L 63.834703 114.119334 
L 65.364169 135.317992 
L 66.893634 160.440201 
L 68.4231 182.73319 
L 69.952565 199.025978 
L 71.482031 207.932515 
L 73.011496 207.326995 
L 74.540962 206.975552 
L 76.070427 205.544223 
L 77.599893 206.935148 
L 79.129358 208.920709 
L 80.658824 207.741148 
L 82.188289 207.561987 
L 83.717755 207.908162 
L 85.24722 210.022253 
L 86.776686 211.762757 
L 88.306151 212.750243 
L 89.835617 212.304434 
L 91.365083 213.250747 
L 92.894548 215.412563 
L 94.424014 216.474514 
L 95.953479 217.330055 
L 97.482945 216.797282 
L 99.01241 215.772263 
L 100.541876 214.051262 
L 103.600807 214.201654 
L 105.130272 213.738674 
L 106.659738 215.199351 
L 108.189203 217.233627 
L 109.718669 219.641998 
L 111.248134 219.217712 
L 112.7776 219.938087 
L 114.307065 219.827862 
L 115.836531 219.386258 
L 117.365996 219.598859 
L 118.895462 219.412192 
L 120.424927 213.463109 
L 121.954393 208.800736 
L 123.483858 209.524808 
L 125.013324 212.768995 
L 126.542789 215.501315 
L 128.072255 216.389381 
L 129.60172 215.894297 
L 131.131186 217.404543 
L 132.660651 217.546082 
L 134.190117 218.523758 
L 135.719582 213.774365 
L 137.249048 214.587509 
L 138.778513 216.566508 
L 140.307979 217.830592 
L 141.837444 217.530107 
L 143.36691 215.642883 
L 144.896375 218.026184 
L 146.425841 219.342302 
L 147.955306 220.276017 
L 149.484772 215.238151 
L 151.014237 211.943424 
L 152.543703 214.677291 
L 154.073168 218.880125 
L 155.602634 220.313476 
L 157.132099 215.847915 
L 158.661565 217.258342 
L 160.19103 220.948531 
L 161.720496 220.977565 
L 163.249961 219.577259 
L 164.779427 214.557245 
L 166.308892 214.414854 
L 167.838358 214.670314 
L 169.367823 217.820186 
L 170.897289 219.786678 
L 172.426755 220.991649 
L 173.95622 216.790895 
L 175.485686 215.489309 
L 177.015151 217.10896 
L 178.544617 219.605403 
L 180.074082 220.14696 
L 181.603548 219.788572 
L 183.133013 216.867754 
L 184.662479 215.976975 
L 186.191944 219.648727 
L 187.72141 220.285 
L 189.250875 218.225227 
L 190.780341 218.301505 
L 192.309806 219.81316 
L 193.839272 219.508703 
L 195.368737 218.565485 
L 196.898203 221.968604 
L 198.427668 221.677263 
L 199.957134 220.529401 
L 201.486599 200.509799 
L 203.016065 198.058584 
L 204.54553 206.679236 
L 206.074996 222.669696 
L 207.604461 223.07588 
L 209.133927 220.357301 
L 210.663392 208.946416 
L 212.192858 205.540415 
L 213.722323 210.762698 
L 215.251789 217.998653 
L 216.781254 221.021512 
L 218.31072 212.157881 
L 219.840185 210.365965 
L 221.369651 214.219391 
L 222.899116 223.314246 
L 224.428582 221.325077 
L 225.958047 221.950779 
L 227.487513 212.806666 
L 229.016978 205.031492 
L 230.546444 207.617622 
L 232.075909 217.075805 
L 233.605375 219.669633 
L 235.13484 214.852921 
L 236.664306 211.286558 
L 238.193771 205.579883 
L 239.723237 209.664388 
L 241.252702 222.24425 
L 242.782168 224.761414 
L 244.311633 225.256257 
L 245.841099 219.118059 
L 247.370564 209.236228 
L 248.90003 206.325306 
L 250.429495 213.687882 
L 251.958961 223.806049 
L 253.488427 224.806675 
L 256.547358 209.887836 
L 258.076823 215.529228 
L 259.606289 216.185292 
L 261.135754 215.595835 
L 262.66522 216.174265 
L 264.194685 219.577882 
L 265.724151 218.226443 
L 267.253616 218.153162 
L 268.783082 209.513448 
L 270.312547 213.271149 
L 271.842013 220.175575 
L 273.371478 223.704359 
L 274.900944 221.238092 
L 276.430409 204.988097 
L 277.959875 201.082121 
L 279.48934 212.687514 
L 281.018806 226.822624 
L 282.548271 224.893451 
L 284.077737 215.073453 
L 285.607202 200.975054 
L 287.136668 210.245355 
L 288.666133 214.570809 
L 290.195599 229.491989 
L 291.725064 229.013008 
L 293.25453 217.401709 
L 294.783995 199.894511 
L 296.313461 184.159055 
L 297.842926 190.827937 
L 300.901857 222.738826 
L 302.431323 221.747879 
L 303.960788 223.02718 
L 305.490254 223.027178 
L 307.019719 206.632269 
L 308.549185 198.620842 
L 310.07865 194.538325 
L 311.608116 202.572485 
L 313.137581 213.989803 
L 314.667047 220.700635 
L 316.196512 225.006787 
L 317.725978 225.304819 
L 319.255443 223.123193 
L 320.784909 220.527753 
L 322.314374 207.98126 
L 323.84384 206.490511 
L 325.373305 203.786443 
L 326.902771 214.033137 
L 328.432236 216.084571 
L 329.961702 224.541852 
L 331.491167 225.057771 
L 333.020633 224.792966 
L 334.550099 221.031291 
L 336.079564 207.158777 
L 337.60903 202.971217 
L 339.138495 201.927168 
L 340.667961 211.069009 
L 342.197426 216.586406 
L 343.726892 223.007183 
L 345.256357 218.927219 
L 346.785823 211.743803 
L 348.315288 209.535769 
L 349.844754 216.47521 
L 351.374219 211.569334 
L 352.903685 209.081667 
L 354.43315 207.290915 
L 355.962616 210.419077 
L 357.492081 215.144686 
L 359.021547 216.719842 
L 360.551012 225.18611 
L 362.080478 222.677417 
L 363.609943 216.049143 
L 363.609943 216.049143 
" style="fill:none;stroke:#1f77b4;stroke-linecap:round;stroke-width:1.5;"/>
   </g>
   <g id="line2d_20">
    <path clip-path="url(#p6dec34f2d2)" d="M 59.246307 31.819261 
L 60.775772 45.026919 
L 62.305238 60.093938 
L 63.834703 77.335058 
L 66.893634 121.912612 
L 68.4231 144.67948 
L 69.952565 163.826436 
L 71.482031 176.803869 
L 73.011496 184.155812 
L 74.540962 188.028688 
L 76.070427 190.370494 
L 77.599893 192.995007 
L 79.129358 194.921719 
L 80.658824 193.104181 
L 82.188289 190.537325 
L 83.717755 189.608109 
L 85.24722 190.677155 
L 86.776686 193.338744 
L 88.306151 195.400066 
L 89.835617 195.955804 
L 91.365083 195.371796 
L 92.894548 194.292396 
L 94.424014 191.958427 
L 95.953479 192.380495 
L 97.482945 193.699974 
L 99.01241 195.4887 
L 100.541876 196.754847 
L 102.071341 196.253754 
L 103.600807 195.955198 
L 106.659738 196.534488 
L 108.189203 195.620234 
L 109.718669 193.669423 
L 111.248134 194.529434 
L 112.7776 194.748039 
L 115.836531 192.421897 
L 117.365996 192.990353 
L 118.895462 196.131287 
L 120.424927 198.074346 
L 121.954393 197.533503 
L 123.483858 197.215883 
L 125.013324 197.910739 
L 126.542789 197.938378 
L 128.072255 197.606793 
L 129.60172 197.607544 
L 131.131186 196.722644 
L 132.660651 195.452629 
L 134.190117 195.956974 
L 135.719582 197.374592 
L 137.249048 198.114238 
L 138.778513 197.351704 
L 141.837444 197.878918 
L 143.36691 198.769362 
L 144.896375 197.928831 
L 146.425841 196.224101 
L 147.955306 197.964463 
L 149.484772 198.858865 
L 151.014237 199.091967 
L 152.543703 200.331114 
L 154.073168 196.438756 
L 155.602634 198.732201 
L 157.132099 198.936295 
L 160.19103 195.534473 
L 161.720496 196.482887 
L 163.249961 199.863859 
L 164.779427 201.115645 
L 166.308892 199.615077 
L 167.838358 200.929958 
L 169.367823 199.981952 
L 170.897289 199.406112 
L 172.426755 199.342469 
L 173.95622 199.494557 
L 175.485686 200.200108 
L 177.015151 199.278005 
L 178.544617 199.871954 
L 180.074082 200.330358 
L 181.603548 199.850598 
L 183.133013 200.130463 
L 184.662479 201.92612 
L 186.191944 200.890301 
L 187.72141 200.902921 
L 189.250875 200.633208 
L 190.780341 201.184723 
L 192.309806 199.605199 
L 195.368737 199.349104 
L 196.898203 201.563951 
L 198.427668 200.721307 
L 199.957134 203.39323 
L 201.486599 200.161247 
L 203.016065 198.582511 
L 204.54553 202.42123 
L 206.074996 202.883731 
L 207.604461 198.339256 
L 209.133927 202.329753 
L 210.663392 200.833483 
L 212.192858 199.90726 
L 213.722323 199.543602 
L 215.251789 199.380489 
L 216.781254 203.060551 
L 218.31072 202.508916 
L 219.840185 200.790685 
L 221.369651 203.017969 
L 222.899116 199.677296 
L 224.428582 197.018753 
L 225.958047 201.711071 
L 227.487513 203.211949 
L 229.016978 197.948309 
L 230.546444 200.77289 
L 232.075909 204.567779 
L 233.605375 200.992395 
L 235.13484 197.90006 
L 238.193771 202.759358 
L 239.723237 200.263733 
L 241.252702 202.56036 
L 242.782168 198.399 
L 244.311633 200.90643 
L 245.841099 206.102858 
L 247.370564 202.586873 
L 248.90003 204.291701 
L 250.429495 204.517447 
L 251.958961 202.889642 
L 253.488427 204.498479 
L 255.017892 204.657076 
L 256.547358 203.972733 
L 258.076823 206.120923 
L 259.606289 202.412886 
L 261.135754 203.231873 
L 262.66522 203.883726 
L 264.194685 202.840366 
L 265.724151 202.222635 
L 268.783082 205.567391 
L 271.842013 204.533635 
L 273.371478 206.026504 
L 274.900944 206.889698 
L 276.430409 201.38767 
L 277.959875 200.951975 
L 279.48934 205.241398 
L 281.018806 203.056245 
L 282.548271 202.494786 
L 284.077737 205.026169 
L 285.607202 205.405374 
L 287.136668 205.238773 
L 288.666133 207.652778 
L 290.195599 195.439602 
L 291.725064 203.012965 
L 293.25453 208.261122 
L 294.783995 199.764842 
L 296.313461 195.909105 
L 297.842926 198.284339 
L 299.372392 202.414282 
L 300.901857 196.265505 
L 302.431323 190.798435 
L 303.960788 191.816296 
L 305.490254 201.711464 
L 307.019719 201.61551 
L 308.549185 196.877839 
L 310.07865 197.269896 
L 311.608116 200.854188 
L 313.137581 203.884868 
L 314.667047 203.045961 
L 316.196512 201.049584 
L 317.725978 201.895971 
L 319.255443 202.323448 
L 320.784909 205.33137 
L 322.314374 204.257941 
L 323.84384 202.476974 
L 325.373305 201.838525 
L 326.902771 204.867156 
L 328.432236 206.242757 
L 329.961702 202.518773 
L 331.491167 194.778233 
L 333.020633 201.136903 
L 334.550099 204.316766 
L 336.079564 204.066414 
L 337.60903 200.893096 
L 339.138495 201.364454 
L 340.667961 203.542026 
L 342.197426 205.308549 
L 343.726892 204.0757 
L 345.256357 202.616922 
L 346.785823 203.374298 
L 348.315288 202.855146 
L 349.844754 202.136911 
L 351.374219 203.965319 
L 352.903685 203.630228 
L 354.43315 203.15038 
L 355.962616 201.641535 
L 357.492081 199.632768 
L 359.021547 202.808721 
L 360.551012 204.875284 
L 362.080478 204.210855 
L 363.609943 205.034409 
L 363.609943 205.034409 
" style="fill:none;stroke:#ff7f0e;stroke-linecap:round;stroke-width:1.5;"/>
   </g>
   <g id="line2d_21"/>
   <g id="line2d_22"/>
   <g id="patch_3">
    <path d="M 44.028125 239.375625 
L 44.028125 21.935625 
" style="fill:none;stroke:#cccccc;stroke-linecap:square;stroke-linejoin:miter;stroke-width:0.8;"/>
   </g>
   <g id="patch_4">
    <path d="M 378.828125 239.375625 
L 378.828125 21.935625 
" style="fill:none;stroke:#cccccc;stroke-linecap:square;stroke-linejoin:miter;stroke-width:0.8;"/>
   </g>
   <g id="patch_5">
    <path d="M 44.028125 239.375625 
L 378.828125 239.375625 
" style="fill:none;stroke:#cccccc;stroke-linecap:square;stroke-linejoin:miter;stroke-width:0.8;"/>
   </g>
   <g id="patch_6">
    <path d="M 44.028125 21.935625 
L 378.828125 21.935625 
" style="fill:none;stroke:#cccccc;stroke-linecap:square;stroke-linejoin:miter;stroke-width:0.8;"/>
   </g>
   <g id="text_21">
    <!-- Val-test rmse/epoch -->
    <g style="fill:#262626;" transform="translate(158.518438 15.935625)scale(0.12 -0.12)">
     <defs>
      <path d="M 28.171875 0 
L 0.4375 71.578125 
L 10.6875 71.578125 
L 29.296875 19.578125 
Q 31.546875 13.328125 33.0625 7.859375 
Q 34.71875 13.71875 36.921875 19.578125 
L 56.25 71.578125 
L 65.921875 71.578125 
L 37.890625 0 
z
" id="ArialMT-86"/>
      <path d="M 3.171875 21.484375 
L 3.171875 30.328125 
L 30.171875 30.328125 
L 30.171875 21.484375 
z
" id="ArialMT-45"/>
      <path d="M 25.78125 7.859375 
L 27.046875 0.09375 
Q 23.34375 -0.6875 20.40625 -0.6875 
Q 15.625 -0.6875 12.984375 0.828125 
Q 10.359375 2.34375 9.28125 4.8125 
Q 8.203125 7.28125 8.203125 15.1875 
L 8.203125 45.015625 
L 1.765625 45.015625 
L 1.765625 51.859375 
L 8.203125 51.859375 
L 8.203125 64.703125 
L 16.9375 69.96875 
L 16.9375 51.859375 
L 25.78125 51.859375 
L 25.78125 45.015625 
L 16.9375 45.015625 
L 16.9375 14.703125 
Q 16.9375 10.9375 17.40625 9.859375 
Q 17.875 8.796875 18.921875 8.15625 
Q 19.96875 7.515625 21.921875 7.515625 
Q 23.390625 7.515625 25.78125 7.859375 
z
" id="ArialMT-116"/>
      <path d="M 3.078125 15.484375 
L 11.765625 16.84375 
Q 12.5 11.625 15.84375 8.84375 
Q 19.1875 6.0625 25.203125 6.0625 
Q 31.25 6.0625 34.171875 8.515625 
Q 37.109375 10.984375 37.109375 14.3125 
Q 37.109375 17.28125 34.515625 19 
Q 32.71875 20.171875 25.53125 21.96875 
Q 15.875 24.421875 12.140625 26.203125 
Q 8.40625 27.984375 6.46875 31.125 
Q 4.546875 34.28125 4.546875 38.09375 
Q 4.546875 41.546875 6.125 44.5 
Q 7.71875 47.46875 10.453125 49.421875 
Q 12.5 50.921875 16.03125 51.96875 
Q 19.578125 53.03125 23.640625 53.03125 
Q 29.734375 53.03125 34.34375 51.265625 
Q 38.96875 49.515625 41.15625 46.5 
Q 43.359375 43.5 44.1875 38.484375 
L 35.59375 37.3125 
Q 35.015625 41.3125 32.203125 43.546875 
Q 29.390625 45.796875 24.265625 45.796875 
Q 18.21875 45.796875 15.625 43.796875 
Q 13.03125 41.796875 13.03125 39.109375 
Q 13.03125 37.40625 14.109375 36.03125 
Q 15.1875 34.625 17.484375 33.6875 
Q 18.796875 33.203125 25.25 31.453125 
Q 34.578125 28.953125 38.25 27.359375 
Q 41.9375 25.78125 44.03125 22.75 
Q 46.140625 19.734375 46.140625 15.234375 
Q 46.140625 10.84375 43.578125 6.953125 
Q 41.015625 3.078125 36.171875 0.953125 
Q 31.34375 -1.171875 25.25 -1.171875 
Q 15.140625 -1.171875 9.84375 3.03125 
Q 4.546875 7.234375 3.078125 15.484375 
z
" id="ArialMT-115"/>
      <path id="ArialMT-32"/>
      <path d="M 6.5 0 
L 6.5 51.859375 
L 14.40625 51.859375 
L 14.40625 44 
Q 17.4375 49.515625 20 51.265625 
Q 22.5625 53.03125 25.640625 53.03125 
Q 30.078125 53.03125 34.671875 50.203125 
L 31.640625 42.046875 
Q 28.421875 43.953125 25.203125 43.953125 
Q 22.3125 43.953125 20.015625 42.21875 
Q 17.71875 40.484375 16.75 37.40625 
Q 15.28125 32.71875 15.28125 27.15625 
L 15.28125 0 
z
" id="ArialMT-114"/>
      <path d="M 6.59375 0 
L 6.59375 51.859375 
L 14.453125 51.859375 
L 14.453125 44.578125 
Q 16.890625 48.390625 20.9375 50.703125 
Q 25 53.03125 30.171875 53.03125 
Q 35.9375 53.03125 39.625 50.640625 
Q 43.3125 48.25 44.828125 43.953125 
Q 50.984375 53.03125 60.84375 53.03125 
Q 68.5625 53.03125 72.703125 48.75 
Q 76.859375 44.484375 76.859375 35.59375 
L 76.859375 0 
L 68.109375 0 
L 68.109375 32.671875 
Q 68.109375 37.9375 67.25 40.25 
Q 66.40625 42.578125 64.15625 43.984375 
Q 61.921875 45.40625 58.890625 45.40625 
Q 53.421875 45.40625 49.796875 41.765625 
Q 46.1875 38.140625 46.1875 30.125 
L 46.1875 0 
L 37.40625 0 
L 37.40625 33.6875 
Q 37.40625 39.546875 35.25 42.46875 
Q 33.109375 45.40625 28.21875 45.40625 
Q 24.515625 45.40625 21.359375 43.453125 
Q 18.21875 41.5 16.796875 37.734375 
Q 15.375 33.984375 15.375 26.90625 
L 15.375 0 
z
" id="ArialMT-109"/>
      <path d="M 0 -1.21875 
L 20.75 72.796875 
L 27.78125 72.796875 
L 7.078125 -1.21875 
z
" id="ArialMT-47"/>
     </defs>
     <use xlink:href="#ArialMT-86"/>
     <use x="59.324219" xlink:href="#ArialMT-97"/>
     <use x="114.939453" xlink:href="#ArialMT-108"/>
     <use x="137.15625" xlink:href="#ArialMT-45"/>
     <use x="170.457031" xlink:href="#ArialMT-116"/>
     <use x="198.240234" xlink:href="#ArialMT-101"/>
     <use x="253.855469" xlink:href="#ArialMT-115"/>
     <use x="303.855469" xlink:href="#ArialMT-116"/>
     <use x="331.638672" xlink:href="#ArialMT-32"/>
     <use x="359.421875" xlink:href="#ArialMT-114"/>
     <use x="392.722656" xlink:href="#ArialMT-109"/>
     <use x="476.023438" xlink:href="#ArialMT-115"/>
     <use x="526.023438" xlink:href="#ArialMT-101"/>
     <use x="581.638672" xlink:href="#ArialMT-47"/>
     <use x="609.421875" xlink:href="#ArialMT-101"/>
     <use x="665.037109" xlink:href="#ArialMT-112"/>
     <use x="720.652344" xlink:href="#ArialMT-111"/>
     <use x="776.267578" xlink:href="#ArialMT-99"/>
     <use x="826.267578" xlink:href="#ArialMT-104"/>
    </g>
   </g>
   <g id="legend_1">
    <g id="patch_7">
     <path d="M 295.929688 72.371562 
L 371.828125 72.371562 
Q 373.828125 72.371562 373.828125 70.371562 
L 373.828125 28.935625 
Q 373.828125 26.935625 371.828125 26.935625 
L 295.929688 26.935625 
Q 293.929688 26.935625 293.929688 28.935625 
L 293.929688 70.371562 
Q 293.929688 72.371562 295.929688 72.371562 
z
" style="fill:#ffffff;opacity:0.8;stroke:#cccccc;stroke-linejoin:miter;"/>
    </g>
    <g id="text_22">
     <!-- variable -->
     <g style="fill:#262626;" transform="translate(316.370313 38.093437)scale(0.1 -0.1)">
      <defs>
       <path d="M 6.640625 61.46875 
L 6.640625 71.578125 
L 15.4375 71.578125 
L 15.4375 61.46875 
z
M 6.640625 0 
L 6.640625 51.859375 
L 15.4375 51.859375 
L 15.4375 0 
z
" id="ArialMT-105"/>
       <path d="M 14.703125 0 
L 6.546875 0 
L 6.546875 71.578125 
L 15.328125 71.578125 
L 15.328125 46.046875 
Q 20.90625 53.03125 29.546875 53.03125 
Q 34.328125 53.03125 38.59375 51.09375 
Q 42.875 49.171875 45.625 45.671875 
Q 48.390625 42.1875 49.953125 37.25 
Q 51.515625 32.328125 51.515625 26.703125 
Q 51.515625 13.375 44.921875 6.09375 
Q 38.328125 -1.171875 29.109375 -1.171875 
Q 19.921875 -1.171875 14.703125 6.5 
z
M 14.59375 26.3125 
Q 14.59375 17 17.140625 12.84375 
Q 21.296875 6.0625 28.375 6.0625 
Q 34.125 6.0625 38.328125 11.0625 
Q 42.53125 16.0625 42.53125 25.984375 
Q 42.53125 36.140625 38.5 40.96875 
Q 34.46875 45.796875 28.765625 45.796875 
Q 23 45.796875 18.796875 40.796875 
Q 14.59375 35.796875 14.59375 26.3125 
z
" id="ArialMT-98"/>
      </defs>
      <use xlink:href="#ArialMT-118"/>
      <use x="50" xlink:href="#ArialMT-97"/>
      <use x="105.615234" xlink:href="#ArialMT-114"/>
      <use x="138.916016" xlink:href="#ArialMT-105"/>
      <use x="161.132812" xlink:href="#ArialMT-97"/>
      <use x="216.748047" xlink:href="#ArialMT-98"/>
      <use x="272.363281" xlink:href="#ArialMT-108"/>
      <use x="294.580078" xlink:href="#ArialMT-101"/>
     </g>
    </g>
    <g id="line2d_23">
     <path d="M 297.929688 48.73875 
L 317.929688 48.73875 
" style="fill:none;stroke:#1f77b4;stroke-linecap:round;stroke-width:1.5;"/>
    </g>
    <g id="line2d_24"/>
    <g id="text_23">
     <!-- val_rmse -->
     <g style="fill:#262626;" transform="translate(325.929688 52.23875)scale(0.1 -0.1)">
      <defs>
       <path d="M -1.515625 -19.875 
L -1.515625 -13.53125 
L 56.734375 -13.53125 
L 56.734375 -19.875 
z
" id="ArialMT-95"/>
      </defs>
      <use xlink:href="#ArialMT-118"/>
      <use x="50" xlink:href="#ArialMT-97"/>
      <use x="105.615234" xlink:href="#ArialMT-108"/>
      <use x="127.832031" xlink:href="#ArialMT-95"/>
      <use x="183.447266" xlink:href="#ArialMT-114"/>
      <use x="216.748047" xlink:href="#ArialMT-109"/>
      <use x="300.048828" xlink:href="#ArialMT-115"/>
      <use x="350.048828" xlink:href="#ArialMT-101"/>
     </g>
    </g>
    <g id="line2d_25">
     <path d="M 297.929688 62.884062 
L 317.929688 62.884062 
" style="fill:none;stroke:#ff7f0e;stroke-linecap:round;stroke-width:1.5;"/>
    </g>
    <g id="line2d_26"/>
    <g id="text_24">
     <!-- test_rmse -->
     <g style="fill:#262626;" transform="translate(325.929688 66.384062)scale(0.1 -0.1)">
      <use xlink:href="#ArialMT-116"/>
      <use x="27.783203" xlink:href="#ArialMT-101"/>
      <use x="83.398438" xlink:href="#ArialMT-115"/>
      <use x="133.398438" xlink:href="#ArialMT-116"/>
      <use x="161.181641" xlink:href="#ArialMT-95"/>
      <use x="216.796875" xlink:href="#ArialMT-114"/>
      <use x="250.097656" xlink:href="#ArialMT-109"/>
      <use x="333.398438" xlink:href="#ArialMT-115"/>
      <use x="383.398438" xlink:href="#ArialMT-101"/>
     </g>
    </g>
   </g>
  </g>
 </g>
 <defs>
  <clipPath id="p6dec34f2d2">
   <rect height="217.44" width="334.8" x="44.028125" y="21.935625"/>
  </clipPath>
 </defs>
</svg>
