<?xml version="1.0" encoding="utf-8" standalone="no"?>
<!DOCTYPE svg PUBLIC "-//W3C//DTD SVG 1.1//EN"
  "http://www.w3.org/Graphics/SVG/1.1/DTD/svg11.dtd">
<!-- Created with matplotlib (https://matplotlib.org/) -->
<svg height="275.86625pt" version="1.1" viewBox="0 0 386.028125 275.86625" width="386.028125pt" xmlns="http://www.w3.org/2000/svg" xmlns:xlink="http://www.w3.org/1999/xlink">
 <metadata>
  <rdf:RDF xmlns:cc="http://creativecommons.org/ns#" xmlns:dc="http://purl.org/dc/elements/1.1/" xmlns:rdf="http://www.w3.org/1999/02/22-rdf-syntax-ns#">
   <cc:Work>
    <dc:type rdf:resource="http://purl.org/dc/dcmitype/StillImage"/>
    <dc:date>2022-07-27T11:36:36.105133</dc:date>
    <dc:format>image/svg+xml</dc:format>
    <dc:creator>
     <cc:Agent>
      <dc:title>Matplotlib v3.3.2, https://matplotlib.org/</dc:title>
     </cc:Agent>
    </dc:creator>
   </cc:Work>
  </rdf:RDF>
 </metadata>
 <defs>
  <style type="text/css">*{stroke-linecap:butt;stroke-linejoin:round;}</style>
 </defs>
 <g id="figure_1">
  <g id="patch_1">
   <path d="M 0 275.86625 
L 386.028125 275.86625 
L 386.028125 0 
L 0 0 
z
" style="fill:#ffffff;"/>
  </g>
  <g id="axes_1">
   <g id="patch_2">
    <path d="M 44.028125 239.375625 
L 378.828125 239.375625 
L 378.828125 21.935625 
L 44.028125 21.935625 
z
" style="fill:#ffffff;"/>
   </g>
   <g id="matplotlib.axis_1">
    <g id="xtick_1">
     <g id="line2d_1">
      <path clip-path="url(#pdd3cc84618)" d="M 59.246307 239.375625 
L 59.246307 21.935625 
" style="fill:none;stroke:#cccccc;stroke-linecap:round;stroke-width:0.8;"/>
     </g>
     <g id="text_1">
      <!-- 0 -->
      <g style="fill:#262626;" transform="translate(56.465838 253.533437)scale(0.1 -0.1)">
       <defs>
        <path d="M 4.15625 35.296875 
Q 4.15625 48 6.765625 55.734375 
Q 9.375 63.484375 14.515625 67.671875 
Q 19.671875 71.875 27.484375 71.875 
Q 33.25 71.875 37.59375 69.546875 
Q 41.9375 67.234375 44.765625 62.859375 
Q 47.609375 58.5 49.21875 52.21875 
Q 50.828125 45.953125 50.828125 35.296875 
Q 50.828125 22.703125 48.234375 14.96875 
Q 45.65625 7.234375 40.5 3 
Q 35.359375 -1.21875 27.484375 -1.21875 
Q 17.140625 -1.21875 11.234375 6.203125 
Q 4.15625 15.140625 4.15625 35.296875 
z
M 13.1875 35.296875 
Q 13.1875 17.671875 17.3125 11.828125 
Q 21.4375 6 27.484375 6 
Q 33.546875 6 37.671875 11.859375 
Q 41.796875 17.71875 41.796875 35.296875 
Q 41.796875 52.984375 37.671875 58.78125 
Q 33.546875 64.59375 27.390625 64.59375 
Q 21.34375 64.59375 17.71875 59.46875 
Q 13.1875 52.9375 13.1875 35.296875 
z
" id="ArialMT-48"/>
       </defs>
       <use xlink:href="#ArialMT-48"/>
      </g>
     </g>
    </g>
    <g id="xtick_2">
     <g id="line2d_2">
      <path clip-path="url(#pdd3cc84618)" d="M 97.482945 239.375625 
L 97.482945 21.935625 
" style="fill:none;stroke:#cccccc;stroke-linecap:round;stroke-width:0.8;"/>
     </g>
     <g id="text_2">
      <!-- 25 -->
      <g style="fill:#262626;" transform="translate(91.922007 253.533437)scale(0.1 -0.1)">
       <defs>
        <path d="M 50.34375 8.453125 
L 50.34375 0 
L 3.03125 0 
Q 2.9375 3.171875 4.046875 6.109375 
Q 5.859375 10.9375 9.828125 15.625 
Q 13.8125 20.3125 21.34375 26.46875 
Q 33.015625 36.03125 37.109375 41.625 
Q 41.21875 47.21875 41.21875 52.203125 
Q 41.21875 57.421875 37.46875 61 
Q 33.734375 64.59375 27.734375 64.59375 
Q 21.390625 64.59375 17.578125 60.78125 
Q 13.765625 56.984375 13.71875 50.25 
L 4.6875 51.171875 
Q 5.609375 61.28125 11.65625 66.578125 
Q 17.71875 71.875 27.9375 71.875 
Q 38.234375 71.875 44.234375 66.15625 
Q 50.25 60.453125 50.25 52 
Q 50.25 47.703125 48.484375 43.546875 
Q 46.734375 39.40625 42.65625 34.8125 
Q 38.578125 30.21875 29.109375 22.21875 
Q 21.1875 15.578125 18.9375 13.203125 
Q 16.703125 10.84375 15.234375 8.453125 
z
" id="ArialMT-50"/>
        <path d="M 4.15625 18.75 
L 13.375 19.53125 
Q 14.40625 12.796875 18.140625 9.390625 
Q 21.875 6 27.15625 6 
Q 33.5 6 37.890625 10.78125 
Q 42.28125 15.578125 42.28125 23.484375 
Q 42.28125 31 38.0625 35.34375 
Q 33.84375 39.703125 27 39.703125 
Q 22.75 39.703125 19.328125 37.765625 
Q 15.921875 35.84375 13.96875 32.765625 
L 5.71875 33.84375 
L 12.640625 70.609375 
L 48.25 70.609375 
L 48.25 62.203125 
L 19.671875 62.203125 
L 15.828125 42.96875 
Q 22.265625 47.46875 29.34375 47.46875 
Q 38.71875 47.46875 45.15625 40.96875 
Q 51.609375 34.46875 51.609375 24.265625 
Q 51.609375 14.546875 45.953125 7.46875 
Q 39.0625 -1.21875 27.15625 -1.21875 
Q 17.390625 -1.21875 11.203125 4.25 
Q 5.03125 9.71875 4.15625 18.75 
z
" id="ArialMT-53"/>
       </defs>
       <use xlink:href="#ArialMT-50"/>
       <use x="55.615234" xlink:href="#ArialMT-53"/>
      </g>
     </g>
    </g>
    <g id="xtick_3">
     <g id="line2d_3">
      <path clip-path="url(#pdd3cc84618)" d="M 135.719582 239.375625 
L 135.719582 21.935625 
" style="fill:none;stroke:#cccccc;stroke-linecap:round;stroke-width:0.8;"/>
     </g>
     <g id="text_3">
      <!-- 50 -->
      <g style="fill:#262626;" transform="translate(130.158645 253.533437)scale(0.1 -0.1)">
       <use xlink:href="#ArialMT-53"/>
       <use x="55.615234" xlink:href="#ArialMT-48"/>
      </g>
     </g>
    </g>
    <g id="xtick_4">
     <g id="line2d_4">
      <path clip-path="url(#pdd3cc84618)" d="M 173.95622 239.375625 
L 173.95622 21.935625 
" style="fill:none;stroke:#cccccc;stroke-linecap:round;stroke-width:0.8;"/>
     </g>
     <g id="text_4">
      <!-- 75 -->
      <g style="fill:#262626;" transform="translate(168.395283 253.533437)scale(0.1 -0.1)">
       <defs>
        <path d="M 4.734375 62.203125 
L 4.734375 70.65625 
L 51.078125 70.65625 
L 51.078125 63.8125 
Q 44.234375 56.546875 37.515625 44.484375 
Q 30.8125 32.421875 27.15625 19.671875 
Q 24.515625 10.6875 23.78125 0 
L 14.75 0 
Q 14.890625 8.453125 18.0625 20.40625 
Q 21.234375 32.375 27.171875 43.484375 
Q 33.109375 54.59375 39.796875 62.203125 
z
" id="ArialMT-55"/>
       </defs>
       <use xlink:href="#ArialMT-55"/>
       <use x="55.615234" xlink:href="#ArialMT-53"/>
      </g>
     </g>
    </g>
    <g id="xtick_5">
     <g id="line2d_5">
      <path clip-path="url(#pdd3cc84618)" d="M 212.192858 239.375625 
L 212.192858 21.935625 
" style="fill:none;stroke:#cccccc;stroke-linecap:round;stroke-width:0.8;"/>
     </g>
     <g id="text_5">
      <!-- 100 -->
      <g style="fill:#262626;" transform="translate(203.851452 253.533437)scale(0.1 -0.1)">
       <defs>
        <path d="M 37.25 0 
L 28.46875 0 
L 28.46875 56 
Q 25.296875 52.984375 20.140625 49.953125 
Q 14.984375 46.921875 10.890625 45.40625 
L 10.890625 53.90625 
Q 18.265625 57.375 23.78125 62.296875 
Q 29.296875 67.234375 31.59375 71.875 
L 37.25 71.875 
z
" id="ArialMT-49"/>
       </defs>
       <use xlink:href="#ArialMT-49"/>
       <use x="55.615234" xlink:href="#ArialMT-48"/>
       <use x="111.230469" xlink:href="#ArialMT-48"/>
      </g>
     </g>
    </g>
    <g id="xtick_6">
     <g id="line2d_6">
      <path clip-path="url(#pdd3cc84618)" d="M 250.429495 239.375625 
L 250.429495 21.935625 
" style="fill:none;stroke:#cccccc;stroke-linecap:round;stroke-width:0.8;"/>
     </g>
     <g id="text_6">
      <!-- 125 -->
      <g style="fill:#262626;" transform="translate(242.088089 253.533437)scale(0.1 -0.1)">
       <use xlink:href="#ArialMT-49"/>
       <use x="55.615234" xlink:href="#ArialMT-50"/>
       <use x="111.230469" xlink:href="#ArialMT-53"/>
      </g>
     </g>
    </g>
    <g id="xtick_7">
     <g id="line2d_7">
      <path clip-path="url(#pdd3cc84618)" d="M 288.666133 239.375625 
L 288.666133 21.935625 
" style="fill:none;stroke:#cccccc;stroke-linecap:round;stroke-width:0.8;"/>
     </g>
     <g id="text_7">
      <!-- 150 -->
      <g style="fill:#262626;" transform="translate(280.324727 253.533437)scale(0.1 -0.1)">
       <use xlink:href="#ArialMT-49"/>
       <use x="55.615234" xlink:href="#ArialMT-53"/>
       <use x="111.230469" xlink:href="#ArialMT-48"/>
      </g>
     </g>
    </g>
    <g id="xtick_8">
     <g id="line2d_8">
      <path clip-path="url(#pdd3cc84618)" d="M 326.902771 239.375625 
L 326.902771 21.935625 
" style="fill:none;stroke:#cccccc;stroke-linecap:round;stroke-width:0.8;"/>
     </g>
     <g id="text_8">
      <!-- 175 -->
      <g style="fill:#262626;" transform="translate(318.561365 253.533437)scale(0.1 -0.1)">
       <use xlink:href="#ArialMT-49"/>
       <use x="55.615234" xlink:href="#ArialMT-55"/>
       <use x="111.230469" xlink:href="#ArialMT-53"/>
      </g>
     </g>
    </g>
    <g id="xtick_9">
     <g id="line2d_9">
      <path clip-path="url(#pdd3cc84618)" d="M 365.139409 239.375625 
L 365.139409 21.935625 
" style="fill:none;stroke:#cccccc;stroke-linecap:round;stroke-width:0.8;"/>
     </g>
     <g id="text_9">
      <!-- 200 -->
      <g style="fill:#262626;" transform="translate(356.798002 253.533437)scale(0.1 -0.1)">
       <use xlink:href="#ArialMT-50"/>
       <use x="55.615234" xlink:href="#ArialMT-48"/>
       <use x="111.230469" xlink:href="#ArialMT-48"/>
      </g>
     </g>
    </g>
    <g id="text_10">
     <!-- epoch -->
     <g style="fill:#262626;" transform="translate(197.80625 266.67875)scale(0.1 -0.1)">
      <defs>
       <path d="M 42.09375 16.703125 
L 51.171875 15.578125 
Q 49.03125 7.625 43.21875 3.21875 
Q 37.40625 -1.171875 28.375 -1.171875 
Q 17 -1.171875 10.328125 5.828125 
Q 3.65625 12.84375 3.65625 25.484375 
Q 3.65625 38.578125 10.390625 45.796875 
Q 17.140625 53.03125 27.875 53.03125 
Q 38.28125 53.03125 44.875 45.953125 
Q 51.46875 38.875 51.46875 26.03125 
Q 51.46875 25.25 51.421875 23.6875 
L 12.75 23.6875 
Q 13.234375 15.140625 17.578125 10.59375 
Q 21.921875 6.0625 28.421875 6.0625 
Q 33.25 6.0625 36.671875 8.59375 
Q 40.09375 11.140625 42.09375 16.703125 
z
M 13.234375 30.90625 
L 42.1875 30.90625 
Q 41.609375 37.453125 38.875 40.71875 
Q 34.671875 45.796875 27.984375 45.796875 
Q 21.921875 45.796875 17.796875 41.75 
Q 13.671875 37.703125 13.234375 30.90625 
z
" id="ArialMT-101"/>
       <path d="M 6.59375 -19.875 
L 6.59375 51.859375 
L 14.59375 51.859375 
L 14.59375 45.125 
Q 17.4375 49.078125 21 51.046875 
Q 24.5625 53.03125 29.640625 53.03125 
Q 36.28125 53.03125 41.359375 49.609375 
Q 46.4375 46.1875 49.015625 39.953125 
Q 51.609375 33.734375 51.609375 26.3125 
Q 51.609375 18.359375 48.75 11.984375 
Q 45.90625 5.609375 40.453125 2.21875 
Q 35.015625 -1.171875 29 -1.171875 
Q 24.609375 -1.171875 21.109375 0.6875 
Q 17.625 2.546875 15.375 5.375 
L 15.375 -19.875 
z
M 14.546875 25.640625 
Q 14.546875 15.625 18.59375 10.84375 
Q 22.65625 6.0625 28.421875 6.0625 
Q 34.28125 6.0625 38.453125 11.015625 
Q 42.625 15.96875 42.625 26.375 
Q 42.625 36.28125 38.546875 41.203125 
Q 34.46875 46.140625 28.8125 46.140625 
Q 23.1875 46.140625 18.859375 40.890625 
Q 14.546875 35.640625 14.546875 25.640625 
z
" id="ArialMT-112"/>
       <path d="M 3.328125 25.921875 
Q 3.328125 40.328125 11.328125 47.265625 
Q 18.015625 53.03125 27.640625 53.03125 
Q 38.328125 53.03125 45.109375 46.015625 
Q 51.90625 39.015625 51.90625 26.65625 
Q 51.90625 16.65625 48.90625 10.90625 
Q 45.90625 5.171875 40.15625 2 
Q 34.421875 -1.171875 27.640625 -1.171875 
Q 16.75 -1.171875 10.03125 5.8125 
Q 3.328125 12.796875 3.328125 25.921875 
z
M 12.359375 25.921875 
Q 12.359375 15.96875 16.703125 11.015625 
Q 21.046875 6.0625 27.640625 6.0625 
Q 34.1875 6.0625 38.53125 11.03125 
Q 42.875 16.015625 42.875 26.21875 
Q 42.875 35.84375 38.5 40.796875 
Q 34.125 45.75 27.640625 45.75 
Q 21.046875 45.75 16.703125 40.8125 
Q 12.359375 35.890625 12.359375 25.921875 
z
" id="ArialMT-111"/>
       <path d="M 40.4375 19 
L 49.078125 17.875 
Q 47.65625 8.9375 41.8125 3.875 
Q 35.984375 -1.171875 27.484375 -1.171875 
Q 16.84375 -1.171875 10.375 5.78125 
Q 3.90625 12.75 3.90625 25.734375 
Q 3.90625 34.125 6.6875 40.421875 
Q 9.46875 46.734375 15.15625 49.875 
Q 20.84375 53.03125 27.546875 53.03125 
Q 35.984375 53.03125 41.359375 48.75 
Q 46.734375 44.484375 48.25 36.625 
L 39.703125 35.296875 
Q 38.484375 40.53125 35.375 43.15625 
Q 32.28125 45.796875 27.875 45.796875 
Q 21.234375 45.796875 17.078125 41.03125 
Q 12.9375 36.28125 12.9375 25.984375 
Q 12.9375 15.53125 16.9375 10.796875 
Q 20.953125 6.0625 27.390625 6.0625 
Q 32.5625 6.0625 36.03125 9.234375 
Q 39.5 12.40625 40.4375 19 
z
" id="ArialMT-99"/>
       <path d="M 6.59375 0 
L 6.59375 71.578125 
L 15.375 71.578125 
L 15.375 45.90625 
Q 21.53125 53.03125 30.90625 53.03125 
Q 36.671875 53.03125 40.921875 50.75 
Q 45.171875 48.484375 47 44.484375 
Q 48.828125 40.484375 48.828125 32.859375 
L 48.828125 0 
L 40.046875 0 
L 40.046875 32.859375 
Q 40.046875 39.453125 37.1875 42.453125 
Q 34.328125 45.453125 29.109375 45.453125 
Q 25.203125 45.453125 21.75 43.421875 
Q 18.3125 41.40625 16.84375 37.9375 
Q 15.375 34.46875 15.375 28.375 
L 15.375 0 
z
" id="ArialMT-104"/>
      </defs>
      <use xlink:href="#ArialMT-101"/>
      <use x="55.615234" xlink:href="#ArialMT-112"/>
      <use x="111.230469" xlink:href="#ArialMT-111"/>
      <use x="166.845703" xlink:href="#ArialMT-99"/>
      <use x="216.845703" xlink:href="#ArialMT-104"/>
     </g>
    </g>
   </g>
   <g id="matplotlib.axis_2">
    <g id="ytick_1">
     <g id="line2d_10">
      <path clip-path="url(#pdd3cc84618)" d="M 44.028125 209.666298 
L 378.828125 209.666298 
" style="fill:none;stroke:#cccccc;stroke-linecap:round;stroke-width:0.8;"/>
     </g>
     <g id="text_11">
      <!-- 100 -->
      <g style="fill:#262626;" transform="translate(20.345313 213.245204)scale(0.1 -0.1)">
       <use xlink:href="#ArialMT-49"/>
       <use x="55.615234" xlink:href="#ArialMT-48"/>
       <use x="111.230469" xlink:href="#ArialMT-48"/>
      </g>
     </g>
    </g>
    <g id="ytick_2">
     <g id="line2d_11">
      <path clip-path="url(#pdd3cc84618)" d="M 44.028125 171.201313 
L 378.828125 171.201313 
" style="fill:none;stroke:#cccccc;stroke-linecap:round;stroke-width:0.8;"/>
     </g>
     <g id="text_12">
      <!-- 150 -->
      <g style="fill:#262626;" transform="translate(20.345313 174.780219)scale(0.1 -0.1)">
       <use xlink:href="#ArialMT-49"/>
       <use x="55.615234" xlink:href="#ArialMT-53"/>
       <use x="111.230469" xlink:href="#ArialMT-48"/>
      </g>
     </g>
    </g>
    <g id="ytick_3">
     <g id="line2d_12">
      <path clip-path="url(#pdd3cc84618)" d="M 44.028125 132.736328 
L 378.828125 132.736328 
" style="fill:none;stroke:#cccccc;stroke-linecap:round;stroke-width:0.8;"/>
     </g>
     <g id="text_13">
      <!-- 200 -->
      <g style="fill:#262626;" transform="translate(20.345313 136.315234)scale(0.1 -0.1)">
       <use xlink:href="#ArialMT-50"/>
       <use x="55.615234" xlink:href="#ArialMT-48"/>
       <use x="111.230469" xlink:href="#ArialMT-48"/>
      </g>
     </g>
    </g>
    <g id="ytick_4">
     <g id="line2d_13">
      <path clip-path="url(#pdd3cc84618)" d="M 44.028125 94.271343 
L 378.828125 94.271343 
" style="fill:none;stroke:#cccccc;stroke-linecap:round;stroke-width:0.8;"/>
     </g>
     <g id="text_14">
      <!-- 250 -->
      <g style="fill:#262626;" transform="translate(20.345313 97.850249)scale(0.1 -0.1)">
       <use xlink:href="#ArialMT-50"/>
       <use x="55.615234" xlink:href="#ArialMT-53"/>
       <use x="111.230469" xlink:href="#ArialMT-48"/>
      </g>
     </g>
    </g>
    <g id="ytick_5">
     <g id="line2d_14">
      <path clip-path="url(#pdd3cc84618)" d="M 44.028125 55.806358 
L 378.828125 55.806358 
" style="fill:none;stroke:#cccccc;stroke-linecap:round;stroke-width:0.8;"/>
     </g>
     <g id="text_15">
      <!-- 300 -->
      <g style="fill:#262626;" transform="translate(20.345313 59.385264)scale(0.1 -0.1)">
       <defs>
        <path d="M 4.203125 18.890625 
L 12.984375 20.0625 
Q 14.5 12.59375 18.140625 9.296875 
Q 21.78125 6 27 6 
Q 33.203125 6 37.46875 10.296875 
Q 41.75 14.59375 41.75 20.953125 
Q 41.75 27 37.796875 30.921875 
Q 33.84375 34.859375 27.734375 34.859375 
Q 25.25 34.859375 21.53125 33.890625 
L 22.515625 41.609375 
Q 23.390625 41.5 23.921875 41.5 
Q 29.546875 41.5 34.03125 44.421875 
Q 38.53125 47.359375 38.53125 53.46875 
Q 38.53125 58.296875 35.25 61.46875 
Q 31.984375 64.65625 26.8125 64.65625 
Q 21.6875 64.65625 18.265625 61.421875 
Q 14.84375 58.203125 13.875 51.765625 
L 5.078125 53.328125 
Q 6.6875 62.15625 12.390625 67.015625 
Q 18.109375 71.875 26.609375 71.875 
Q 32.46875 71.875 37.390625 69.359375 
Q 42.328125 66.84375 44.9375 62.5 
Q 47.5625 58.15625 47.5625 53.265625 
Q 47.5625 48.640625 45.0625 44.828125 
Q 42.578125 41.015625 37.703125 38.765625 
Q 44.046875 37.3125 47.5625 32.6875 
Q 51.078125 28.078125 51.078125 21.140625 
Q 51.078125 11.765625 44.234375 5.25 
Q 37.40625 -1.265625 26.953125 -1.265625 
Q 17.53125 -1.265625 11.296875 4.34375 
Q 5.078125 9.96875 4.203125 18.890625 
z
" id="ArialMT-51"/>
       </defs>
       <use xlink:href="#ArialMT-51"/>
       <use x="55.615234" xlink:href="#ArialMT-48"/>
       <use x="111.230469" xlink:href="#ArialMT-48"/>
      </g>
     </g>
    </g>
    <g id="text_16">
     <!-- value -->
     <g style="fill:#262626;" transform="translate(14.357813 142.607969)rotate(-90)scale(0.1 -0.1)">
      <defs>
       <path d="M 21 0 
L 1.265625 51.859375 
L 10.546875 51.859375 
L 21.6875 20.796875 
Q 23.484375 15.765625 25 10.359375 
Q 26.171875 14.453125 28.265625 20.21875 
L 39.796875 51.859375 
L 48.828125 51.859375 
L 29.203125 0 
z
" id="ArialMT-118"/>
       <path d="M 40.4375 6.390625 
Q 35.546875 2.25 31.03125 0.53125 
Q 26.515625 -1.171875 21.34375 -1.171875 
Q 12.796875 -1.171875 8.203125 3 
Q 3.609375 7.171875 3.609375 13.671875 
Q 3.609375 17.484375 5.34375 20.625 
Q 7.078125 23.78125 9.890625 25.6875 
Q 12.703125 27.59375 16.21875 28.5625 
Q 18.796875 29.25 24.03125 29.890625 
Q 34.671875 31.15625 39.703125 32.90625 
Q 39.75 34.71875 39.75 35.203125 
Q 39.75 40.578125 37.25 42.78125 
Q 33.890625 45.75 27.25 45.75 
Q 21.046875 45.75 18.09375 43.578125 
Q 15.140625 41.40625 13.71875 35.890625 
L 5.125 37.0625 
Q 6.296875 42.578125 8.984375 45.96875 
Q 11.671875 49.359375 16.75 51.1875 
Q 21.828125 53.03125 28.515625 53.03125 
Q 35.15625 53.03125 39.296875 51.46875 
Q 43.453125 49.90625 45.40625 47.53125 
Q 47.359375 45.171875 48.140625 41.546875 
Q 48.578125 39.3125 48.578125 33.453125 
L 48.578125 21.734375 
Q 48.578125 9.46875 49.140625 6.21875 
Q 49.703125 2.984375 51.375 0 
L 42.1875 0 
Q 40.828125 2.734375 40.4375 6.390625 
z
M 39.703125 26.03125 
Q 34.90625 24.078125 25.34375 22.703125 
Q 19.921875 21.921875 17.671875 20.9375 
Q 15.4375 19.96875 14.203125 18.09375 
Q 12.984375 16.21875 12.984375 13.921875 
Q 12.984375 10.40625 15.640625 8.0625 
Q 18.3125 5.71875 23.4375 5.71875 
Q 28.515625 5.71875 32.46875 7.9375 
Q 36.421875 10.15625 38.28125 14.015625 
Q 39.703125 17 39.703125 22.796875 
z
" id="ArialMT-97"/>
       <path d="M 6.390625 0 
L 6.390625 71.578125 
L 15.1875 71.578125 
L 15.1875 0 
z
" id="ArialMT-108"/>
       <path d="M 40.578125 0 
L 40.578125 7.625 
Q 34.515625 -1.171875 24.125 -1.171875 
Q 19.53125 -1.171875 15.546875 0.578125 
Q 11.578125 2.34375 9.640625 5 
Q 7.71875 7.671875 6.9375 11.53125 
Q 6.390625 14.109375 6.390625 19.734375 
L 6.390625 51.859375 
L 15.1875 51.859375 
L 15.1875 23.09375 
Q 15.1875 16.21875 15.71875 13.8125 
Q 16.546875 10.359375 19.234375 8.375 
Q 21.921875 6.390625 25.875 6.390625 
Q 29.828125 6.390625 33.296875 8.421875 
Q 36.765625 10.453125 38.203125 13.9375 
Q 39.65625 17.4375 39.65625 24.078125 
L 39.65625 51.859375 
L 48.4375 51.859375 
L 48.4375 0 
z
" id="ArialMT-117"/>
      </defs>
      <use xlink:href="#ArialMT-118"/>
      <use x="50" xlink:href="#ArialMT-97"/>
      <use x="105.615234" xlink:href="#ArialMT-108"/>
      <use x="127.832031" xlink:href="#ArialMT-117"/>
      <use x="183.447266" xlink:href="#ArialMT-101"/>
     </g>
    </g>
   </g>
   <g id="line2d_15">
    <path clip-path="url(#pdd3cc84618)" d="M 59.246307 31.819261 
L 62.305238 65.702741 
L 63.834703 85.365233 
L 65.364169 109.651879 
L 66.893634 138.055262 
L 68.4231 153.966638 
L 69.952565 161.282929 
L 71.482031 162.342086 
L 73.011496 162.919583 
L 74.540962 166.933597 
L 79.129358 193.092717 
L 80.658824 196.08572 
L 82.188289 191.533861 
L 83.717755 187.977209 
L 85.24722 187.526596 
L 86.776686 190.247155 
L 88.306151 194.711814 
L 89.835617 198.767519 
L 91.365083 198.577975 
L 92.894548 197.642309 
L 94.424014 198.27539 
L 95.953479 197.797253 
L 97.482945 199.312392 
L 99.01241 201.176124 
L 100.541876 202.647634 
L 102.071341 203.610394 
L 103.600807 202.921768 
L 105.130272 202.833694 
L 106.659738 202.928153 
L 109.718669 204.72735 
L 111.248134 206.222561 
L 112.7776 205.249628 
L 114.307065 204.471653 
L 115.836531 204.978752 
L 117.365996 206.670035 
L 118.895462 206.272377 
L 120.424927 208.056119 
L 121.954393 205.857858 
L 123.483858 204.672023 
L 125.013324 205.64018 
L 126.542789 206.132185 
L 128.072255 206.830234 
L 129.60172 208.431701 
L 131.131186 207.652635 
L 132.660651 208.606179 
L 134.190117 206.965481 
L 135.719582 209.343652 
L 137.249048 209.683021 
L 138.778513 208.93233 
L 140.307979 208.909123 
L 141.837444 208.621778 
L 143.36691 210.355169 
L 144.896375 209.975574 
L 146.425841 209.118899 
L 147.955306 208.540353 
L 149.484772 210.888993 
L 151.014237 210.577393 
L 154.073168 209.323594 
L 155.602634 207.334384 
L 157.132099 210.675455 
L 158.661565 211.441787 
L 160.19103 210.853064 
L 164.779427 210.439548 
L 166.308892 210.45514 
L 167.838358 210.770389 
L 169.367823 211.263461 
L 170.897289 210.502969 
L 172.426755 210.984228 
L 173.95622 211.301954 
L 175.485686 210.74607 
L 177.015151 207.892008 
L 178.544617 209.98326 
L 180.074082 210.870472 
L 181.603548 212.578091 
L 183.133013 212.193397 
L 184.662479 212.803242 
L 186.191944 213.055333 
L 187.72141 212.684009 
L 189.250875 212.544825 
L 190.780341 211.696612 
L 192.309806 212.077277 
L 193.839272 210.505779 
L 195.368737 210.849869 
L 196.898203 212.484016 
L 198.427668 213.598072 
L 199.957134 212.752905 
L 201.486599 213.098732 
L 203.016065 208.870484 
L 204.54553 210.052336 
L 206.074996 212.634182 
L 207.604461 211.969141 
L 209.133927 208.55979 
L 210.663392 213.555827 
L 212.192858 211.939742 
L 213.722323 212.469953 
L 215.251789 213.462018 
L 216.781254 212.988055 
L 218.31072 213.721226 
L 219.840185 213.166629 
L 221.369651 214.074454 
L 222.899116 215.687411 
L 224.428582 211.578909 
L 225.958047 210.491419 
L 227.487513 215.120439 
L 229.016978 214.998293 
L 230.546444 211.698046 
L 232.075909 214.136227 
L 233.605375 215.675138 
L 235.13484 210.948197 
L 236.664306 210.222886 
L 238.193771 209.748982 
L 239.723237 211.12609 
L 241.252702 214.35818 
L 242.782168 214.37074 
L 244.311633 210.285653 
L 245.841099 212.154983 
L 247.370564 215.099238 
L 248.90003 214.634917 
L 250.429495 211.438162 
L 251.958961 211.247896 
L 253.488427 213.97443 
L 255.017892 215.815278 
L 256.547358 214.647551 
L 258.076823 214.088917 
L 259.606289 215.401404 
L 261.135754 216.081076 
L 262.66522 214.826079 
L 265.724151 215.368357 
L 267.253616 216.074734 
L 268.783082 215.461246 
L 270.312547 215.811576 
L 271.842013 215.683357 
L 273.371478 214.822702 
L 274.900944 214.889376 
L 276.430409 215.980924 
L 277.959875 215.451085 
L 279.48934 213.421485 
L 281.018806 217.223151 
L 282.548271 215.011377 
L 284.077737 214.69614 
L 285.607202 216.657319 
L 287.136668 215.96873 
L 288.666133 216.647757 
L 290.195599 216.870536 
L 291.725064 208.384871 
L 293.25453 205.026923 
L 294.783995 213.544391 
L 296.313461 212.695044 
L 297.842926 210.194547 
L 299.372392 210.005144 
L 300.901857 216.301393 
L 302.431323 213.465883 
L 303.960788 207.453044 
L 305.490254 207.861933 
L 307.019719 214.118399 
L 308.549185 216.240801 
L 310.07865 213.553663 
L 311.608116 208.604364 
L 313.137581 214.163344 
L 314.667047 215.792449 
L 316.196512 216.502871 
L 317.725978 213.671489 
L 319.255443 214.189283 
L 320.784909 213.810028 
L 322.314374 216.030524 
L 323.84384 215.583528 
L 325.373305 213.884073 
L 326.902771 213.794162 
L 328.432236 215.968427 
L 329.961702 217.301394 
L 331.491167 214.363366 
L 333.020633 210.393806 
L 336.079564 217.07587 
L 337.60903 217.07515 
L 339.138495 215.658844 
L 340.667961 213.574492 
L 342.197426 215.548333 
L 343.726892 216.298302 
L 345.256357 216.197282 
L 346.785823 215.401023 
L 348.315288 214.419095 
L 349.844754 215.612118 
L 351.374219 216.251109 
L 352.903685 216.058901 
L 354.43315 216.647374 
L 355.962616 216.00323 
L 357.492081 218.08251 
L 359.021547 215.360092 
L 360.551012 216.570345 
L 362.080478 216.461915 
L 363.609943 215.288083 
L 363.609943 215.288083 
" style="fill:none;stroke:#1f77b4;stroke-linecap:round;stroke-width:1.5;"/>
   </g>
   <g id="line2d_16">
    <path clip-path="url(#pdd3cc84618)" d="M 59.246307 77.117253 
L 60.775772 94.010234 
L 62.305238 113.292169 
L 63.834703 134.860061 
L 65.364169 159.734325 
L 66.893634 188.643205 
L 68.4231 200.819903 
L 69.952565 201.109816 
L 71.482031 202.338519 
L 73.011496 200.569867 
L 74.540962 207.223663 
L 76.070427 209.102224 
L 77.599893 209.668542 
L 79.129358 204.965075 
L 80.658824 199.213209 
L 82.188289 196.852181 
L 83.717755 196.322042 
L 85.24722 200.057223 
L 89.835617 216.376569 
L 91.365083 218.415497 
L 92.894548 219.828363 
L 94.424014 219.833328 
L 95.953479 220.031487 
L 97.482945 219.014609 
L 99.01241 218.1928 
L 100.541876 216.342147 
L 102.071341 215.111205 
L 105.130272 215.768115 
L 106.659738 219.462842 
L 108.189203 220.873575 
L 109.718669 221.296825 
L 112.7776 225.686655 
L 114.307065 225.343607 
L 117.365996 221.373489 
L 118.895462 224.105978 
L 120.424927 223.499271 
L 121.954393 220.552918 
L 123.483858 217.950175 
L 125.013324 218.325821 
L 126.542789 217.821696 
L 128.072255 220.02515 
L 129.60172 221.938708 
L 131.131186 223.195146 
L 132.660651 221.483133 
L 134.190117 223.820628 
L 135.719582 220.81283 
L 137.249048 221.410796 
L 138.778513 220.797917 
L 140.307979 222.480318 
L 141.837444 223.262484 
L 143.36691 220.199241 
L 144.896375 221.368395 
L 146.425841 224.068697 
L 147.955306 225.211761 
L 149.484772 220.411934 
L 151.014237 218.189182 
L 152.543703 221.898175 
L 154.073168 222.095602 
L 155.602634 225.43149 
L 157.132099 222.396643 
L 158.661565 223.282446 
L 160.19103 224.765287 
L 161.720496 223.551892 
L 163.249961 224.314893 
L 164.779427 219.870984 
L 166.308892 223.404365 
L 167.838358 220.466202 
L 169.367823 220.75406 
L 170.897289 222.291038 
L 172.426755 225.372642 
L 173.95622 221.461629 
L 175.485686 221.479852 
L 177.015151 221.124124 
L 178.544617 223.859821 
L 180.074082 223.824401 
L 181.603548 223.331568 
L 183.133013 221.496804 
L 184.662479 220.911885 
L 186.191944 223.658477 
L 187.72141 223.007954 
L 189.250875 222.685067 
L 190.780341 223.856455 
L 192.309806 222.374906 
L 193.839272 223.302087 
L 195.368737 223.813195 
L 196.898203 226.270076 
L 198.427668 225.012063 
L 199.957134 224.887943 
L 201.486599 207.85789 
L 203.016065 208.871068 
L 204.54553 213.463676 
L 206.074996 225.051342 
L 207.604461 223.628355 
L 209.133927 224.554435 
L 212.192858 211.631859 
L 213.722323 217.270965 
L 215.251789 222.365409 
L 216.781254 223.437927 
L 218.31072 217.465366 
L 219.840185 218.39268 
L 221.369651 221.609149 
L 222.899116 225.756833 
L 224.428582 223.37405 
L 225.958047 222.550926 
L 229.016978 214.008602 
L 230.546444 216.263838 
L 232.075909 220.801592 
L 233.605375 221.341217 
L 235.13484 216.902806 
L 236.664306 214.659636 
L 238.193771 212.899923 
L 239.723237 217.949569 
L 241.252702 223.831975 
L 242.782168 226.853828 
L 244.311633 227.915697 
L 245.841099 224.618306 
L 247.370564 215.444892 
L 248.90003 213.061082 
L 250.429495 217.520998 
L 251.958961 223.548091 
L 253.488427 227.521783 
L 255.017892 219.88214 
L 256.547358 214.729973 
L 258.076823 220.223957 
L 259.606289 219.200947 
L 261.135754 217.90149 
L 262.66522 220.794426 
L 264.194685 221.845973 
L 265.724151 221.48422 
L 267.253616 221.421805 
L 268.783082 215.83384 
L 270.312547 218.745779 
L 271.842013 220.887882 
L 273.371478 224.789495 
L 274.900944 222.995601 
L 276.430409 215.41022 
L 277.959875 214.05976 
L 279.48934 218.864428 
L 281.018806 226.865396 
L 282.548271 224.005747 
L 284.077737 218.543629 
L 285.607202 211.937136 
L 287.136668 216.972455 
L 288.666133 218.820782 
L 290.195599 229.491989 
L 291.725064 229.301838 
L 293.25453 221.187037 
L 294.783995 211.845368 
L 296.313461 203.542853 
L 297.842926 206.654853 
L 300.901857 225.044587 
L 302.431323 223.200056 
L 303.960788 225.051443 
L 305.490254 224.912816 
L 307.019719 214.96778 
L 308.549185 210.602106 
L 310.07865 207.302097 
L 311.608116 212.411511 
L 313.137581 218.450365 
L 314.667047 223.806796 
L 316.196512 226.510047 
L 317.725978 226.304777 
L 319.255443 225.504573 
L 320.784909 222.949199 
L 322.314374 215.04356 
L 323.84384 214.421418 
L 325.373305 213.469136 
L 326.902771 219.870375 
L 328.432236 220.214679 
L 329.961702 225.980988 
L 331.491167 226.048285 
L 333.020633 225.523853 
L 334.550099 223.818784 
L 336.079564 215.030635 
L 337.60903 212.653706 
L 339.138495 210.022725 
L 340.667961 216.176523 
L 342.197426 219.839578 
L 343.726892 225.309546 
L 345.256357 221.897017 
L 346.785823 218.013824 
L 348.315288 215.369329 
L 349.844754 219.697694 
L 351.374219 215.519063 
L 352.903685 215.992471 
L 354.43315 214.239359 
L 355.962616 216.391313 
L 357.492081 220.321034 
L 359.021547 220.795058 
L 360.551012 226.629394 
L 362.080478 226.76328 
L 363.609943 220.296935 
L 363.609943 220.296935 
" style="fill:none;stroke:#ff7f0e;stroke-linecap:round;stroke-width:1.5;"/>
   </g>
   <g id="line2d_17">
    <path clip-path="url(#pdd3cc84618)" d="M 59.246307 68.298925 
L 62.305238 102.134459 
L 63.834703 122.02337 
L 66.893634 168.769352 
L 68.4231 177.569499 
L 69.952565 178.479861 
L 71.482031 181.637413 
L 73.011496 186.67995 
L 74.540962 193.113224 
L 76.070427 200.481063 
L 77.599893 204.304203 
L 79.129358 201.940429 
L 80.658824 196.894464 
L 82.188289 192.442266 
L 83.717755 192.211801 
L 85.24722 195.110895 
L 86.776686 200.394443 
L 88.306151 206.337422 
L 89.835617 210.49679 
L 91.365083 211.116265 
L 92.894548 210.536612 
L 94.424014 209.053243 
L 97.482945 209.518847 
L 99.01241 211.350245 
L 100.541876 211.315668 
L 102.071341 209.778379 
L 103.600807 210.081888 
L 106.659738 212.721444 
L 108.189203 212.722345 
L 109.718669 210.718162 
L 111.248134 212.540704 
L 112.7776 212.168075 
L 114.307065 212.48402 
L 115.836531 212.019901 
L 117.365996 212.352412 
L 118.895462 214.368366 
L 120.424927 215.2341 
L 121.954393 214.139508 
L 123.483858 212.536834 
L 125.013324 211.75836 
L 126.542789 213.541827 
L 128.072255 214.817463 
L 129.60172 215.041733 
L 131.131186 212.96506 
L 132.660651 212.870553 
L 134.190117 214.717774 
L 135.719582 214.220912 
L 137.249048 215.17046 
L 138.778513 214.02144 
L 140.307979 215.721072 
L 141.837444 215.06984 
L 143.36691 213.622735 
L 144.896375 212.3396 
L 146.425841 215.18968 
L 147.955306 216.929481 
L 149.484772 214.470967 
L 151.014237 213.08838 
L 152.543703 215.841137 
L 154.073168 213.565445 
L 155.602634 216.567135 
L 157.132099 214.293693 
L 158.661565 214.035982 
L 160.19103 213.962886 
L 161.720496 216.290974 
L 163.249961 215.736778 
L 164.779427 214.675658 
L 166.308892 213.211139 
L 167.838358 215.416645 
L 169.367823 216.375733 
L 170.897289 216.640196 
L 172.426755 216.144438 
L 173.95622 212.174432 
L 175.485686 210.178879 
L 178.544617 215.350992 
L 180.074082 216.782109 
L 181.603548 215.3636 
L 183.133013 214.936621 
L 184.662479 216.136213 
L 186.191944 216.043982 
L 187.72141 217.150196 
L 189.250875 214.737876 
L 190.780341 215.570231 
L 192.309806 215.618336 
L 193.839272 214.830569 
L 195.368737 214.551272 
L 196.898203 217.702091 
L 198.427668 218.023939 
L 199.957134 216.657419 
L 201.486599 213.682492 
L 203.016065 209.803252 
L 206.074996 220.170522 
L 207.604461 217.408726 
L 209.133927 218.950606 
L 210.663392 212.695692 
L 212.192858 211.490497 
L 213.722323 212.80852 
L 215.251789 216.282711 
L 216.781254 219.312626 
L 218.31072 214.70815 
L 219.840185 211.782919 
L 222.899116 218.257811 
L 224.428582 218.213417 
L 225.958047 218.570343 
L 227.487513 215.261155 
L 229.016978 208.765047 
L 230.546444 212.65747 
L 232.075909 217.636072 
L 233.605375 216.182932 
L 235.13484 212.909264 
L 236.664306 210.921302 
L 238.193771 213.662972 
L 239.723237 211.573494 
L 241.252702 214.446404 
L 242.782168 213.251071 
L 244.311633 216.800945 
L 245.841099 217.369661 
L 247.370564 214.207029 
L 248.90003 214.868531 
L 250.429495 217.730209 
L 251.958961 218.208615 
L 253.488427 220.672015 
L 255.017892 215.132751 
L 256.547358 215.679859 
L 258.076823 216.709055 
L 259.606289 218.066231 
L 261.135754 216.327927 
L 262.66522 216.595395 
L 264.194685 215.20291 
L 265.724151 214.602998 
L 267.253616 212.827302 
L 268.783082 215.146311 
L 270.312547 215.450125 
L 271.842013 216.82095 
L 273.371478 221.493178 
L 274.900944 219.811857 
L 276.430409 214.707214 
L 277.959875 212.562762 
L 279.48934 217.397751 
L 281.018806 219.348595 
L 282.548271 220.49273 
L 284.077737 216.11592 
L 285.607202 217.344772 
L 287.136668 218.042715 
L 288.666133 217.909305 
L 290.195599 215.9855 
L 291.725064 221.000213 
L 293.25453 219.860043 
L 294.783995 212.947738 
L 296.313461 212.776234 
L 297.842926 211.123778 
L 299.372392 213.630666 
L 300.901857 215.722239 
L 302.431323 213.855717 
L 303.960788 214.60741 
L 305.490254 220.057099 
L 307.019719 213.986206 
L 308.549185 210.451975 
L 310.07865 211.55117 
L 311.608116 213.918511 
L 313.137581 216.506151 
L 314.667047 217.448552 
L 316.196512 217.700405 
L 317.725978 217.347676 
L 319.255443 216.842738 
L 320.784909 217.727027 
L 322.314374 215.705241 
L 325.373305 212.911512 
L 326.902771 215.993344 
L 328.432236 218.53706 
L 329.961702 219.942345 
L 331.491167 214.61635 
L 333.020633 218.205088 
L 334.550099 216.806414 
L 336.079564 214.866811 
L 337.60903 212.103367 
L 339.138495 211.792927 
L 340.667961 213.660933 
L 342.197426 217.035419 
L 343.726892 217.442695 
L 345.256357 217.228477 
L 346.785823 213.297192 
L 348.315288 213.973218 
L 349.844754 215.192079 
L 351.374219 215.511756 
L 352.903685 214.783386 
L 354.43315 213.402574 
L 355.962616 213.969174 
L 357.492081 213.814872 
L 359.021547 217.244536 
L 360.551012 219.927068 
L 362.080478 217.03905 
L 363.609943 217.218257 
L 363.609943 217.218257 
" style="fill:none;stroke:#2ca02c;stroke-linecap:round;stroke-width:1.5;"/>
   </g>
   <g id="line2d_18"/>
   <g id="line2d_19"/>
   <g id="line2d_20"/>
   <g id="patch_3">
    <path d="M 44.028125 239.375625 
L 44.028125 21.935625 
" style="fill:none;stroke:#cccccc;stroke-linecap:square;stroke-linejoin:miter;stroke-width:0.8;"/>
   </g>
   <g id="patch_4">
    <path d="M 378.828125 239.375625 
L 378.828125 21.935625 
" style="fill:none;stroke:#cccccc;stroke-linecap:square;stroke-linejoin:miter;stroke-width:0.8;"/>
   </g>
   <g id="patch_5">
    <path d="M 44.028125 239.375625 
L 378.828125 239.375625 
" style="fill:none;stroke:#cccccc;stroke-linecap:square;stroke-linejoin:miter;stroke-width:0.8;"/>
   </g>
   <g id="patch_6">
    <path d="M 44.028125 21.935625 
L 378.828125 21.935625 
" style="fill:none;stroke:#cccccc;stroke-linecap:square;stroke-linejoin:miter;stroke-width:0.8;"/>
   </g>
   <g id="text_17">
    <!-- Train-val-test loss/epoch -->
    <g style="fill:#262626;" transform="translate(146.299063 15.935625)scale(0.12 -0.12)">
     <defs>
      <path d="M 25.921875 0 
L 25.921875 63.140625 
L 2.34375 63.140625 
L 2.34375 71.578125 
L 59.078125 71.578125 
L 59.078125 63.140625 
L 35.40625 63.140625 
L 35.40625 0 
z
" id="ArialMT-84"/>
      <path d="M 6.5 0 
L 6.5 51.859375 
L 14.40625 51.859375 
L 14.40625 44 
Q 17.4375 49.515625 20 51.265625 
Q 22.5625 53.03125 25.640625 53.03125 
Q 30.078125 53.03125 34.671875 50.203125 
L 31.640625 42.046875 
Q 28.421875 43.953125 25.203125 43.953125 
Q 22.3125 43.953125 20.015625 42.21875 
Q 17.71875 40.484375 16.75 37.40625 
Q 15.28125 32.71875 15.28125 27.15625 
L 15.28125 0 
z
" id="ArialMT-114"/>
      <path d="M 6.640625 61.46875 
L 6.640625 71.578125 
L 15.4375 71.578125 
L 15.4375 61.46875 
z
M 6.640625 0 
L 6.640625 51.859375 
L 15.4375 51.859375 
L 15.4375 0 
z
" id="ArialMT-105"/>
      <path d="M 6.59375 0 
L 6.59375 51.859375 
L 14.5 51.859375 
L 14.5 44.484375 
Q 20.21875 53.03125 31 53.03125 
Q 35.6875 53.03125 39.625 51.34375 
Q 43.5625 49.65625 45.515625 46.921875 
Q 47.46875 44.1875 48.25 40.4375 
Q 48.734375 37.984375 48.734375 31.890625 
L 48.734375 0 
L 39.9375 0 
L 39.9375 31.546875 
Q 39.9375 36.921875 38.90625 39.578125 
Q 37.890625 42.234375 35.28125 43.8125 
Q 32.671875 45.40625 29.15625 45.40625 
Q 23.53125 45.40625 19.453125 41.84375 
Q 15.375 38.28125 15.375 28.328125 
L 15.375 0 
z
" id="ArialMT-110"/>
      <path d="M 3.171875 21.484375 
L 3.171875 30.328125 
L 30.171875 30.328125 
L 30.171875 21.484375 
z
" id="ArialMT-45"/>
      <path d="M 25.78125 7.859375 
L 27.046875 0.09375 
Q 23.34375 -0.6875 20.40625 -0.6875 
Q 15.625 -0.6875 12.984375 0.828125 
Q 10.359375 2.34375 9.28125 4.8125 
Q 8.203125 7.28125 8.203125 15.1875 
L 8.203125 45.015625 
L 1.765625 45.015625 
L 1.765625 51.859375 
L 8.203125 51.859375 
L 8.203125 64.703125 
L 16.9375 69.96875 
L 16.9375 51.859375 
L 25.78125 51.859375 
L 25.78125 45.015625 
L 16.9375 45.015625 
L 16.9375 14.703125 
Q 16.9375 10.9375 17.40625 9.859375 
Q 17.875 8.796875 18.921875 8.15625 
Q 19.96875 7.515625 21.921875 7.515625 
Q 23.390625 7.515625 25.78125 7.859375 
z
" id="ArialMT-116"/>
      <path d="M 3.078125 15.484375 
L 11.765625 16.84375 
Q 12.5 11.625 15.84375 8.84375 
Q 19.1875 6.0625 25.203125 6.0625 
Q 31.25 6.0625 34.171875 8.515625 
Q 37.109375 10.984375 37.109375 14.3125 
Q 37.109375 17.28125 34.515625 19 
Q 32.71875 20.171875 25.53125 21.96875 
Q 15.875 24.421875 12.140625 26.203125 
Q 8.40625 27.984375 6.46875 31.125 
Q 4.546875 34.28125 4.546875 38.09375 
Q 4.546875 41.546875 6.125 44.5 
Q 7.71875 47.46875 10.453125 49.421875 
Q 12.5 50.921875 16.03125 51.96875 
Q 19.578125 53.03125 23.640625 53.03125 
Q 29.734375 53.03125 34.34375 51.265625 
Q 38.96875 49.515625 41.15625 46.5 
Q 43.359375 43.5 44.1875 38.484375 
L 35.59375 37.3125 
Q 35.015625 41.3125 32.203125 43.546875 
Q 29.390625 45.796875 24.265625 45.796875 
Q 18.21875 45.796875 15.625 43.796875 
Q 13.03125 41.796875 13.03125 39.109375 
Q 13.03125 37.40625 14.109375 36.03125 
Q 15.1875 34.625 17.484375 33.6875 
Q 18.796875 33.203125 25.25 31.453125 
Q 34.578125 28.953125 38.25 27.359375 
Q 41.9375 25.78125 44.03125 22.75 
Q 46.140625 19.734375 46.140625 15.234375 
Q 46.140625 10.84375 43.578125 6.953125 
Q 41.015625 3.078125 36.171875 0.953125 
Q 31.34375 -1.171875 25.25 -1.171875 
Q 15.140625 -1.171875 9.84375 3.03125 
Q 4.546875 7.234375 3.078125 15.484375 
z
" id="ArialMT-115"/>
      <path id="ArialMT-32"/>
      <path d="M 0 -1.21875 
L 20.75 72.796875 
L 27.78125 72.796875 
L 7.078125 -1.21875 
z
" id="ArialMT-47"/>
     </defs>
     <use xlink:href="#ArialMT-84"/>
     <use x="57.333984" xlink:href="#ArialMT-114"/>
     <use x="90.634766" xlink:href="#ArialMT-97"/>
     <use x="146.25" xlink:href="#ArialMT-105"/>
     <use x="168.466797" xlink:href="#ArialMT-110"/>
     <use x="224.082031" xlink:href="#ArialMT-45"/>
     <use x="257.382812" xlink:href="#ArialMT-118"/>
     <use x="307.382812" xlink:href="#ArialMT-97"/>
     <use x="362.998047" xlink:href="#ArialMT-108"/>
     <use x="385.214844" xlink:href="#ArialMT-45"/>
     <use x="418.515625" xlink:href="#ArialMT-116"/>
     <use x="446.298828" xlink:href="#ArialMT-101"/>
     <use x="501.914062" xlink:href="#ArialMT-115"/>
     <use x="551.914062" xlink:href="#ArialMT-116"/>
     <use x="579.697266" xlink:href="#ArialMT-32"/>
     <use x="607.480469" xlink:href="#ArialMT-108"/>
     <use x="629.697266" xlink:href="#ArialMT-111"/>
     <use x="685.3125" xlink:href="#ArialMT-115"/>
     <use x="735.3125" xlink:href="#ArialMT-115"/>
     <use x="785.3125" xlink:href="#ArialMT-47"/>
     <use x="813.095703" xlink:href="#ArialMT-101"/>
     <use x="868.710938" xlink:href="#ArialMT-112"/>
     <use x="924.326172" xlink:href="#ArialMT-111"/>
     <use x="979.941406" xlink:href="#ArialMT-99"/>
     <use x="1029.941406" xlink:href="#ArialMT-104"/>
    </g>
   </g>
   <g id="legend_1">
    <g id="patch_7">
     <path d="M 297.032813 86.516875 
L 371.828125 86.516875 
Q 373.828125 86.516875 373.828125 84.516875 
L 373.828125 28.935625 
Q 373.828125 26.935625 371.828125 26.935625 
L 297.032813 26.935625 
Q 295.032813 26.935625 295.032813 28.935625 
L 295.032813 84.516875 
Q 295.032813 86.516875 297.032813 86.516875 
z
" style="fill:#ffffff;opacity:0.8;stroke:#cccccc;stroke-linejoin:miter;"/>
    </g>
    <g id="text_18">
     <!-- variable -->
     <g style="fill:#262626;" transform="translate(316.921875 38.093437)scale(0.1 -0.1)">
      <defs>
       <path d="M 14.703125 0 
L 6.546875 0 
L 6.546875 71.578125 
L 15.328125 71.578125 
L 15.328125 46.046875 
Q 20.90625 53.03125 29.546875 53.03125 
Q 34.328125 53.03125 38.59375 51.09375 
Q 42.875 49.171875 45.625 45.671875 
Q 48.390625 42.1875 49.953125 37.25 
Q 51.515625 32.328125 51.515625 26.703125 
Q 51.515625 13.375 44.921875 6.09375 
Q 38.328125 -1.171875 29.109375 -1.171875 
Q 19.921875 -1.171875 14.703125 6.5 
z
M 14.59375 26.3125 
Q 14.59375 17 17.140625 12.84375 
Q 21.296875 6.0625 28.375 6.0625 
Q 34.125 6.0625 38.328125 11.0625 
Q 42.53125 16.0625 42.53125 25.984375 
Q 42.53125 36.140625 38.5 40.96875 
Q 34.46875 45.796875 28.765625 45.796875 
Q 23 45.796875 18.796875 40.796875 
Q 14.59375 35.796875 14.59375 26.3125 
z
" id="ArialMT-98"/>
      </defs>
      <use xlink:href="#ArialMT-118"/>
      <use x="50" xlink:href="#ArialMT-97"/>
      <use x="105.615234" xlink:href="#ArialMT-114"/>
      <use x="138.916016" xlink:href="#ArialMT-105"/>
      <use x="161.132812" xlink:href="#ArialMT-97"/>
      <use x="216.748047" xlink:href="#ArialMT-98"/>
      <use x="272.363281" xlink:href="#ArialMT-108"/>
      <use x="294.580078" xlink:href="#ArialMT-101"/>
     </g>
    </g>
    <g id="line2d_21">
     <path d="M 299.032813 48.73875 
L 319.032813 48.73875 
" style="fill:none;stroke:#1f77b4;stroke-linecap:round;stroke-width:1.5;"/>
    </g>
    <g id="line2d_22"/>
    <g id="text_19">
     <!-- train_loss -->
     <g style="fill:#262626;" transform="translate(327.032813 52.23875)scale(0.1 -0.1)">
      <defs>
       <path d="M -1.515625 -19.875 
L -1.515625 -13.53125 
L 56.734375 -13.53125 
L 56.734375 -19.875 
z
" id="ArialMT-95"/>
      </defs>
      <use xlink:href="#ArialMT-116"/>
      <use x="27.783203" xlink:href="#ArialMT-114"/>
      <use x="61.083984" xlink:href="#ArialMT-97"/>
      <use x="116.699219" xlink:href="#ArialMT-105"/>
      <use x="138.916016" xlink:href="#ArialMT-110"/>
      <use x="194.53125" xlink:href="#ArialMT-95"/>
      <use x="250.146484" xlink:href="#ArialMT-108"/>
      <use x="272.363281" xlink:href="#ArialMT-111"/>
      <use x="327.978516" xlink:href="#ArialMT-115"/>
      <use x="377.978516" xlink:href="#ArialMT-115"/>
     </g>
    </g>
    <g id="line2d_23">
     <path d="M 299.032813 62.884062 
L 319.032813 62.884062 
" style="fill:none;stroke:#ff7f0e;stroke-linecap:round;stroke-width:1.5;"/>
    </g>
    <g id="line2d_24"/>
    <g id="text_20">
     <!-- val_loss -->
     <g style="fill:#262626;" transform="translate(327.032813 66.384062)scale(0.1 -0.1)">
      <use xlink:href="#ArialMT-118"/>
      <use x="50" xlink:href="#ArialMT-97"/>
      <use x="105.615234" xlink:href="#ArialMT-108"/>
      <use x="127.832031" xlink:href="#ArialMT-95"/>
      <use x="183.447266" xlink:href="#ArialMT-108"/>
      <use x="205.664062" xlink:href="#ArialMT-111"/>
      <use x="261.279297" xlink:href="#ArialMT-115"/>
      <use x="311.279297" xlink:href="#ArialMT-115"/>
     </g>
    </g>
    <g id="line2d_25">
     <path d="M 299.032813 77.029375 
L 319.032813 77.029375 
" style="fill:none;stroke:#2ca02c;stroke-linecap:round;stroke-width:1.5;"/>
    </g>
    <g id="line2d_26"/>
    <g id="text_21">
     <!-- test_loss -->
     <g style="fill:#262626;" transform="translate(327.032813 80.529375)scale(0.1 -0.1)">
      <use xlink:href="#ArialMT-116"/>
      <use x="27.783203" xlink:href="#ArialMT-101"/>
      <use x="83.398438" xlink:href="#ArialMT-115"/>
      <use x="133.398438" xlink:href="#ArialMT-116"/>
      <use x="161.181641" xlink:href="#ArialMT-95"/>
      <use x="216.796875" xlink:href="#ArialMT-108"/>
      <use x="239.013672" xlink:href="#ArialMT-111"/>
      <use x="294.628906" xlink:href="#ArialMT-115"/>
      <use x="344.628906" xlink:href="#ArialMT-115"/>
     </g>
    </g>
   </g>
  </g>
 </g>
 <defs>
  <clipPath id="pdd3cc84618">
   <rect height="217.44" width="334.8" x="44.028125" y="21.935625"/>
  </clipPath>
 </defs>
</svg>
