<?xml version="1.0" encoding="utf-8" standalone="no"?>
<!DOCTYPE svg PUBLIC "-//W3C//DTD SVG 1.1//EN"
  "http://www.w3.org/Graphics/SVG/1.1/DTD/svg11.dtd">
<!-- Created with matplotlib (https://matplotlib.org/) -->
<svg height="275.86625pt" version="1.1" viewBox="0 0 386.028125 275.86625" width="386.028125pt" xmlns="http://www.w3.org/2000/svg" xmlns:xlink="http://www.w3.org/1999/xlink">
 <metadata>
  <rdf:RDF xmlns:cc="http://creativecommons.org/ns#" xmlns:dc="http://purl.org/dc/elements/1.1/" xmlns:rdf="http://www.w3.org/1999/02/22-rdf-syntax-ns#">
   <cc:Work>
    <dc:type rdf:resource="http://purl.org/dc/dcmitype/StillImage"/>
    <dc:date>2022-07-27T11:36:40.344704</dc:date>
    <dc:format>image/svg+xml</dc:format>
    <dc:creator>
     <cc:Agent>
      <dc:title>Matplotlib v3.3.2, https://matplotlib.org/</dc:title>
     </cc:Agent>
    </dc:creator>
   </cc:Work>
  </rdf:RDF>
 </metadata>
 <defs>
  <style type="text/css">*{stroke-linecap:butt;stroke-linejoin:round;}</style>
 </defs>
 <g id="figure_1">
  <g id="patch_1">
   <path d="M 0 275.86625 
L 386.028125 275.86625 
L 386.028125 0 
L 0 0 
z
" style="fill:#ffffff;"/>
  </g>
  <g id="axes_1">
   <g id="patch_2">
    <path d="M 44.028125 239.375625 
L 378.828125 239.375625 
L 378.828125 21.935625 
L 44.028125 21.935625 
z
" style="fill:#ffffff;"/>
   </g>
   <g id="matplotlib.axis_1">
    <g id="xtick_1">
     <g id="line2d_1">
      <path clip-path="url(#pcd65467cbc)" d="M 59.246307 239.375625 
L 59.246307 21.935625 
" style="fill:none;stroke:#cccccc;stroke-linecap:round;stroke-width:0.8;"/>
     </g>
     <g id="text_1">
      <!-- 0 -->
      <g style="fill:#262626;" transform="translate(56.465838 253.533437)scale(0.1 -0.1)">
       <defs>
        <path d="M 4.15625 35.296875 
Q 4.15625 48 6.765625 55.734375 
Q 9.375 63.484375 14.515625 67.671875 
Q 19.671875 71.875 27.484375 71.875 
Q 33.25 71.875 37.59375 69.546875 
Q 41.9375 67.234375 44.765625 62.859375 
Q 47.609375 58.5 49.21875 52.21875 
Q 50.828125 45.953125 50.828125 35.296875 
Q 50.828125 22.703125 48.234375 14.96875 
Q 45.65625 7.234375 40.5 3 
Q 35.359375 -1.21875 27.484375 -1.21875 
Q 17.140625 -1.21875 11.234375 6.203125 
Q 4.15625 15.140625 4.15625 35.296875 
z
M 13.1875 35.296875 
Q 13.1875 17.671875 17.3125 11.828125 
Q 21.4375 6 27.484375 6 
Q 33.546875 6 37.671875 11.859375 
Q 41.796875 17.71875 41.796875 35.296875 
Q 41.796875 52.984375 37.671875 58.78125 
Q 33.546875 64.59375 27.390625 64.59375 
Q 21.34375 64.59375 17.71875 59.46875 
Q 13.1875 52.9375 13.1875 35.296875 
z
" id="ArialMT-48"/>
       </defs>
       <use xlink:href="#ArialMT-48"/>
      </g>
     </g>
    </g>
    <g id="xtick_2">
     <g id="line2d_2">
      <path clip-path="url(#pcd65467cbc)" d="M 97.482945 239.375625 
L 97.482945 21.935625 
" style="fill:none;stroke:#cccccc;stroke-linecap:round;stroke-width:0.8;"/>
     </g>
     <g id="text_2">
      <!-- 25 -->
      <g style="fill:#262626;" transform="translate(91.922007 253.533437)scale(0.1 -0.1)">
       <defs>
        <path d="M 50.34375 8.453125 
L 50.34375 0 
L 3.03125 0 
Q 2.9375 3.171875 4.046875 6.109375 
Q 5.859375 10.9375 9.828125 15.625 
Q 13.8125 20.3125 21.34375 26.46875 
Q 33.015625 36.03125 37.109375 41.625 
Q 41.21875 47.21875 41.21875 52.203125 
Q 41.21875 57.421875 37.46875 61 
Q 33.734375 64.59375 27.734375 64.59375 
Q 21.390625 64.59375 17.578125 60.78125 
Q 13.765625 56.984375 13.71875 50.25 
L 4.6875 51.171875 
Q 5.609375 61.28125 11.65625 66.578125 
Q 17.71875 71.875 27.9375 71.875 
Q 38.234375 71.875 44.234375 66.15625 
Q 50.25 60.453125 50.25 52 
Q 50.25 47.703125 48.484375 43.546875 
Q 46.734375 39.40625 42.65625 34.8125 
Q 38.578125 30.21875 29.109375 22.21875 
Q 21.1875 15.578125 18.9375 13.203125 
Q 16.703125 10.84375 15.234375 8.453125 
z
" id="ArialMT-50"/>
        <path d="M 4.15625 18.75 
L 13.375 19.53125 
Q 14.40625 12.796875 18.140625 9.390625 
Q 21.875 6 27.15625 6 
Q 33.5 6 37.890625 10.78125 
Q 42.28125 15.578125 42.28125 23.484375 
Q 42.28125 31 38.0625 35.34375 
Q 33.84375 39.703125 27 39.703125 
Q 22.75 39.703125 19.328125 37.765625 
Q 15.921875 35.84375 13.96875 32.765625 
L 5.71875 33.84375 
L 12.640625 70.609375 
L 48.25 70.609375 
L 48.25 62.203125 
L 19.671875 62.203125 
L 15.828125 42.96875 
Q 22.265625 47.46875 29.34375 47.46875 
Q 38.71875 47.46875 45.15625 40.96875 
Q 51.609375 34.46875 51.609375 24.265625 
Q 51.609375 14.546875 45.953125 7.46875 
Q 39.0625 -1.21875 27.15625 -1.21875 
Q 17.390625 -1.21875 11.203125 4.25 
Q 5.03125 9.71875 4.15625 18.75 
z
" id="ArialMT-53"/>
       </defs>
       <use xlink:href="#ArialMT-50"/>
       <use x="55.615234" xlink:href="#ArialMT-53"/>
      </g>
     </g>
    </g>
    <g id="xtick_3">
     <g id="line2d_3">
      <path clip-path="url(#pcd65467cbc)" d="M 135.719582 239.375625 
L 135.719582 21.935625 
" style="fill:none;stroke:#cccccc;stroke-linecap:round;stroke-width:0.8;"/>
     </g>
     <g id="text_3">
      <!-- 50 -->
      <g style="fill:#262626;" transform="translate(130.158645 253.533437)scale(0.1 -0.1)">
       <use xlink:href="#ArialMT-53"/>
       <use x="55.615234" xlink:href="#ArialMT-48"/>
      </g>
     </g>
    </g>
    <g id="xtick_4">
     <g id="line2d_4">
      <path clip-path="url(#pcd65467cbc)" d="M 173.95622 239.375625 
L 173.95622 21.935625 
" style="fill:none;stroke:#cccccc;stroke-linecap:round;stroke-width:0.8;"/>
     </g>
     <g id="text_4">
      <!-- 75 -->
      <g style="fill:#262626;" transform="translate(168.395283 253.533437)scale(0.1 -0.1)">
       <defs>
        <path d="M 4.734375 62.203125 
L 4.734375 70.65625 
L 51.078125 70.65625 
L 51.078125 63.8125 
Q 44.234375 56.546875 37.515625 44.484375 
Q 30.8125 32.421875 27.15625 19.671875 
Q 24.515625 10.6875 23.78125 0 
L 14.75 0 
Q 14.890625 8.453125 18.0625 20.40625 
Q 21.234375 32.375 27.171875 43.484375 
Q 33.109375 54.59375 39.796875 62.203125 
z
" id="ArialMT-55"/>
       </defs>
       <use xlink:href="#ArialMT-55"/>
       <use x="55.615234" xlink:href="#ArialMT-53"/>
      </g>
     </g>
    </g>
    <g id="xtick_5">
     <g id="line2d_5">
      <path clip-path="url(#pcd65467cbc)" d="M 212.192858 239.375625 
L 212.192858 21.935625 
" style="fill:none;stroke:#cccccc;stroke-linecap:round;stroke-width:0.8;"/>
     </g>
     <g id="text_5">
      <!-- 100 -->
      <g style="fill:#262626;" transform="translate(203.851452 253.533437)scale(0.1 -0.1)">
       <defs>
        <path d="M 37.25 0 
L 28.46875 0 
L 28.46875 56 
Q 25.296875 52.984375 20.140625 49.953125 
Q 14.984375 46.921875 10.890625 45.40625 
L 10.890625 53.90625 
Q 18.265625 57.375 23.78125 62.296875 
Q 29.296875 67.234375 31.59375 71.875 
L 37.25 71.875 
z
" id="ArialMT-49"/>
       </defs>
       <use xlink:href="#ArialMT-49"/>
       <use x="55.615234" xlink:href="#ArialMT-48"/>
       <use x="111.230469" xlink:href="#ArialMT-48"/>
      </g>
     </g>
    </g>
    <g id="xtick_6">
     <g id="line2d_6">
      <path clip-path="url(#pcd65467cbc)" d="M 250.429495 239.375625 
L 250.429495 21.935625 
" style="fill:none;stroke:#cccccc;stroke-linecap:round;stroke-width:0.8;"/>
     </g>
     <g id="text_6">
      <!-- 125 -->
      <g style="fill:#262626;" transform="translate(242.088089 253.533437)scale(0.1 -0.1)">
       <use xlink:href="#ArialMT-49"/>
       <use x="55.615234" xlink:href="#ArialMT-50"/>
       <use x="111.230469" xlink:href="#ArialMT-53"/>
      </g>
     </g>
    </g>
    <g id="xtick_7">
     <g id="line2d_7">
      <path clip-path="url(#pcd65467cbc)" d="M 288.666133 239.375625 
L 288.666133 21.935625 
" style="fill:none;stroke:#cccccc;stroke-linecap:round;stroke-width:0.8;"/>
     </g>
     <g id="text_7">
      <!-- 150 -->
      <g style="fill:#262626;" transform="translate(280.324727 253.533437)scale(0.1 -0.1)">
       <use xlink:href="#ArialMT-49"/>
       <use x="55.615234" xlink:href="#ArialMT-53"/>
       <use x="111.230469" xlink:href="#ArialMT-48"/>
      </g>
     </g>
    </g>
    <g id="xtick_8">
     <g id="line2d_8">
      <path clip-path="url(#pcd65467cbc)" d="M 326.902771 239.375625 
L 326.902771 21.935625 
" style="fill:none;stroke:#cccccc;stroke-linecap:round;stroke-width:0.8;"/>
     </g>
     <g id="text_8">
      <!-- 175 -->
      <g style="fill:#262626;" transform="translate(318.561365 253.533437)scale(0.1 -0.1)">
       <use xlink:href="#ArialMT-49"/>
       <use x="55.615234" xlink:href="#ArialMT-55"/>
       <use x="111.230469" xlink:href="#ArialMT-53"/>
      </g>
     </g>
    </g>
    <g id="xtick_9">
     <g id="line2d_9">
      <path clip-path="url(#pcd65467cbc)" d="M 365.139409 239.375625 
L 365.139409 21.935625 
" style="fill:none;stroke:#cccccc;stroke-linecap:round;stroke-width:0.8;"/>
     </g>
     <g id="text_9">
      <!-- 200 -->
      <g style="fill:#262626;" transform="translate(356.798002 253.533437)scale(0.1 -0.1)">
       <use xlink:href="#ArialMT-50"/>
       <use x="55.615234" xlink:href="#ArialMT-48"/>
       <use x="111.230469" xlink:href="#ArialMT-48"/>
      </g>
     </g>
    </g>
    <g id="text_10">
     <!-- epoch -->
     <g style="fill:#262626;" transform="translate(197.80625 266.67875)scale(0.1 -0.1)">
      <defs>
       <path d="M 42.09375 16.703125 
L 51.171875 15.578125 
Q 49.03125 7.625 43.21875 3.21875 
Q 37.40625 -1.171875 28.375 -1.171875 
Q 17 -1.171875 10.328125 5.828125 
Q 3.65625 12.84375 3.65625 25.484375 
Q 3.65625 38.578125 10.390625 45.796875 
Q 17.140625 53.03125 27.875 53.03125 
Q 38.28125 53.03125 44.875 45.953125 
Q 51.46875 38.875 51.46875 26.03125 
Q 51.46875 25.25 51.421875 23.6875 
L 12.75 23.6875 
Q 13.234375 15.140625 17.578125 10.59375 
Q 21.921875 6.0625 28.421875 6.0625 
Q 33.25 6.0625 36.671875 8.59375 
Q 40.09375 11.140625 42.09375 16.703125 
z
M 13.234375 30.90625 
L 42.1875 30.90625 
Q 41.609375 37.453125 38.875 40.71875 
Q 34.671875 45.796875 27.984375 45.796875 
Q 21.921875 45.796875 17.796875 41.75 
Q 13.671875 37.703125 13.234375 30.90625 
z
" id="ArialMT-101"/>
       <path d="M 6.59375 -19.875 
L 6.59375 51.859375 
L 14.59375 51.859375 
L 14.59375 45.125 
Q 17.4375 49.078125 21 51.046875 
Q 24.5625 53.03125 29.640625 53.03125 
Q 36.28125 53.03125 41.359375 49.609375 
Q 46.4375 46.1875 49.015625 39.953125 
Q 51.609375 33.734375 51.609375 26.3125 
Q 51.609375 18.359375 48.75 11.984375 
Q 45.90625 5.609375 40.453125 2.21875 
Q 35.015625 -1.171875 29 -1.171875 
Q 24.609375 -1.171875 21.109375 0.6875 
Q 17.625 2.546875 15.375 5.375 
L 15.375 -19.875 
z
M 14.546875 25.640625 
Q 14.546875 15.625 18.59375 10.84375 
Q 22.65625 6.0625 28.421875 6.0625 
Q 34.28125 6.0625 38.453125 11.015625 
Q 42.625 15.96875 42.625 26.375 
Q 42.625 36.28125 38.546875 41.203125 
Q 34.46875 46.140625 28.8125 46.140625 
Q 23.1875 46.140625 18.859375 40.890625 
Q 14.546875 35.640625 14.546875 25.640625 
z
" id="ArialMT-112"/>
       <path d="M 3.328125 25.921875 
Q 3.328125 40.328125 11.328125 47.265625 
Q 18.015625 53.03125 27.640625 53.03125 
Q 38.328125 53.03125 45.109375 46.015625 
Q 51.90625 39.015625 51.90625 26.65625 
Q 51.90625 16.65625 48.90625 10.90625 
Q 45.90625 5.171875 40.15625 2 
Q 34.421875 -1.171875 27.640625 -1.171875 
Q 16.75 -1.171875 10.03125 5.8125 
Q 3.328125 12.796875 3.328125 25.921875 
z
M 12.359375 25.921875 
Q 12.359375 15.96875 16.703125 11.015625 
Q 21.046875 6.0625 27.640625 6.0625 
Q 34.1875 6.0625 38.53125 11.03125 
Q 42.875 16.015625 42.875 26.21875 
Q 42.875 35.84375 38.5 40.796875 
Q 34.125 45.75 27.640625 45.75 
Q 21.046875 45.75 16.703125 40.8125 
Q 12.359375 35.890625 12.359375 25.921875 
z
" id="ArialMT-111"/>
       <path d="M 40.4375 19 
L 49.078125 17.875 
Q 47.65625 8.9375 41.8125 3.875 
Q 35.984375 -1.171875 27.484375 -1.171875 
Q 16.84375 -1.171875 10.375 5.78125 
Q 3.90625 12.75 3.90625 25.734375 
Q 3.90625 34.125 6.6875 40.421875 
Q 9.46875 46.734375 15.15625 49.875 
Q 20.84375 53.03125 27.546875 53.03125 
Q 35.984375 53.03125 41.359375 48.75 
Q 46.734375 44.484375 48.25 36.625 
L 39.703125 35.296875 
Q 38.484375 40.53125 35.375 43.15625 
Q 32.28125 45.796875 27.875 45.796875 
Q 21.234375 45.796875 17.078125 41.03125 
Q 12.9375 36.28125 12.9375 25.984375 
Q 12.9375 15.53125 16.9375 10.796875 
Q 20.953125 6.0625 27.390625 6.0625 
Q 32.5625 6.0625 36.03125 9.234375 
Q 39.5 12.40625 40.4375 19 
z
" id="ArialMT-99"/>
       <path d="M 6.59375 0 
L 6.59375 71.578125 
L 15.375 71.578125 
L 15.375 45.90625 
Q 21.53125 53.03125 30.90625 53.03125 
Q 36.671875 53.03125 40.921875 50.75 
Q 45.171875 48.484375 47 44.484375 
Q 48.828125 40.484375 48.828125 32.859375 
L 48.828125 0 
L 40.046875 0 
L 40.046875 32.859375 
Q 40.046875 39.453125 37.1875 42.453125 
Q 34.328125 45.453125 29.109375 45.453125 
Q 25.203125 45.453125 21.75 43.421875 
Q 18.3125 41.40625 16.84375 37.9375 
Q 15.375 34.46875 15.375 28.375 
L 15.375 0 
z
" id="ArialMT-104"/>
      </defs>
      <use xlink:href="#ArialMT-101"/>
      <use x="55.615234" xlink:href="#ArialMT-112"/>
      <use x="111.230469" xlink:href="#ArialMT-111"/>
      <use x="166.845703" xlink:href="#ArialMT-99"/>
      <use x="216.845703" xlink:href="#ArialMT-104"/>
     </g>
    </g>
   </g>
   <g id="matplotlib.axis_2">
    <g id="ytick_1">
     <g id="line2d_10">
      <path clip-path="url(#pcd65467cbc)" d="M 44.028125 204.278792 
L 378.828125 204.278792 
" style="fill:none;stroke:#cccccc;stroke-linecap:round;stroke-width:0.8;"/>
     </g>
     <g id="text_11">
      <!-- 100 -->
      <g style="fill:#262626;" transform="translate(20.345313 207.857698)scale(0.1 -0.1)">
       <use xlink:href="#ArialMT-49"/>
       <use x="55.615234" xlink:href="#ArialMT-48"/>
       <use x="111.230469" xlink:href="#ArialMT-48"/>
      </g>
     </g>
    </g>
    <g id="ytick_2">
     <g id="line2d_11">
      <path clip-path="url(#pcd65467cbc)" d="M 44.028125 157.118986 
L 378.828125 157.118986 
" style="fill:none;stroke:#cccccc;stroke-linecap:round;stroke-width:0.8;"/>
     </g>
     <g id="text_12">
      <!-- 150 -->
      <g style="fill:#262626;" transform="translate(20.345313 160.697892)scale(0.1 -0.1)">
       <use xlink:href="#ArialMT-49"/>
       <use x="55.615234" xlink:href="#ArialMT-53"/>
       <use x="111.230469" xlink:href="#ArialMT-48"/>
      </g>
     </g>
    </g>
    <g id="ytick_3">
     <g id="line2d_12">
      <path clip-path="url(#pcd65467cbc)" d="M 44.028125 109.95918 
L 378.828125 109.95918 
" style="fill:none;stroke:#cccccc;stroke-linecap:round;stroke-width:0.8;"/>
     </g>
     <g id="text_13">
      <!-- 200 -->
      <g style="fill:#262626;" transform="translate(20.345313 113.538086)scale(0.1 -0.1)">
       <use xlink:href="#ArialMT-50"/>
       <use x="55.615234" xlink:href="#ArialMT-48"/>
       <use x="111.230469" xlink:href="#ArialMT-48"/>
      </g>
     </g>
    </g>
    <g id="ytick_4">
     <g id="line2d_13">
      <path clip-path="url(#pcd65467cbc)" d="M 44.028125 62.799374 
L 378.828125 62.799374 
" style="fill:none;stroke:#cccccc;stroke-linecap:round;stroke-width:0.8;"/>
     </g>
     <g id="text_14">
      <!-- 250 -->
      <g style="fill:#262626;" transform="translate(20.345313 66.37828)scale(0.1 -0.1)">
       <use xlink:href="#ArialMT-50"/>
       <use x="55.615234" xlink:href="#ArialMT-53"/>
       <use x="111.230469" xlink:href="#ArialMT-48"/>
      </g>
     </g>
    </g>
    <g id="text_15">
     <!-- value -->
     <g style="fill:#262626;" transform="translate(14.357813 142.607969)rotate(-90)scale(0.1 -0.1)">
      <defs>
       <path d="M 21 0 
L 1.265625 51.859375 
L 10.546875 51.859375 
L 21.6875 20.796875 
Q 23.484375 15.765625 25 10.359375 
Q 26.171875 14.453125 28.265625 20.21875 
L 39.796875 51.859375 
L 48.828125 51.859375 
L 29.203125 0 
z
" id="ArialMT-118"/>
       <path d="M 40.4375 6.390625 
Q 35.546875 2.25 31.03125 0.53125 
Q 26.515625 -1.171875 21.34375 -1.171875 
Q 12.796875 -1.171875 8.203125 3 
Q 3.609375 7.171875 3.609375 13.671875 
Q 3.609375 17.484375 5.34375 20.625 
Q 7.078125 23.78125 9.890625 25.6875 
Q 12.703125 27.59375 16.21875 28.5625 
Q 18.796875 29.25 24.03125 29.890625 
Q 34.671875 31.15625 39.703125 32.90625 
Q 39.75 34.71875 39.75 35.203125 
Q 39.75 40.578125 37.25 42.78125 
Q 33.890625 45.75 27.25 45.75 
Q 21.046875 45.75 18.09375 43.578125 
Q 15.140625 41.40625 13.71875 35.890625 
L 5.125 37.0625 
Q 6.296875 42.578125 8.984375 45.96875 
Q 11.671875 49.359375 16.75 51.1875 
Q 21.828125 53.03125 28.515625 53.03125 
Q 35.15625 53.03125 39.296875 51.46875 
Q 43.453125 49.90625 45.40625 47.53125 
Q 47.359375 45.171875 48.140625 41.546875 
Q 48.578125 39.3125 48.578125 33.453125 
L 48.578125 21.734375 
Q 48.578125 9.46875 49.140625 6.21875 
Q 49.703125 2.984375 51.375 0 
L 42.1875 0 
Q 40.828125 2.734375 40.4375 6.390625 
z
M 39.703125 26.03125 
Q 34.90625 24.078125 25.34375 22.703125 
Q 19.921875 21.921875 17.671875 20.9375 
Q 15.4375 19.96875 14.203125 18.09375 
Q 12.984375 16.21875 12.984375 13.921875 
Q 12.984375 10.40625 15.640625 8.0625 
Q 18.3125 5.71875 23.4375 5.71875 
Q 28.515625 5.71875 32.46875 7.9375 
Q 36.421875 10.15625 38.28125 14.015625 
Q 39.703125 17 39.703125 22.796875 
z
" id="ArialMT-97"/>
       <path d="M 6.390625 0 
L 6.390625 71.578125 
L 15.1875 71.578125 
L 15.1875 0 
z
" id="ArialMT-108"/>
       <path d="M 40.578125 0 
L 40.578125 7.625 
Q 34.515625 -1.171875 24.125 -1.171875 
Q 19.53125 -1.171875 15.546875 0.578125 
Q 11.578125 2.34375 9.640625 5 
Q 7.71875 7.671875 6.9375 11.53125 
Q 6.390625 14.109375 6.390625 19.734375 
L 6.390625 51.859375 
L 15.1875 51.859375 
L 15.1875 23.09375 
Q 15.1875 16.21875 15.71875 13.8125 
Q 16.546875 10.359375 19.234375 8.375 
Q 21.921875 6.390625 25.875 6.390625 
Q 29.828125 6.390625 33.296875 8.421875 
Q 36.765625 10.453125 38.203125 13.9375 
Q 39.65625 17.4375 39.65625 24.078125 
L 39.65625 51.859375 
L 48.4375 51.859375 
L 48.4375 0 
z
" id="ArialMT-117"/>
      </defs>
      <use xlink:href="#ArialMT-118"/>
      <use x="50" xlink:href="#ArialMT-97"/>
      <use x="105.615234" xlink:href="#ArialMT-108"/>
      <use x="127.832031" xlink:href="#ArialMT-117"/>
      <use x="183.447266" xlink:href="#ArialMT-101"/>
     </g>
    </g>
   </g>
   <g id="line2d_14">
    <path clip-path="url(#pcd65467cbc)" d="M 59.246307 42.630929 
L 60.775772 63.334786 
L 62.305238 86.96709 
L 63.834703 113.40266 
L 65.364169 143.893947 
L 66.893634 179.333373 
L 68.4231 194.27333 
L 69.952565 194.640938 
L 71.482031 196.1577 
L 73.011496 193.996197 
L 74.540962 202.155471 
L 76.070427 204.459325 
L 77.599893 205.163858 
L 79.129358 199.441299 
L 80.658824 192.443541 
L 82.188289 189.594639 
L 83.717755 188.977386 
L 85.24722 193.575928 
L 89.835617 213.591263 
L 91.365083 216.086654 
L 92.894548 217.81495 
L 94.424014 217.826996 
L 95.953479 218.019497 
L 97.482945 216.729244 
L 99.01241 215.690571 
L 100.541876 213.400957 
L 102.071341 211.876071 
L 105.130272 212.666539 
L 106.659738 217.193703 
L 108.189203 218.925698 
L 109.718669 219.486008 
L 112.7776 224.89005 
L 114.307065 224.476791 
L 117.365996 219.62143 
L 118.895462 222.961 
L 120.424927 222.225618 
L 121.954393 218.620069 
L 123.483858 215.43512 
L 125.013324 215.889102 
L 126.542789 215.253629 
L 128.072255 217.928229 
L 129.60172 220.242763 
L 131.131186 221.757999 
L 132.660651 219.631015 
L 134.190117 222.538493 
L 135.719582 218.892323 
L 137.249048 219.640162 
L 138.778513 218.894007 
L 140.307979 220.951052 
L 141.837444 221.894414 
L 143.36691 218.11978 
L 144.896375 219.542015 
L 146.425841 222.846735 
L 147.955306 224.26173 
L 149.484772 218.385529 
L 151.014237 215.660341 
L 152.543703 220.197752 
L 154.073168 220.438344 
L 155.602634 224.538108 
L 157.132099 220.832484 
L 158.661565 221.931294 
L 160.19103 223.756916 
L 161.720496 222.272896 
L 163.249961 223.206348 
L 164.779427 217.757734 
L 166.308892 222.087584 
L 167.838358 218.481617 
L 169.367823 218.827077 
L 170.897289 220.70338 
L 172.426755 224.471552 
L 173.95622 219.668557 
L 175.485686 219.683129 
L 177.015151 219.240041 
L 178.544617 222.589837 
L 180.074082 222.553396 
L 181.603548 221.958502 
L 183.133013 219.722542 
L 184.662479 219.013216 
L 186.191944 222.394753 
L 187.72141 221.601522 
L 189.250875 221.201553 
L 190.780341 222.627242 
L 192.309806 220.795496 
L 193.839272 221.93582 
L 195.368737 222.562931 
L 196.898203 225.57142 
L 198.427668 224.014957 
L 199.957134 223.857818 
L 201.486599 202.981609 
L 203.016065 204.224548 
L 204.54553 209.849904 
L 206.074996 224.051434 
L 207.604461 222.309365 
L 209.133927 223.453776 
L 212.192858 207.624493 
L 213.722323 214.535488 
L 215.251789 220.773275 
L 216.781254 222.085886 
L 218.31072 214.768869 
L 219.840185 215.914482 
L 221.369651 219.862245 
L 222.899116 224.940732 
L 224.428582 222.012278 
L 225.958047 220.995524 
L 229.016978 210.508821 
L 230.546444 213.269882 
L 232.075909 218.833373 
L 233.605375 219.504956 
L 235.13484 214.067085 
L 236.664306 211.31707 
L 238.193771 209.156726 
L 239.723237 215.341032 
L 241.252702 222.543416 
L 242.782168 226.246154 
L 244.311633 227.55372 
L 245.841099 223.517626 
L 247.370564 212.281192 
L 248.90003 209.36269 
L 250.429495 214.830863 
L 251.958961 222.215522 
L 253.488427 227.079309 
L 255.017892 217.703268 
L 256.547358 211.379956 
L 258.076823 218.112009 
L 259.606289 216.859434 
L 261.135754 215.268194 
L 262.66522 218.815549 
L 264.194685 220.100066 
L 265.724151 219.666377 
L 267.253616 219.600296 
L 268.783082 212.757302 
L 270.312547 216.33324 
L 271.842013 218.958404 
L 273.371478 223.738882 
L 274.900944 221.534649 
L 276.430409 212.229187 
L 277.959875 210.565778 
L 279.48934 216.447786 
L 281.018806 226.247183 
L 282.548271 222.736585 
L 284.077737 216.041535 
L 285.607202 207.953207 
L 287.136668 214.134253 
L 288.666133 216.407755 
L 290.195599 229.491989 
L 291.725064 229.260989 
L 293.25453 219.31606 
L 294.783995 207.869107 
L 296.313461 197.691718 
L 297.842926 201.505922 
L 300.901857 224.03651 
L 302.431323 221.763576 
L 303.960788 224.024636 
L 305.490254 223.850485 
L 307.019719 211.663659 
L 308.549185 206.318243 
L 310.07865 202.275817 
L 311.608116 208.539099 
L 313.137581 215.936092 
L 314.667047 222.492022 
L 316.196512 225.817322 
L 317.725978 225.580674 
L 319.255443 224.610759 
L 320.784909 221.485213 
L 322.314374 211.789474 
L 323.84384 211.016428 
L 325.373305 209.835497 
L 326.902771 217.678118 
L 328.432236 218.100272 
L 329.961702 225.155972 
L 331.491167 225.231724 
L 333.020633 224.589437 
L 334.550099 222.506853 
L 336.079564 211.750249 
L 337.60903 208.850399 
L 339.138495 205.63188 
L 340.667961 213.178816 
L 342.197426 217.669526 
L 343.726892 224.373456 
L 345.256357 220.188872 
L 346.785823 215.426348 
L 348.315288 212.180513 
L 349.844754 217.474434 
L 351.374219 212.3383 
L 352.903685 212.922199 
L 354.43315 210.774383 
L 355.962616 213.411032 
L 357.492081 218.222151 
L 359.021547 218.792399 
L 360.551012 225.92868 
L 362.080478 226.0774 
L 363.609943 218.141268 
L 363.609943 218.141268 
" style="fill:none;stroke:#1f77b4;stroke-linecap:round;stroke-width:1.5;"/>
   </g>
   <g id="line2d_15">
    <path clip-path="url(#pcd65467cbc)" d="M 59.246307 31.819261 
L 62.305238 73.287235 
L 63.834703 97.664298 
L 66.893634 154.967132 
L 68.4231 165.767286 
L 69.952565 166.895593 
L 71.482031 170.77721 
L 73.011496 176.966531 
L 74.540962 184.855437 
L 76.070427 193.889393 
L 77.599893 198.586938 
L 79.129358 195.732948 
L 80.658824 189.600655 
L 82.188289 184.187884 
L 83.717755 183.938045 
L 85.24722 187.511508 
L 86.776686 193.99837 
L 88.306151 201.287084 
L 89.835617 206.382388 
L 91.365083 207.137466 
L 92.894548 206.422844 
L 94.424014 204.610125 
L 97.482945 205.087012 
L 99.01241 207.301291 
L 100.541876 207.238268 
L 102.071341 205.337786 
L 103.600807 205.701645 
L 106.659738 208.928447 
L 108.189203 208.931922 
L 109.718669 206.51609 
L 111.248134 208.76509 
L 112.7776 208.315663 
L 114.307065 208.710357 
L 115.836531 208.149953 
L 117.365996 208.561184 
L 118.895462 211.02225 
L 120.424927 212.092146 
L 121.954393 210.75694 
L 123.483858 208.79812 
L 125.013324 207.837099 
L 126.542789 210.006316 
L 128.072255 211.543371 
L 129.60172 211.786761 
L 131.131186 209.215452 
L 132.660651 209.071604 
L 134.190117 211.377985 
L 135.719582 210.810334 
L 137.249048 211.989229 
L 138.778513 210.585739 
L 140.307979 212.663913 
L 141.837444 211.849863 
L 143.36691 210.056688 
L 144.896375 208.472306 
L 146.425841 211.96066 
L 147.955306 214.107282 
L 149.484772 211.101636 
L 151.014237 209.406528 
L 152.543703 212.771551 
L 154.073168 209.979986 
L 155.602634 213.670009 
L 157.132099 210.897902 
L 158.661565 210.594713 
L 160.19103 210.512685 
L 161.720496 213.370684 
L 163.249961 212.689192 
L 164.779427 211.38803 
L 166.308892 209.590228 
L 167.838358 212.290634 
L 169.367823 213.459051 
L 170.897289 213.775193 
L 172.426755 213.157358 
L 173.95622 208.282036 
L 175.485686 205.827626 
L 178.544617 212.15763 
L 180.074082 213.919229 
L 181.603548 212.189414 
L 183.133013 211.679462 
L 184.662479 213.158027 
L 186.191944 213.059039 
L 187.72141 214.419647 
L 189.250875 211.45794 
L 190.780341 212.467958 
L 192.309806 212.511638 
L 193.839272 211.549358 
L 195.368737 211.207396 
L 196.898203 215.066684 
L 198.427668 215.447202 
L 199.957134 213.766824 
L 201.486599 210.122834 
L 203.016065 205.367448 
L 206.074996 218.067328 
L 207.604461 214.68382 
L 209.133927 216.583229 
L 210.663392 208.92459 
L 212.192858 207.451177 
L 213.722323 209.064329 
L 215.251789 213.315612 
L 216.781254 217.02808 
L 218.31072 211.388397 
L 219.840185 207.810618 
L 222.899116 215.746592 
L 224.428582 215.685109 
L 225.958047 216.11515 
L 227.487513 212.050366 
L 229.016978 204.079987 
L 230.546444 208.848312 
L 232.075909 214.952303 
L 233.605375 213.180666 
L 235.13484 209.170823 
L 236.664306 206.733705 
L 238.193771 210.092258 
L 239.723237 207.523676 
L 241.252702 211.036282 
L 242.782168 209.568561 
L 244.311633 213.926533 
L 245.841099 214.630461 
L 247.370564 210.763517 
L 248.90003 211.578703 
L 250.429495 215.087365 
L 251.958961 215.669084 
L 253.488427 218.681185 
L 255.017892 211.880302 
L 256.547358 212.544559 
L 258.076823 213.802581 
L 259.606289 215.468221 
L 261.135754 213.338935 
L 262.66522 213.667346 
L 264.194685 211.955371 
L 265.724151 211.229689 
L 267.253616 209.063048 
L 268.783082 211.914361 
L 270.312547 212.29262 
L 271.842013 213.972163 
L 273.371478 219.697449 
L 274.900944 217.631236 
L 276.430409 211.36727 
L 277.959875 208.730391 
L 279.48934 214.649574 
L 281.018806 217.031246 
L 282.548271 218.429468 
L 284.077737 213.065054 
L 285.607202 214.583212 
L 287.136668 215.446439 
L 288.666133 215.290242 
L 290.195599 212.932425 
L 291.725064 219.082823 
L 293.25453 217.689106 
L 294.783995 209.220662 
L 296.313461 209.012259 
L 297.842926 206.985026 
L 299.372392 210.053616 
L 300.901857 212.606891 
L 302.431323 210.306994 
L 303.960788 211.21978 
L 305.490254 217.897157 
L 307.019719 210.460205 
L 308.549185 206.134176 
L 310.07865 207.485372 
L 311.608116 210.386748 
L 313.137581 213.552397 
L 314.667047 214.696528 
L 316.196512 215.016304 
L 317.725978 214.598863 
L 319.255443 213.990959 
L 320.784909 215.082594 
L 322.314374 212.600724 
L 325.373305 209.151825 
L 326.902771 212.924703 
L 328.432236 216.043435 
L 329.961702 217.752323 
L 331.491167 211.215657 
L 333.020633 215.616301 
L 334.550099 213.90937 
L 336.079564 211.549394 
L 337.60903 208.175657 
L 339.138495 207.802227 
L 340.667961 210.09459 
L 342.197426 214.2315 
L 343.726892 214.728341 
L 345.256357 214.465032 
L 346.785823 209.643543 
L 348.315288 210.468818 
L 349.844754 211.950348 
L 351.374219 212.329341 
L 352.903685 211.439806 
L 354.43315 209.748447 
L 355.962616 210.44138 
L 357.492081 210.245303 
L 359.021547 214.439299 
L 360.551012 217.711327 
L 362.080478 214.155056 
L 363.609943 214.36667 
L 363.609943 214.36667 
" style="fill:none;stroke:#ff7f0e;stroke-linecap:round;stroke-width:1.5;"/>
   </g>
   <g id="line2d_16"/>
   <g id="line2d_17"/>
   <g id="patch_3">
    <path d="M 44.028125 239.375625 
L 44.028125 21.935625 
" style="fill:none;stroke:#cccccc;stroke-linecap:square;stroke-linejoin:miter;stroke-width:0.8;"/>
   </g>
   <g id="patch_4">
    <path d="M 378.828125 239.375625 
L 378.828125 21.935625 
" style="fill:none;stroke:#cccccc;stroke-linecap:square;stroke-linejoin:miter;stroke-width:0.8;"/>
   </g>
   <g id="patch_5">
    <path d="M 44.028125 239.375625 
L 378.828125 239.375625 
" style="fill:none;stroke:#cccccc;stroke-linecap:square;stroke-linejoin:miter;stroke-width:0.8;"/>
   </g>
   <g id="patch_6">
    <path d="M 44.028125 21.935625 
L 378.828125 21.935625 
" style="fill:none;stroke:#cccccc;stroke-linecap:square;stroke-linejoin:miter;stroke-width:0.8;"/>
   </g>
   <g id="text_16">
    <!-- Val-test mae/epoch -->
    <g style="fill:#262626;" transform="translate(160.179688 15.935625)scale(0.12 -0.12)">
     <defs>
      <path d="M 28.171875 0 
L 0.4375 71.578125 
L 10.6875 71.578125 
L 29.296875 19.578125 
Q 31.546875 13.328125 33.0625 7.859375 
Q 34.71875 13.71875 36.921875 19.578125 
L 56.25 71.578125 
L 65.921875 71.578125 
L 37.890625 0 
z
" id="ArialMT-86"/>
      <path d="M 3.171875 21.484375 
L 3.171875 30.328125 
L 30.171875 30.328125 
L 30.171875 21.484375 
z
" id="ArialMT-45"/>
      <path d="M 25.78125 7.859375 
L 27.046875 0.09375 
Q 23.34375 -0.6875 20.40625 -0.6875 
Q 15.625 -0.6875 12.984375 0.828125 
Q 10.359375 2.34375 9.28125 4.8125 
Q 8.203125 7.28125 8.203125 15.1875 
L 8.203125 45.015625 
L 1.765625 45.015625 
L 1.765625 51.859375 
L 8.203125 51.859375 
L 8.203125 64.703125 
L 16.9375 69.96875 
L 16.9375 51.859375 
L 25.78125 51.859375 
L 25.78125 45.015625 
L 16.9375 45.015625 
L 16.9375 14.703125 
Q 16.9375 10.9375 17.40625 9.859375 
Q 17.875 8.796875 18.921875 8.15625 
Q 19.96875 7.515625 21.921875 7.515625 
Q 23.390625 7.515625 25.78125 7.859375 
z
" id="ArialMT-116"/>
      <path d="M 3.078125 15.484375 
L 11.765625 16.84375 
Q 12.5 11.625 15.84375 8.84375 
Q 19.1875 6.0625 25.203125 6.0625 
Q 31.25 6.0625 34.171875 8.515625 
Q 37.109375 10.984375 37.109375 14.3125 
Q 37.109375 17.28125 34.515625 19 
Q 32.71875 20.171875 25.53125 21.96875 
Q 15.875 24.421875 12.140625 26.203125 
Q 8.40625 27.984375 6.46875 31.125 
Q 4.546875 34.28125 4.546875 38.09375 
Q 4.546875 41.546875 6.125 44.5 
Q 7.71875 47.46875 10.453125 49.421875 
Q 12.5 50.921875 16.03125 51.96875 
Q 19.578125 53.03125 23.640625 53.03125 
Q 29.734375 53.03125 34.34375 51.265625 
Q 38.96875 49.515625 41.15625 46.5 
Q 43.359375 43.5 44.1875 38.484375 
L 35.59375 37.3125 
Q 35.015625 41.3125 32.203125 43.546875 
Q 29.390625 45.796875 24.265625 45.796875 
Q 18.21875 45.796875 15.625 43.796875 
Q 13.03125 41.796875 13.03125 39.109375 
Q 13.03125 37.40625 14.109375 36.03125 
Q 15.1875 34.625 17.484375 33.6875 
Q 18.796875 33.203125 25.25 31.453125 
Q 34.578125 28.953125 38.25 27.359375 
Q 41.9375 25.78125 44.03125 22.75 
Q 46.140625 19.734375 46.140625 15.234375 
Q 46.140625 10.84375 43.578125 6.953125 
Q 41.015625 3.078125 36.171875 0.953125 
Q 31.34375 -1.171875 25.25 -1.171875 
Q 15.140625 -1.171875 9.84375 3.03125 
Q 4.546875 7.234375 3.078125 15.484375 
z
" id="ArialMT-115"/>
      <path id="ArialMT-32"/>
      <path d="M 6.59375 0 
L 6.59375 51.859375 
L 14.453125 51.859375 
L 14.453125 44.578125 
Q 16.890625 48.390625 20.9375 50.703125 
Q 25 53.03125 30.171875 53.03125 
Q 35.9375 53.03125 39.625 50.640625 
Q 43.3125 48.25 44.828125 43.953125 
Q 50.984375 53.03125 60.84375 53.03125 
Q 68.5625 53.03125 72.703125 48.75 
Q 76.859375 44.484375 76.859375 35.59375 
L 76.859375 0 
L 68.109375 0 
L 68.109375 32.671875 
Q 68.109375 37.9375 67.25 40.25 
Q 66.40625 42.578125 64.15625 43.984375 
Q 61.921875 45.40625 58.890625 45.40625 
Q 53.421875 45.40625 49.796875 41.765625 
Q 46.1875 38.140625 46.1875 30.125 
L 46.1875 0 
L 37.40625 0 
L 37.40625 33.6875 
Q 37.40625 39.546875 35.25 42.46875 
Q 33.109375 45.40625 28.21875 45.40625 
Q 24.515625 45.40625 21.359375 43.453125 
Q 18.21875 41.5 16.796875 37.734375 
Q 15.375 33.984375 15.375 26.90625 
L 15.375 0 
z
" id="ArialMT-109"/>
      <path d="M 0 -1.21875 
L 20.75 72.796875 
L 27.78125 72.796875 
L 7.078125 -1.21875 
z
" id="ArialMT-47"/>
     </defs>
     <use xlink:href="#ArialMT-86"/>
     <use x="59.324219" xlink:href="#ArialMT-97"/>
     <use x="114.939453" xlink:href="#ArialMT-108"/>
     <use x="137.15625" xlink:href="#ArialMT-45"/>
     <use x="170.457031" xlink:href="#ArialMT-116"/>
     <use x="198.240234" xlink:href="#ArialMT-101"/>
     <use x="253.855469" xlink:href="#ArialMT-115"/>
     <use x="303.855469" xlink:href="#ArialMT-116"/>
     <use x="331.638672" xlink:href="#ArialMT-32"/>
     <use x="359.421875" xlink:href="#ArialMT-109"/>
     <use x="442.722656" xlink:href="#ArialMT-97"/>
     <use x="498.337891" xlink:href="#ArialMT-101"/>
     <use x="553.953125" xlink:href="#ArialMT-47"/>
     <use x="581.736328" xlink:href="#ArialMT-101"/>
     <use x="637.351562" xlink:href="#ArialMT-112"/>
     <use x="692.966797" xlink:href="#ArialMT-111"/>
     <use x="748.582031" xlink:href="#ArialMT-99"/>
     <use x="798.582031" xlink:href="#ArialMT-104"/>
    </g>
   </g>
   <g id="legend_1">
    <g id="patch_7">
     <path d="M 298.698438 72.371562 
L 371.828125 72.371562 
Q 373.828125 72.371562 373.828125 70.371562 
L 373.828125 28.935625 
Q 373.828125 26.935625 371.828125 26.935625 
L 298.698438 26.935625 
Q 296.698438 26.935625 296.698438 28.935625 
L 296.698438 70.371562 
Q 296.698438 72.371562 298.698438 72.371562 
z
" style="fill:#ffffff;opacity:0.8;stroke:#cccccc;stroke-linejoin:miter;"/>
    </g>
    <g id="text_17">
     <!-- variable -->
     <g style="fill:#262626;" transform="translate(317.754687 38.093437)scale(0.1 -0.1)">
      <defs>
       <path d="M 6.5 0 
L 6.5 51.859375 
L 14.40625 51.859375 
L 14.40625 44 
Q 17.4375 49.515625 20 51.265625 
Q 22.5625 53.03125 25.640625 53.03125 
Q 30.078125 53.03125 34.671875 50.203125 
L 31.640625 42.046875 
Q 28.421875 43.953125 25.203125 43.953125 
Q 22.3125 43.953125 20.015625 42.21875 
Q 17.71875 40.484375 16.75 37.40625 
Q 15.28125 32.71875 15.28125 27.15625 
L 15.28125 0 
z
" id="ArialMT-114"/>
       <path d="M 6.640625 61.46875 
L 6.640625 71.578125 
L 15.4375 71.578125 
L 15.4375 61.46875 
z
M 6.640625 0 
L 6.640625 51.859375 
L 15.4375 51.859375 
L 15.4375 0 
z
" id="ArialMT-105"/>
       <path d="M 14.703125 0 
L 6.546875 0 
L 6.546875 71.578125 
L 15.328125 71.578125 
L 15.328125 46.046875 
Q 20.90625 53.03125 29.546875 53.03125 
Q 34.328125 53.03125 38.59375 51.09375 
Q 42.875 49.171875 45.625 45.671875 
Q 48.390625 42.1875 49.953125 37.25 
Q 51.515625 32.328125 51.515625 26.703125 
Q 51.515625 13.375 44.921875 6.09375 
Q 38.328125 -1.171875 29.109375 -1.171875 
Q 19.921875 -1.171875 14.703125 6.5 
z
M 14.59375 26.3125 
Q 14.59375 17 17.140625 12.84375 
Q 21.296875 6.0625 28.375 6.0625 
Q 34.125 6.0625 38.328125 11.0625 
Q 42.53125 16.0625 42.53125 25.984375 
Q 42.53125 36.140625 38.5 40.96875 
Q 34.46875 45.796875 28.765625 45.796875 
Q 23 45.796875 18.796875 40.796875 
Q 14.59375 35.796875 14.59375 26.3125 
z
" id="ArialMT-98"/>
      </defs>
      <use xlink:href="#ArialMT-118"/>
      <use x="50" xlink:href="#ArialMT-97"/>
      <use x="105.615234" xlink:href="#ArialMT-114"/>
      <use x="138.916016" xlink:href="#ArialMT-105"/>
      <use x="161.132812" xlink:href="#ArialMT-97"/>
      <use x="216.748047" xlink:href="#ArialMT-98"/>
      <use x="272.363281" xlink:href="#ArialMT-108"/>
      <use x="294.580078" xlink:href="#ArialMT-101"/>
     </g>
    </g>
    <g id="line2d_18">
     <path d="M 300.698438 48.73875 
L 320.698438 48.73875 
" style="fill:none;stroke:#1f77b4;stroke-linecap:round;stroke-width:1.5;"/>
    </g>
    <g id="line2d_19"/>
    <g id="text_18">
     <!-- val_mae -->
     <g style="fill:#262626;" transform="translate(328.698438 52.23875)scale(0.1 -0.1)">
      <defs>
       <path d="M -1.515625 -19.875 
L -1.515625 -13.53125 
L 56.734375 -13.53125 
L 56.734375 -19.875 
z
" id="ArialMT-95"/>
      </defs>
      <use xlink:href="#ArialMT-118"/>
      <use x="50" xlink:href="#ArialMT-97"/>
      <use x="105.615234" xlink:href="#ArialMT-108"/>
      <use x="127.832031" xlink:href="#ArialMT-95"/>
      <use x="183.447266" xlink:href="#ArialMT-109"/>
      <use x="266.748047" xlink:href="#ArialMT-97"/>
      <use x="322.363281" xlink:href="#ArialMT-101"/>
     </g>
    </g>
    <g id="line2d_20">
     <path d="M 300.698438 62.884062 
L 320.698438 62.884062 
" style="fill:none;stroke:#ff7f0e;stroke-linecap:round;stroke-width:1.5;"/>
    </g>
    <g id="line2d_21"/>
    <g id="text_19">
     <!-- test_mae -->
     <g style="fill:#262626;" transform="translate(328.698438 66.384062)scale(0.1 -0.1)">
      <use xlink:href="#ArialMT-116"/>
      <use x="27.783203" xlink:href="#ArialMT-101"/>
      <use x="83.398438" xlink:href="#ArialMT-115"/>
      <use x="133.398438" xlink:href="#ArialMT-116"/>
      <use x="161.181641" xlink:href="#ArialMT-95"/>
      <use x="216.796875" xlink:href="#ArialMT-109"/>
      <use x="300.097656" xlink:href="#ArialMT-97"/>
      <use x="355.712891" xlink:href="#ArialMT-101"/>
     </g>
    </g>
   </g>
  </g>
 </g>
 <defs>
  <clipPath id="pcd65467cbc">
   <rect height="217.44" width="334.8" x="44.028125" y="21.935625"/>
  </clipPath>
 </defs>
</svg>
